<mxfile host="Electron" agent="Mozilla/5.0 (Windows NT 10.0; Win64; x64) AppleWebKit/537.36 (KHTML, like Gecko) draw.io/24.2.5 Chrome/120.0.6099.109 Electron/28.1.0 Safari/537.36" modified="2024-12-15T14:39:41.534Z" etag="2CrHDaf1F1lZrLGzPdhY" version="24.2.5" type="device">
  <diagram name="Страница — 1" id="QQREq4vhRbicFFmpkwqd">
    <mxGraphModel dx="1121" dy="651" grid="1" gridSize="10" guides="1" tooltips="1" connect="1" arrows="1" fold="1" page="1" pageScale="1" pageWidth="827" pageHeight="1169" math="0" shadow="0">
      <root>
        <mxCell id="0" />
        <mxCell id="1" parent="0" />
        <mxCell id="-TN5GB6mbDTB-ATYdh7D-3" value="Actor" style="shape=umlActor;verticalLabelPosition=bottom;verticalAlign=top;html=1;outlineConnect=0;" parent="1" vertex="1">
          <mxGeometry x="60" y="355" width="30" height="60" as="geometry" />
        </mxCell>
        <mxCell id="-TN5GB6mbDTB-ATYdh7D-24" value="File Service" style="rounded=0;whiteSpace=wrap;html=1;fillColor=#dae8fc;strokeColor=#6c8ebf;" parent="1" vertex="1">
          <mxGeometry x="740" y="480" width="120" height="60" as="geometry" />
        </mxCell>
        <mxCell id="-TN5GB6mbDTB-ATYdh7D-41" value="S3" style="shape=cylinder3;whiteSpace=wrap;html=1;boundedLbl=1;backgroundOutline=1;size=15;fillColor=#ffe6cc;strokeColor=#d79b00;" parent="1" vertex="1">
          <mxGeometry x="455" y="480" width="90" height="80" as="geometry" />
        </mxCell>
        <mxCell id="-TN5GB6mbDTB-ATYdh7D-42" value="" style="endArrow=classic;html=1;rounded=0;exitX=-0.037;exitY=0.753;exitDx=0;exitDy=0;exitPerimeter=0;" parent="1" source="-TN5GB6mbDTB-ATYdh7D-24" target="-TN5GB6mbDTB-ATYdh7D-41" edge="1">
          <mxGeometry width="50" height="50" relative="1" as="geometry">
            <mxPoint x="790" y="490" as="sourcePoint" />
            <mxPoint x="840" y="440" as="targetPoint" />
          </mxGeometry>
        </mxCell>
        <mxCell id="-TN5GB6mbDTB-ATYdh7D-43" value="" style="endArrow=none;html=1;rounded=0;entryX=0;entryY=0.5;entryDx=0;entryDy=0;entryPerimeter=0;startArrow=classic;startFill=1;endFill=0;" parent="1" target="-TN5GB6mbDTB-ATYdh7D-41" edge="1">
          <mxGeometry width="50" height="50" relative="1" as="geometry">
            <mxPoint x="140" y="440" as="sourcePoint" />
            <mxPoint x="840" y="440" as="targetPoint" />
          </mxGeometry>
        </mxCell>
        <mxCell id="_tfWTjdmwIMz37uuTFmy-6" value="S3 (sandbox)" style="shape=cylinder3;whiteSpace=wrap;html=1;boundedLbl=1;backgroundOutline=1;size=15;fillColor=#ffe6cc;strokeColor=#d79b00;" parent="1" vertex="1">
          <mxGeometry x="455" y="585" width="90" height="80" as="geometry" />
        </mxCell>
        <mxCell id="_tfWTjdmwIMz37uuTFmy-7" value="" style="endArrow=classic;html=1;rounded=0;entryX=0;entryY=0.5;entryDx=0;entryDy=0;entryPerimeter=0;" parent="1" target="_tfWTjdmwIMz37uuTFmy-6" edge="1">
          <mxGeometry width="50" height="50" relative="1" as="geometry">
            <mxPoint x="100" y="470" as="sourcePoint" />
            <mxPoint x="710" y="410" as="targetPoint" />
          </mxGeometry>
        </mxCell>
        <mxCell id="_tfWTjdmwIMz37uuTFmy-8" value="" style="endArrow=classic;html=1;rounded=0;entryX=1;entryY=0.5;entryDx=0;entryDy=0;entryPerimeter=0;" parent="1" target="_tfWTjdmwIMz37uuTFmy-6" edge="1">
          <mxGeometry width="50" height="50" relative="1" as="geometry">
            <mxPoint x="740" y="545" as="sourcePoint" />
            <mxPoint x="710" y="410" as="targetPoint" />
          </mxGeometry>
        </mxCell>
        <mxCell id="ThgxYlzbxs5j4NUEtEk3-2" style="edgeStyle=orthogonalEdgeStyle;rounded=0;orthogonalLoop=1;jettySize=auto;html=1;" edge="1" parent="1" source="ThgxYlzbxs5j4NUEtEk3-1" target="_tfWTjdmwIMz37uuTFmy-6">
          <mxGeometry relative="1" as="geometry" />
        </mxCell>
        <mxCell id="ThgxYlzbxs5j4NUEtEk3-1" value="" style="shape=image;verticalLabelPosition=bottom;labelBackgroundColor=default;verticalAlign=top;aspect=fixed;imageAspect=0;image=data:image/png,/9j/4AAQSkZJRgABAQAAAQABAAD/2wBDAAUDBAQEAwUEBAQFBQUGBwwIBwcHBw8LCwkMEQ8SEhEPERETFhwXExQaFRERGCEYGh0dHx8fExciJCIeJBweHx7/2wBDAQUFBQcGBw4ICA4eFBEUHh4eHh4eHh4eHh4eHh4eHh4eHh4eHh4eHh4eHh4eHh4eHh4eHh4eHh4eHh4eHh4eHh7/wAARCAImAiYDASIAAhEBAxEB/8QAHwAAAQUBAQEBAQEAAAAAAAAAAAECAwQFBgcICQoL/8QAtRAAAgEDAwIEAwUFBAQAAAF9AQIDAAQRBRIhMUEGE1FhByJxFDKBkaEII0KxwRVS0fAkM2JyggkKFhcYGRolJicoKSo0NTY3ODk6Q0RFRkdISUpTVFVWV1hZWmNkZWZnaGlqc3R1dnd4eXqDhIWGh4iJipKTlJWWl5iZmqKjpKWmp6ipqrKztLW2t7i5usLDxMXGx8jJytLT1NXW19jZ2uHi4+Tl5ufo6erx8vP09fb3+Pn6/8QAHwEAAwEBAQEBAQEBAQAAAAAAAAECAwQFBgcICQoL/8QAtREAAgECBAQDBAcFBAQAAQJ3AAECAxEEBSExBhJBUQdhcRMiMoEIFEKRobHBCSMzUvAVYnLRChYkNOEl8RcYGRomJygpKjU2Nzg5OkNERUZHSElKU1RVVldYWVpjZGVmZ2hpanN0dXZ3eHl6goOEhYaHiImKkpOUlZaXmJmaoqOkpaanqKmqsrO0tba3uLm6wsPExcbHyMnK0tPU1dbX2Nna4uPk5ebn6Onq8vP09fb3+Pn6/9oADAMBAAIRAxEAPwD7LooooAKKKKACiiigAooooAKKKKACiiigAooooAKKKKACiiigAooooAKKKKACiiigAooooAKKKKACiioL+8tbC0ku724jt4I13PJI2ABQJtRV2T1leJPEOj+HbI3er30Vsn8IJ+Zz6AdzXlnj341wQGSy8KRLPIODeSj5Af8AZX+L68V4prOq6lrN897ql5Nd3DdXkbOB6D2rpp4dy1lofH5txfh8Nenhvfl36L/P5feepeMvjbqd3LJb+G7dbO3yQJ5lzIw9QP4T+dea6p4k1/VGLajq93dE/wDPR81lUV2Rpxjsj8+xmbYzGSbq1G/Lp9w6N3jcPGxVlOQR1FdBonjbxVo7p9h1q6SNDnymbKH6iudoqmk9zjo4irRfNTk0/J2PevAvxstrlks/FMAtpCcC6hH7s/7y/wAI9+a9fsLy1v7WO6sriO4gkGUkjbIIr4mrf8IeMNf8LXPm6TeskZOXgf5o3+ormqYZPWJ9jlXGNajani1zR79f+D+Z9g0V5v4C+Leha+I7TUyNL1BuNsjfu3P+y3r7V6OpDAMpBB6EVxyi4uzP0LB46hjKftKElJf1v2FoooqTrCiiigAooooAKKKKACiiigAooooAKKKKACiiigAooooAKKKKACiiigAooooAKKKKACiiigAooooAKKKKACiiigAooooAKKKKACiiigAooooAKKKKACiiigAooooAKKKKACiiigAooooAKKKKACkZgqlmIAHUk1yvjfx94e8KQst7dCa8x8lrD8zn3PoK8D8d/E7xF4o8y2Ep0/T2yPs8LcsPRm/i+lbU6MpngZrxFhMuvFvmn2X6vp+fkev+Pfi5oWgCS00wjVNQU4Kxt+7Q99zevsK8G8XeL9f8U3Jl1a9Z4wcpAnyxp9FrAortp0Yw2PzbNM/xeYu03aP8q2+fcKKKK1PECiiigAooooAKKKKACu58CfE7xD4XKW7SnUNPBGbeZuVHorfw1w1FTKKkrM6MLi62Eqe0oycX5H1r4J8feHfFcQWyuhDdgZe2m+Vx7j1FdXXxFDJJDKssMjRyIdyspwQfUV6r4D+M2q6a0dn4jVtRtBgeeP8AXIPU/wB79K5KmGa1ifoOVcZU6lqeMXK/5lt810/rY+iKKyvDfiHR/ENkLvSL6K5jPUKfmU+hHY1q1ytW3Pt6dSFSKnB3T6oKKKKRYUUUUAFFFFABRRRQAUUUUAFFFFABRRRQAUUUUAFFFFABRRRQAUUUUAFFFFABRRRQAUUUUAFFFFABRRRQAUUUUAFFFFABRRRQAUUUUAFFFFABRRRQAUUUUAFFFFABRUF/eWthavdXtxHbwoCWeRsACvHvHvxrggaSy8KRLcODg3kq/IPdV/i/HFXCnKb0PPx+aYXL4c1eVvLq/RHqfiTxFo3h2yN3q99FbJ/CGPzMfQDvXhnj34zapqhksvDiNp1oSR55/wBc49v7v4V5prOq6jrF817ql5LdXDdXkbOB6D0HtVKu2nh4x1ep+c5rxbicXeFD3I/i/n0+Q+aWSeZ5ppGkkc7mdjksfU0yiiug+SbvqwooooAKKKKACiiigAooooAKKKKACiiigAooooAu6Nquo6PfLe6XeTWtwvR42xn2PqK9r8B/GyCfZZ+K4lgkJwLuJfkPuy/w/hmvB6KznTjPc9TLc4xWXSvRlp2ezPtmxvLW+tkubO4juIXAKvG2QQanr4+8IeL9e8K3Pm6ReskbHLwP80b/AFX196958A/FvQvEGy01MrpeoHACu37tz/st/jXFUw8o6rVH6RlXFOFx1oVPcn2ez9H/AJnpFFIrKyhlYMp6EHINLWB9OFFFFABRRRQAUUUUAFFFFABRRRQAUUUUAFFFFABRRRQAUUUUAFFFFABRRRQAUUUUAFFFFABRRRQAUUUUAFFFFABRRRQAUUUUAFFFFABRRRQAUUVynjfx/wCHvCkJF5dCa7I+S1hIZz9ew/Gmk5OyMa+IpYeDqVZKKXc6pmVVLMQqjkkngV5x49+Lmh6BvtNMK6pfqcFUb92h77m/wzXj/jv4m+IvFBa3Ev8AZ9gc/wCjwMQWH+03U/TpXD1108N1kfA5rxm3engl/wBvP9F/n9xveLvF2veKbky6tes8YOUgT5Y0+i+vvWDRRXWkkrI+ErVqlebnUk231YUUUUzMKKKKACiiigAooooAKKKKACiiigAooooAKKKKACiiigAooooAKKKKAO48CfE7xF4XKW5l/tDTx1t52J2j/ZbqPpXvvgjx/wCHvFcIFldCG7Ay9tMQrj6dj+FfJVPhkkhlWWGRo5EOVdTgqfUGsalCM9ep9HlXE2LwFoSfPDs+no/6R9u0V87eA/jNqul+XZ+IkbUbQDAmX/XIP/Zvxr3Tw54h0bxDZLd6RfxXKEchThl9iOorhnSlDc/ScszvCZjH91K0uz3/AOD8jVooorM9cKKKKACiiigAooooAKKKKACiiigAooooAKKKKACiiigAooooAKKKKACiiigAooooAKKKKACiiigAooooAKKKKACiiigArM8R6/pPh7T2vtXvY7aIdNx5Y+gHU1V8c+J7HwpoEuqXrAsPlhizzI/YCvlXxd4k1XxRqz6jqk5diT5cYPyRL6KK3o0XPV7HzefcQ08sjyQXNUfTovN/5HfePPjNqmqCSy8PRtp1ocgzN/rnH/sv4c15XNJJNK000jSSOcs7HJY+pNMorvhCMFZH5bjsxxOOnz15X/JeiCiiiqOIKKKKACiim+ZF/wA9Yv8AvsUDjGUtkOopvmRf89ov++xR5kX/AD2i/wC+xSuivZT7MdRTfMi/57Rf99ijzIv+e0X/AH2KLoPZT7MdRTfMi/57Rf8AfYo8yL/ntF/32KLoPZT7MdRTfMi/57Rf99ijzIv+e0X/AH2KLoPZT7MdRTfMi/57Rf8AfYo8yL/ntF/32KLoPZT7MdRTfMi/57Rf99ijzIv+e0X/AH2KLoPZT7MdRTfMi/57Rf8AfYo8yL/ntF/32KLoPZT7MdRTfMi/57Rf99ijzIv+e0X/AH2KLoPZT7MdRTfMi/57Rf8AfYpVdGOFkRj6BgadwdOa1aFooooICiiigAq5o+qajo98t7pl5Lazr/FG2M+x9R7VTooauVCcoSUouzR7v4C+NkM5jsvFcSwSHgXkQ+Q+7L2/CvZLS5t7y2S5tZkmhkG5HRsgiviSu5+FfxBvvCOopb3Ejz6RKwEsJOfL/wBpfT6d65KuHT1ifcZLxdUhJUca7x/m6r17/mfU9FQ2N1b3tnDd2sqywTIHR1OQQamriP0hNNXQUUUUDCiiigAooooAKKKKACiiigAooooAKKKKACiiigAooooAKKKKACiiigAooooAKKKKACiiigAooooAKKKyvGF9/ZnhfUr3dtaK2cqfRtpx+uKaV3YipUVODm9lqfOPxu8VSeIvF8tvFJmx09jDCo6Fh95j75yPpXBU55HldpZDudyWY+pPJpterGKirI/CMbip4uvKtPeTCiiiqOYKKKKACiiigBR1rmJtDuHmdxLDhmJ6GumFQN941y4rZH3vArtUrei/U57+wbj/AJ6wfkaP7BuP+esH5GuhCseik/QUux/7jf8AfJrl5X2P0J1op2cvxOd/sG4/56wfkaP7BuP+esH5Gui2P/cb/vk0bH/uN/3yaOR9he3h/MvvOd/sG4/56wfkaP7BuP8AnrB+Rrotj/3G/wC+TRsf+43/AHyaOR9g9vD+Zfec7/YNx/z1g/I0f2Dcf89YPyNdFsf+43/fJo2P/cb/AL5NHI+we3h/MvvOd/sG4/56wfkaP7BuP+esH5Gui2P/AHG/75NGx/7jf98mjkfYPbw/mX3nO/2Dcf8APWD8jR/YNx/z1g/I10Wx/wC43/fJo2P/AHG/75NHI+we3h/MvvOd/sG4/wCesH5Gj+wbj/nrB+Rrotj/ANxv++TRsf8AuN/3yaOR9g9vD+Zfec7/AGDcf89YPyNH9g3H/PWD8jXRbH/uN/3yaNj/ANxv++TRyPsHt4fzL7znf7BuP+esH5Grui6XLaXomd4iMYwuc1qEEdQR9RTovv1VNWmjzs7lfLazT+yyWiiivSPxIKKKKACiiigAooooA90/Zr8USSpceFruUERL5tpk84/iUew6/jXtlfIXwy1KTSfHmkXaNtBuFic/7LnB/Svr0EEZHSvPxMeWd+5+scIY6WIwPs5vWDt8ugUUUVzn1YUUUUAFFFFABRRRQAUUUUAFFFFABRRRQAUUUUAFFFFABRRRQAUUUUAFFFFABRRRQAUUUUAFFFFABXIfGUkfDbVyCQfLXp/vCuvrj/jN/wAk11f/AK5r/wChCrp/EjhzP/cqv+GX5M+Tx0ooHSivVPwoKKKKACiiigAooooABUDfeNTioG+8a5cTsj7zgX+JW9F+po6WSIGwSOat7m/vH86p6X/qG+tWq9nB/wACJ8jxMv8AhVr+o7c394/nRub+8fzptFdJ4Vh25v7x/Ojc394/nTaKAsO3N/eP50bm/vH86bVzSNMv9WvFtNOtJbmZjjai5x9T2H1obsrsqFOU5KMVdsq7m/vH86Nzf3j+dd9q3wm8UWGkJfqsN1JjMtvEfnQfyP4VwU0UkMrQzRvHIhwyOpDA+4NZ06sKnwu51YvLsTg2lXpuN+4m5v7x/Ojc394/nTaK0OOw7c394/nRub+8fzptFAWHbm/vH86Nzf3j+dNooCxnamSbgZPaoIvv1Pqf/HwPpUEX36+drf7y/U/Y6P8AyTS/69ktFFFdR+VhRRRQAUUUUAFFFFAFzQ+NasSOP9IT+Yr7Qtf+PaL/AHB/Kvi/RP8AkNWX/Xwn8xX2ha/8e0X+4P5Vx4vofonAvw1vl+pJRRRXGffhRRRQAUUUUAFFFFABRRRQAUUUUAFFFFABRRRQAUUUUAFFFFABRRRQAUUUUAFFFFABRRRQAUUUUAFcf8Zv+Sa6v/1zX/0IV2Fcf8Zv+Sa6v/1zX/0IVdP4kcOZ/wC5Vf8ADL8mfJ46UUDpRXqn4UFFFFABRRRQAUUUUAAqBvvGpxUDfeNcuJ2R95wL/Erei/U0NL/1DfWrVVdL/wBQ31q1Xs4P+BE+R4m/5Gtf1Ciiiuk8IKkt4ZridYLeJ5ZXOFRFJY/QCo694/Z50+x/4RmfUmtYmu/tDL5pXLBRjgHtWGJr+whz2uevkuVvNMUsOpcvW/oc34J+EGoX4S88QSmxtzyIEwZGHv2A/WvRb/VPBvw70swQpBC4HywRfNM59z1/E1wPxD+K+pPdXOk6HF9ijjYxvcNzI2ODjsB+teUXE01xM09xLJLK3LO7FmP4muNYetiPerOy7I+lqZxl2Sp0sthzVNnOX6f0l6ns2l/GxJNYddR0rytPYgI8bZkQerdj+Fddqmg+DviHpn2uB4ZJCPluYMLKhP8AeH/xQr5nq9our6lo14t3pl5LbSqc5Q8H6jofxq6mAivepPlZyYTi6rJOlmEFVpvyV16dP63Oq8bfDTXfDu+4hT+0LEc+bCuWUf7S9fx6Vw9fQXwq+I0vie7/ALG1KzVbsRF/NT7jgY6j15+lcF8fbCzsvF8X2O2jg82AM4RcAn1xTw+Iqe09lVWpGb5Ngvqf9oYCfuXtyvo/6/4c86ooorvPkQooooAztT/4+B9Kgi+/U+p/8fA+lQRffr52t/vL9T9jo/8AJNL/AK9ktFFFdR+VhRRRQAUUUUAFFFFAFzRP+Q1Zf9fCfzFfaFr/AMe0X+4P5V8X6J/yGrL/AK+E/mK+0LX/AI9ov9wfyrjxfQ/ROBfhrfL9SSiiiuM+/CiiigAooooAKKKKACiiigAooooAKKKKACiiigAooooAKKKKACiiigAooooAKKKKACiiigAooooAK4/4zf8AJNdX/wCua/8AoQrsK4/4zf8AJNdX/wCua/8AoQq6fxI4cz/3Kr/hl+TPk8dKKB0or1T8KCiiigAooooAKKKKAAVA33jU4qBvvGuXE7I+84F/iVvRfqaGl/6hvrVqqul/6hvrVqvZwf8AAifI8Tf8jWv6hRRRXSeEFfQP7PX/ACI1x/18yfyFfP1fQP7PX/IjXH/XzJ/IVwZl/B+Z9dwT/wAjNf4WeIeJ/wDkY9R/6+H/AJ1m1peJ/wDkY9R/6+H/AJ1m12w+FHzGJ/jT9X+YUUUVRgeh/s//API/f9ur/wAxVv8AaK/5G62/69h/Oqn7P/8AyP3/AG6v/MVb/aK/5G62/wCvYfzrzn/vq9D7SH/JMS/x/wCR5jRRRXonxYUUUUAZ2p/8fA+lQRffqfU/+PgfSoIvv187W/3l+p+x0f8Akml/17JaKKK6j8rCiiigAooooAKKKKALmif8hqy/6+E/mK+0LX/j2i/3B/Kvi/RP+Q1Zf9fCfzFfaFr/AMe0X+4P5Vx4vofonAvw1vl+pJRRRXGffhRRRQAUUUUAFFFFABRRRQAUUUUAFFFFABRRRQAUUUUAFFFFABRRRQAUUUUAFFFFABRRRQAUUUUAFcf8Zv8Akmur/wDXNf8A0IV2Fcf8Zv8Akmur/wDXNf8A0IVdP4kcOZ/7lV/wy/JnyeOlFA6UV6p+FBRRRQAUUUUAFFFFAAKgb7xqcVA33jXLidkfecC/xK3ov1NDS/8AUN9atVV0v/UN9atV7OD/AIET5Hib/ka1/UKKKK6Twgr6A/Z5IbwTcICCwuXyPqBXz/Xp/wCz/wCI4tN12bRrpwsV/gxMx4Eg6D8c/pXHj4OdF26H0vCWKhh8zg5uyldfft+Jwni2N4vE+pxSLtdblww9DmsuvYPjr4JuFvH8T6ZAZIpB/pcaLyjf3/oe5rx+tcPVjVpqSPPzrL6uBxk6VRdW0+66MKKKkgilnmSCCNpJXO1EUZLH0Arc8tJt2R6D+z5G7+PGZRkJaOWPpyKsftEsp8YW4BBIthkeld/8I/Ca+EfD02paoVjvLhPMm3ceSgGdv19a8T+IWu/8JH4svNTX/Us2yH/cXha8ylL22Kc47JWPuMwpPLuH6eGraTnLmt2X9W+85+iiivTPhgooooAztT/4+B9Kgi+/U+p/8fA+lQRffr52t/vL9T9jo/8AJNL/AK9ktFFFdR+VhRRRQAUUUUAFFFFAFzRP+Q1Zf9fCfzFfaFr/AMe0X+4P5V8X6J/yGrL/AK+E/mK+0LX/AI9ov9wfyrjxfQ/ROBfhrfL9SSiiiuM+/CiiigAooooAKKKKACiiigAooooAKKKKACiiigAooooAKKKKACiiigAooooAKKKKACiiigAooooAK4/4zf8AJNdX/wCua/8AoQrsK4/4zf8AJNdX/wCua/8AoQq6fxI4cz/3Kr/hl+TPk8dKKB0or1T8KCiiigAooooAKKKKAAVA33jU4qBvvGuXE7I+84F/iVvRfqaGl/6hvrVqqul/6hvrVqvZwf8AAifI8Tf8jWv6hRRRXSeEFOjdo3V0Yq6nKsDgg02igex7p8Mfifa31tFo3iWVY7rGxLmT7ko9G9D+hqfx18JdP1V31Dw/IllcP8zRHmJz7ehP5V4JXYeDviH4h8OFIY7j7XZg/wConO4Ad9p6g151TCThLnoOz7dD7LB8R4fFUVhc1hzxW0luv67/AHpljTfhb4uu9Ueyls0tUjOHnkb5Meq/3vwr1vwj4J8OeBrI6nezRSXUa5kvJ8AJ6hR2/nXLX/xuiOnD7DozreMOfNkBRfy615f4n8Ua34juPN1S9eRQfliU4RPYD/GodPE4jSp7qOmOMyLJ/wB5hE6tTo3svwX5X9DsPit8SJPEG/SdGaSHTQcSP0af/Ba81oor0KVKNKPLE+RzDMK+YVnWru7f3LyQUUUVocIUUUUAZ2p/8fA+lQRffqfU/wDj4H0qCL79fO1v95fqfsdH/kml/wBeyWiiiuo/KwooooAKKKKACiiigC5on/Iasv8Ar4T+Yr7Qtf8Aj2i/3B/Kvi/RP+Q1Zf8AXwn8xX2ha/8AHtF/uD+VceL6H6JwL8Nb5fqSUUUVxn34UUUUAFFFFABRRRQAUUUUAFFFFABRRRQAUUUUAFFFFABRRRQAUUUUAFFFFABRRRQAUUUUAFFFFABXH/Gb/kmur/8AXNf/AEIV2Fcf8Zv+Sa6v/wBc1/8AQhV0/iRw5n/uVX/DL8mfJ46UUDpRXqn4UFFFFABRRRQAUUUUAAqBvvGpxUDfeNcuJ2R95wL/ABK3ov1NDS/9Q31q1WRFPLEMRuVB9Kf9suf+erV10MfTp01Fp6Czfg/GY3G1MRCcUpO+t/8AI1KKy/tlz/z1aj7Zc/8APVq2/tOl2Z5v+oeP/nj97/yNSisv7Zc/89Wo+2XP/PVqP7TpdmH+oeP/AJ4/e/8AI1KKy/tlz/z1aj7Zc/8APVqP7TpdmH+oeP8A54/e/wDI1KKy/tlz/wA9Wo+2XP8Az1aj+06XZh/qHj/54/e/8jUorL+2XP8Az1aj7Zc/89Wo/tOl2Yf6h4/+eP3v/I1KKy/tlz/z1aj7Zc/89Wo/tOl2Yf6h4/8Anj97/wAjUorL+2XP/PVqPtlz/wA9Wo/tOl2Yf6h4/wDnj97/AMh+p/8AHwPpUEX36JZHkbc7ZPrRF9+vLlNVK/MurPtK+Eng8ilQm7uMLaEtFFFdp+RBRRRQAUUUUAFFFFAFzRP+Q1Zf9fCfzFfaFr/x7Rf7g/lXxfon/Iasv+vhP5ivtC1/49ov9wfyrjxfQ/ROBfhrfL9SSiiiuM+/CiiigAooooAKKKKACiiigAooooAKKKKACiiigAooooAKKKKACiiigAooooAKKKKACiiigAooooAK4/4zf8k11f8A65r/AOhCuwrj/jN/yTXV/wDrmv8A6EKun8SOHM/9yq/4Zfkz5PHSigdKK9U/CgooooAKKKKACiiigAqMxknOakoqJwjPc9HL81xOXOTw8rX30T29SPyj60eUfWpKKj2EOx6f+tuafzr/AMBX+RH5R9aPKPrUlFHsIdg/1tzT+df+Ar/Ij8s+tY82spDM8T27hlODzW5VLUdMtr35nGyTs4/rUVMOre6eplXGFaNVrHO8X1SWn3bmb/bsX/PBvzo/t2L/AJ4N+dV7jQbyM5iKSr9cH8qpvp18nW1lx6gcVyuE1uj7mhm2Brq9OrF/NL8Gan9uxf8APBvzo/t2L/ng351kfY7v/n2l/wC+amj0vUHOPsrr/vDFJRk+htPHYaCvKpFfNf5mj/bsX/PBvzqzp2oi9n8pIWXAyWJ4FU7Xw/MxBuZVQeinJNbdnaQWkXlwJj1J6mtqdCTd5bHzWb8V4ahTcMLLmn3Wy/zH+UfWjyj61JRXR7CHY+R/1tzT+df+Ar/Ij8o+tHlH1qSij2EOwf625p/Ov/AV/kR+UfWlRCpzmn0U1RgndGWI4mzHEUpUqk1yyVnov8gooorU8AKKKKACiiigAooooAuaJ/yGrL/r4T+Yr7Qtf+PaL/cH8q+L9E/5DVl/18J/MV9oWv8Ax7Rf7g/lXHi+h+icC/DW+X6klFFFcZ9+FFFFABRRRQAUUUUAFFFFABRRRQAUUUUAFFFFABRRRQAUUUUAFFFFABRRRQAUUUUAFFFFABRRRQAVx/xm/wCSa6v/ANc1/wDQhXYVx/xm/wCSa6v/ANc1/wDQhV0/iRw5n/uVX/DL8mfJ46UUDpRXqn4UFFFFABRRRQAUUUUAA61hy+IQkjJ9jztOM763R1rhbn/j5l/3zXPXnKCVj63hTLMLj51ViI81kratd+zRt/8ACRj/AJ8v/IlH/CRj/ny/8iVgUVze3qdz7T/VbKv+fX/k0v8AM3/+EjH/AD5f+RKP+EjH/Pl/5ErAoo9vU7h/qtlX/Pr/AMml/mb/APwkY/58v/IlH/CRj/ny/wDIlYFFHt6ncP8AVbKv+fX/AJNL/M3/APhIx/z5f+RKP+EjH/Pl/wCRKwKKPb1O4f6rZV/z6/8AJpf5m/8A8JGP+fL/AMfo/wCEj/6cz/38rAoo9vU7h/qtlX/Pr/yaX+Zv/wDCRj/ny/8AIlH/AAkY/wCfL/yJWBRR7ep3D/VbKv8An1/5NL/M6AeIwSB9j6n+/W4jbkVsY3DNcIv3l+oruYP9RH/uiuihUlO9z5DivKcJgI0nh4ct731b7d2xZHSNC8jBVHUmsi48QW6MRDC0oHcnbVfxVcuZktVJCKNzD1NYdTVrtO0TvyDhbD18PHEYrXm1SvZW87anSW/iC3dgJoWiB7g7q143SRA8bBlPQiuErb8K3LiZ7ViSjDcvsaKVduVpBn/C2HoYeWIwt1y6tXureV9ToqKKK6z8+CiiigAooooAKKKKALmif8hqy/6+E/mK+0LX/j2i/wBwfyr4v0T/AJDVl/18J/MV9oWv/HtF/uD+VceL6H6JwL8Nb5fqSUUUVxn34UUUUAFFFFABRRRQAUUUUAFFFFABRRRQAUUUUAFFFFABRRRQAUUUUAFFFFABRRRQAUUUUAFFFFABXH/Gb/kmur/9c1/9CFdhWL46sRqXg/VbPBJe2cqB3IGR+oqoO0kzkx9N1MLUgt3F/kfHI6UUYZflYEMOCD2NFesfg4UUUUAFFFFABRRRQAo61wtz/wAfMv8Avmu6HWuFuf8Aj5l/3zXLitkfecC/xK3ov1I6KKK4z9FCiiigAooooAKKKKACiiigAooooAVfvL9RXcwf6iP/AHRXDL95fqK7mD/UR/7orqwvU+B46+Gj8/0OZ8T/APIUP+4Ky62vFUJF0k4HysuCfesWsKvxs+qyP/kXUP8ACgrU8M/8hMf7tZdbXhWFjdPMR8qrgH3opfGgzz/kXVv8LOjooor0z8SCiiigAooooAKKKKALmif8hqy/6+E/mK+0LX/j2i/3B/KvkH4fafJqfjbSLSNN4N0jOP8AYBBb9K+wVAVQoGABgVxYp6pH6PwNTapVZ9G0haKKK5D7wKKKKACiiigAooooAKKKKACiiigAooooAKKKKACiiigAooooAKKKKACiiigAooooAKKKKACiiigAoIBBBAIPUGiigD5P+LvhqTw140uoRGRaXTGe2Y91JyR+ByK4+vrX4m+Drbxj4fa0YiO8hy9rL/dbHQ+x6V8ra1pd/o2pTadqVu9vcwttZWHX3HqK9GhUU426n5BxJk88BiXOK/dy1Xl5f5eRTooorc+bCiiigAooooAUda5+XQ1eV3+1MNxJ+5W/SbV9KxrU3UtY+k4dzqllU6kqkW+a23lc5/8AsFf+ftv++KP7BX/n7b/viug2r/do2r/drD6tLufU/wCu+E/59y/D/M5/+wV/5+2/74o/sFf+ftv++K6Dav8Ado2r/do+rS7h/rvhP+fcvw/zOf8A7BX/AJ+2/wC+KP7BX/n7b/viug2r/do2r/do+rS7h/rvhP8An3L8P8zn/wCwV/5+2/74o/sFf+ftv++K6Dav92jav92j6tLuH+u+E/59y/D/ADOf/sFf+ftv++KP7BX/AJ+2/wC+K6Dav92jav8Ado+rS7h/rvhP+fcvw/zOf/sFf+ftv++KP7BX/n7b/viug2r/AHaNq/3aPq0u4f674T/n3L8P8znxoKgg/am6/wByugjXbGq5zgYo2r/dpa2o0nTvc+a4iz2jmkaapxa5b7262Iby3juISki7lPUVgXGhyhj5EqsPR+MV0tBAPUClUoczujoyTiqWAoqhWjzRWzW68vM5q30OUt+/lVR6Jzmt+zt47aIRxrtUdBUwAHQCiinQ5HdhnfFUsdRdCjHli92935BRRRXQfHhRRRQAUUUUAFFFdN8PPB2o+MNZS1tkaO0Qg3NwR8qL7HufQUm0ldm2HoVMRUVKkryZ6D+zV4akl1C48T3MWIolMNqx7sfvH6YxXvNUtD0yz0bSbbTLCIR21ugRFH8/xq7XmVJ88rn7Vk+XRy7CRoLfd+r3Ciiisz0wooooAKKKKACiiigAooooAKKKKACiiigAooooAKKKKACiiigAooooAKKKKACiiigAooooAKKKKACiiigArnPHHgzRfF9mIdTgxMgIiuI+JI/x7j2ro6KabTujKvQp14OnVjeL6M+W/Hnwv8QeGWe4hjOo6eCcTwr8yj/aXt+Ga4OvuAgEYPIrzrx58JtB8Q+Zd2AGl3553xL+7c/7S9OfWuuniekj4HNeDHrUwT/7df6P/P7z5korofGHg3X/AAtcmPVLJhESQlxGN0b/AEPb8a56utNNXR8JWoVKE3CpFprowooopmQUUUUAFFFFABRRRQAUUUUAFFFFABRRRQAUUUUAFFFFABRRRQAUUUUAFFFFABRRR3x3oAKfbwy3EywwRPLI5wqIuSTXc+A/hf4g8TMlxNG2naeeTPMvzMP9le/44r3zwT4E8P8AhOIHT7USXWMPcy/NIfXB7D2FYVK8YadT6TKuGMXj7TkuSHd7/JHkXgL4MajqPl3viV2sLbqLZf8AWv7H+7Xu+haRp2iadHp+l2sdtbxjhVHU+p9T71eorinVlPc/SssybC5bG1GOvVvdhRRRWZ6oUUUUAFFFFABRRRQAUUUUAFFFFABRRRQAUUUUAFFFFABRRRQAUUUUAFFFFABRRRQAUUUUAFFFFABRRRQAUUUUAFFFFABRRRQBFeWtteWz213BHPDIMPHIoZWHuDXj/jz4KWtz5l74WmFtMTk2sp/dn/dPb6dK9loq4VJQehwY/LMNj4cteN/PqvRnxbrekanot61nqtlNaTKcFZF4P0PQ1Rr7N8RaDpPiCway1ayiuYiOCw+ZPdT1B+leHePfgxqOneZe+GpGv7bOTbNxKg9j/EP1rtp4iMtHofnOa8JYnC3nh/fj+K+XX5fceR0U+eGW3maGeJ4pFOGR1KkfgaZXQfItNOzCiiigAooooAKKKKACiiigAooooAKKKKACiiigAooooAKKKKACir2iaRqetXq2elWU13MxxtjXgfU9BXtvgP4KWlt5d74omF1NwRaxEiNT/tHqfp0rOdWMNz1MtybF5jK1GOnd7Hkvg/wbr/iq5Eel2TeSDh7iQbY0+p7/AIZr3rwJ8JtA8PbLq/UapfjB3yr+7Q/7K/Xua9As7a3s7ZLa0gjghQYSONQqgewFS1xVK8p6LQ/Scq4WwmBtOp78+72Xov8AMAABgcCiiisD6YKKKKACiiigAooooAKKKKACiiigAooooAKKKKACiiigAooooAKKKKACiiigAooooAKKKKACiiigAooooAKKKKACiiigAooooAKKKKACiiigAooooAKKKKAOX8beBPD/AIshP2+1Ed1j5LmIbZAfc9x7GvA/Hnwu8QeGGe4hjOo6eDxNCuWUdty+v0r6koIBGCMg1rTrSh6Hg5rw9hMxTlJcs+6/XufD/tRX0549+E2g+IvMu7EDTNQPO+Jf3bn3Xp+I5rwTxj4N1/wrdGPU7NvJydlxGN0bj1z2/HFd1OtGZ+bZpw/i8ud5q8e62+fY56iiitTwwooooAKKKKACiiigAooooAKKKKACiiu88B/C7xB4mZLieNtN08nmaZcMw/2V6/nxUykoq7OnC4Ovi6ns6MXJnDQQy3EywwRPLKxwqIpYn8BXrPgL4L6jqIS88SyNYW+ci2XmVx7noB+teueCfAnh/wAJwD7BaiS6x89zKN0hPt/d+grqK46mJb0ifoOVcG06VqmMfM/5Vt8+/wDW5m+HtB0nw/ZCz0myitowBkqPmb3Y9SfrWlRRXM3fc+2p0404qMFZLogooopFhRRRQAUUUUAFFFFABRRRQAUUUUAFFFFABRRRQAUUUUAFFFFABRRRQAUUUUAFFFFABRRRQAUUUUAFFFFABRRRQAUUUUAFFFFABRRRQAUUUUAFFFFABRRRQAUUUUAFFFFABUV5bW95bvbXcEU8LjDRyKGUj3BqWigTSaszxvx58FbW68y+8LzC1mPzG1kOY29dp6g+3SvEdb0jU9EvWstVspbWdTjDjg/Q9D+FfaVZniLQdJ8QWLWWrWUVzEwwCw+Zfo3UfhXTTxEo6S1PkM14Rw+JvPDe5Lt0f+Xy+4+MqK9c8e/BjUdP82+8Nym+th8xtn4lQex6EfrXk1xDNbzNBcRSQyrwyOpVh9Qa7ITjNXR+dY7LcTgJ8leNvPo/RjKKKKs4QooooAKKKvaJo+p63erZ6VZS3UzHGEXgfU9B+NDdioQlOSjFXbKNdD4O8G6/4quRHpdm3k7gHuJBtjQeue/4Zr1vwH8FLS18u98UTC6mHItYziNf949Sf0r1+0trezt0t7WCOCFBhUjUKo/AVy1MSlpE+1yrg6rVtUxb5V2W/wA+35nAeAvhPoPh3ZdX6rql+MHfKv7tD/sr0/E816IAAMAYAoorjlJyd2foWEwVDB0/Z0IqK/rcKKKKk6gooooAKKKKACiiigAooooAKKKKACiiigAooooAKKKKACiiigAooooAKKKKACiiigAooooAKKKKACiiigAooooAKKKKACiiigAooooAKKKKACiiigAooooAKKKKACiiigAooooAKKKKACiiigAooooAK5fxt4F8P+LIGF/aiO5x8lzEAsin39fxrqKKabTujGvh6WIg6dWKafRnzD4z+EviXQpJJrKL+1LIciSH76jtlepP0rgbmCe1fZcwSwOP4ZUKn8jX25VS80vTLxi13p1pcMe8sKsf1FdMcU1uj43GcE0KkubDzcfJ6r/M+Kdy/wB4fnV3TdL1LUpUi0+wublnOB5cZYfmOBX13H4V8No4ddD0/I6Zt1P9K07SztLRdlrawW6+kUYUfpVPF9kcdLgWXN+8raeSPA/A/wAFNSvWS68TS/YYAc/Z4yGkb6noB+te4eHtB0nQLJbPSbKK2iAwdo+Zvqep/GtKiuedWU9z6/LclwmXL9zHXu9/69AooorM9UKKKKACiiigAooooAKKKKACiiigAooooAKKKKACiiigAooooAKKKKACiiigAooooAKKKKACiiigAooooAKKKKACiiigAooooAKKKKACiiigAooooAKKKKACiiigAooooAKKKKACiiigAooooAKKKKACiiigAooooAKKKKACiiigAooooAKKKKACiiigAooooAKKKKACiiigAooooAKKKKACiiigAooooAKKKKACiiigAooooAKKKKACiiigAooooAKKKKACiiigAooooAKKKKACiiigAooooAKKKKACiiigAooooAKKKKACiiigAooooAKKKKACiiigAooooAKKKKACiiigAooooAKKKKACiiigAooooAKKKKACiiigAooooAKKKKACiiigAooooAKKKKACiiigAooooAKKKKACiiigAooooAKKKKACiiigAooooAKKKKACiiigAooooAKKKKACiiigAooooAKKKKACiiigAooooAKKKKACiiigAooooAKKKKACiiigAooooAKKKKACiiigAooooAKKKKACiiigAooooAKKKKACiiigAooooAKKKKACiiigAooooAKKKKACiiigAooooAKKKKACiiigAooooAKKKKACiiigAooooAKKKKACiiigAooooAKKKKAGzSLDC8r8Kilm+grw29/au+DdneTWk+ramJYZGjcDTZOGBwe1e2ap/wAgy6/64v8A+gmvyE8Yf8jZq3/X7N/6GaAP1g+HHjTQfiB4Ut/E/huaabTbh3SN5YjGxKMVb5Tz1Bro68M/YT/5Nu0T/r6u/wD0e9e50AFeReOv2jvhV4M8TXXh3WdZuTf2pAmFtaPMikjO3cvGR3HauO/a/wDj5B4B0qXwl4Yuo5fE95GVmdTn7DGw+8f9sjoO3WvgnQ9K1nxV4ig0vTLe41LVL+baiLlnkcnkk/qSfrQB+kXg79pH4ZeL/EVroHh641m+v7ptqRx6XKcepY44A7k17FXj37MnwS0v4TeGhNcLHdeJb2Ifb7ochO/lJ/sg9+55r2GgAooooAKKKKACiiigAooooAKKKKACiiigAooooAKKKKACiiigAooooAKKKKACiiigAooooAKKKKACiiigAooooAK+a/jZ+1Inw3+Il/4SbwnJf/ZAh88XQTduUN0wfWvpSvzU/bd/5OH13/ch/wDRa0AfZX7NvxrX4w2+qyroTaX/AGe6rzMJN+R9BivYa+PP+CbH/IN8V/8AXaL+VfYdABRRRQAUUUUAFFFFABRRRQAUUUUAFFFFABRRRQAUUUUAFFFFABRRRQAUUUUAFFFFABRRRQBX1T/kGXX/AFxf/wBBNfkJ4w/5GzVv+v2b/wBDNfr3qn/IMuv+uL/+gmvyE8Yf8jZq3/X7N/6GaAP0Q/YT/wCTbtE/6+rv/wBHvVj9qb432Hwq8NmwsGW48T6hERZw9RAvTzX+nYdz7V5V8HPi5o/wk/Y90XULopcaxeT3q6ZY7uZnE7gsfRF7n8O9fIPizxBrvjXxVda3rNxLfapfzZOATkk8Io7AdAKAILibWvFPiNppnudU1fUbjlj88k0rH+ZJr9CP2TfgPafDXQ49e1+2im8WXkf7xj8ws0P/ACzT36ZPrWD+x9+z5H4KsYvGfjKyjfxJOoezgfn7ChHU/wDTQg8+mcdea+m6ACiigkAEkgAckmgAplxNFbxGWeVIo16s5wBXxj+0t+1XqMOrXfhT4azC2S2dobnViMuzDgiIHpg/xHOa+U9f8W+KNfvXvNZ1/Ub2dzlnluGOT9M4oA/Xa1vLS6LC2uYZivXY4OPyqevx1ttX1a2mWa31O8ikU5DJOwI/WvevgT+1J4x8Iazb2PjC9n1/w87Kkvncz2y9NyN3A67T19RQB+iFFVtJv7TVdMttSsJlntbqJZYZFPDKwyDWH8TPGmi/D/wZfeKdelZLS0XhV+9I54VB7k8UAdLVWfUdPgkMc97bxuOqtIARX5o/Fv8AaH+Inj3UblRq8+kaO7ERWFmxRQueNzDlm968qbUNRdizX10xPUmVjn9aAP2NBBGQcg0V+Svgr4l+O/Bt6Lrw94m1C0bILJ5pZHHoVORivv8A/ZY+ONt8WvD0tpqUcdp4l09R9rhThJkPSVPQE5BXtj3oA9roor8uvir8QvHNn8SfENtbeK9Wihjv5VRFuCAoB4AFAH6i02WRIo2kldURRlmY4AFfDXgn9pSXwR+zvbWkWonW/GlzezhBcsX+zR/Lh39fYd+a+dvGPxA8aeL9Re/8Q+I9QvZmPRpiFUegUcACgD9bLa4guYvNt5o5kzjcjAjP4VJX4+6P4l8Q6Pex3ul61f2lxEdyPHOwIP519Y/szftVahNq1r4U+Jlyk8dwwjttXI2sjk8CbsQf7wxj3oA+0aKRSGUMpBBGQR3qHULy10+xmvr64jt7aBDJLLI2FRRySTQBPUVzc29qge5njhUnALsAM/jXwr+0B+1lr+salPovw3uX0nSonKnUVH+kXBB6rn7in86+a9V8Ra/q15JealrF/dTyHLPJOxJP50Afr/bzw3MQlt5UljJwGRgRUlfkBoninxLod7HeaTrmo2U8Z3K8U7DB/PFfVP7OH7V+ojU7bw18TZ1ubeZhHBqwXDox4HmgcEE/xDGKAPtaimxukkayRurowyrKcgj1Br5n/wCCgev63oHgXw/Pomq3enyyaiVdreQqWHlscHFAH01RX5m/AT4ua3pPxd0DUvF/i7UzodvJI92JJi6lfKfAK98ttqt8cvjz4y+IviG6aHVbvTtCWQi0sYJCgCcgM2OSxHWgD9O6K/Jv4T6lqUnxN8NRvqN4ynU7cEee2D+8HvX6s6zqNlpGlXWqajOsFpaRNNNIx4VVGSaALdV7q+s7VgtzdQwswyA7gEj8a/Pb47ftReMfGGsXFl4Qvp9A8PoWSMQ/LPcL03O3bPXAxivBbjVdVuZWmn1G8lkY5LPMxJ/WgD9iYZI5o1kidZEbkMpyDTq/Ibw54z8WeHL5b3Q/EOpWFwnKvFO38jxX21+yL+0Vc+PL1fBfjJohrojLWd2o2i7CjJUjs4AJz3oA+n6/NT9t3/k4fXf9yH/0WtfpXX5qftu/8nD67/uQ/wDotaAPaP8Agmx/yDfFf/XaL+VfYdfHn/BNj/kG+K/+u0X8q+q/GfiXRfCHhu88Q+IL1LPT7SMvJIx5PoqjuxPAHc0AbFFfmJ8YPj3438beNrrV9P1i90jTl/dWVpbylQkQJwWx1Y9Sa98/Y28DePfEssHj/wAbeINYbRozu02zlnbF0w/5aMP7g7epzQB9f0V5F+1poHiDWPhHfX/ha/u7PVtJzeRm3lKGSNR+8XjqSo4HrX57W3xR+IlpdxXEfi/VxLC4Zd05OCPUUAfrNRXIfBvxlaePvhvo/ie1dS11ABOmcmOUcMp9Dnn8a6+gAorwD9t74l3Hgb4ZLpWj3zWuta3IYYnT7yQj/WMD2PIANfE3hTxf8TvEviXTvD+l+KtYlvb+4S3hX7UwyzHAoA/ViisnwbpD6B4V0zRpLuW8eztkieeU5eRgOWJ9Sa1qACiiigAooooAKKKKACiiigAooooAKKKKACiiigAooooAr6p/yDLr/ri//oJr8hPGH/I2at/1+zf+hmv171T/AJBl1/1xf/0E1+QnjD/kbNW/6/Zv/QzQBt654P8AE9p8M/D3jG433Hh++kuILZlYsts6SEMrD+EsQWHripvgb4q0nwV8UdE8Sa5piajYWk+ZYmGSoII3gdyuc49q+1f2SfDGjeMf2SLHw7r9ml3YXk14jow5U+e+GU9iDyD7V8bfHn4W618KvG0+i6gjyWMpMmn3ePlnizxz/eHQj1oA/UjQdW0/XdGtNX0q6S6sruJZYZUOQykZH/6qvV+ev7Hnx4l8AaxH4S8TXLv4YvpMRSMc/YZWP3h/sHuO2c1+g8Msc8KTQyLJFIoZHU5DA8gg9xQA+uE+P7+Jh8Itfi8H2Nxfa1Pb+RbwwDLkOQrEfRSx/Cu7rP8AEWtaZ4e0S61rWbyKzsLSMyTTSNhVA/r7UAfmP/wz/wDGNm/5EPVySepjr7Y+CP7OvgPwf4TsG1nQbbVdfkiWS7ubtN5RyOUQdAB098V4j8T/ANs/Wpr+S2+H+jWtraRuVF3fqZHmXswQY2/iTXmUv7UfxkllaQa/CmT91LcAD6UAfcXjb4G/DLxXo81heeFrC2keMrFdW0YSWEn+JSP61+ZHjbQ5fDXi7VdAmbc9hdSQbv7wU8H8Rg16mP2oPjKDn/hIk/8AAcV5H4i1e/1/XLvWdUl869vJTLM+MbmPU0Afoj+wtrtzrHwFsba4Yt/ZlxJaRk9dudwHv96vP/8AgpNfXcfhfwpYI0iW015M8mDhXKquAfXGc/jXU/8ABPb/AJIndf8AYUk/9ASuy/ar+FMvxW+HX2DTmRNa0+Q3GnmRsIzYwyH/AHhxntQB8Kfst+HPDPiv416Jo3i3y20yQu5ikbas0iqSkZ9mOBjvX6bWOg6JY2cdnZ6RYwW8ahUjSBQAB26V+SfiXw34k8I6y+n65pd9pV9C33JUKMMdwf6iuq0f43fFnSII7ex8d6zHDGMLG025QOnQigD7A/aQ/Zi03x1eWuseCYdP0PVDI32/5SsdwD0baOAwPesf9m79nLxr8L/ifbeJr3WdPuLIW8sM8MRYFgwwPyPNeDaF+1Z8YtLYF9Ys9QAABF5bb8/kRzX1J+zb+0npPxOv18N6zYjSfEOwtEqtuhuQByVJ+63+zz9aAPoE1+Sfxh/5Kl4l/wCwjL/6FX62GvyT+MP/ACVLxL/2EZf/AEKgDuf2WfgvL8WvFsv9oSS23h7Ttr30sfDyE9I0PYnByecelfefhr4L/DDw/YJZ6f4N0zCqFaSWLfJJx1Zj1Necf8E/rGC2+AwukRPOudTnaRwOSAEAGfb+tfQ9AHzt8cv2W/BPifw/dXng7TYNA16KNngEB2wTt12uvYn1HSvz4v7S703UJrK8hkt7q2kMckbDDIwOCK/ZCvzB/a8sINP/AGg/FC26hVnufPYD+8wyaAPtX9jPxxc+NfgrYNqM/najpbmymZmJZ1XGx2PqR/KvPv8AgoV8QbrRfCWneB9OnaKTWS0t4UPPkoR8h9mJ/wDHayf+CadzM+jeNLRiDFFPaOgx0LLLn/0EV5f/AMFBLqaX49G1dsxQaXb7B6btxNAHnP7P/wANrv4pfEez8ORSGGzUGe+nHWOFSN2PUnIAHvX6TeAvhp4H8D6Umn+HfD9lboqgPK8YeWUgfeZj1Nfll4T8UeJfC91LdeGtXvdMnlTZJJauVZl9CR2ro/8Ahb/xX/6HfX//AAIagD9IPiR8J/Afj7SprLXtAtGleMpFdRRhJoT2ZWHcV+Zvxd8E3vw8+IOq+FL5xK1nL+6lH/LWI8o/tkYOK0v+Fv8AxX/6HfX/APwIauW8S61rviXVX1XXr671G+dVRp5yWcqowBn2FAH6DfsMeOLrxd8HV0/Ubl7i+0Ob7I0jnJ8rGYh+CjH4Vx//AAUi/wCSfeHP+wmf/RbVj/8ABNd5VsfGEJLBPOt2Knpna3NbH/BSL/kn3hz/ALCZ/wDRbUAfDmm2dxqOo21haRmS4uZViiQfxMxwB+Zr79+En7JXgXQ9Dtp/GcD65rEkYa4RpMQRMRyqgdcHjOea+S/2T7O3v/2h/B1tdRiSI3jsVPcrE7D9QK/UegDy/TP2f/hHpuo2+oWXg2yiubaVZYnDNlWU5B6+ormv25tRvLH4A6nDalwt3NFDMy9k3g/kSAK91rkvi/4KtPiD8OtX8J3b+WL2HEUg6xyKQyN/30Bn2zQB+VfgqysNR8YaPp+qTeTY3N9DFcPnGI2cBue3BPPav1h8J+D/AAp4c0S30zQNF0+2so0HliOJTuGOpPfPrX5a/En4ceMPh7rL6b4m0a4tSGIinCEwzAH7yP0Iqz4b+LXxL8N2SWOi+NNZsrZMbYknJUY9jmgD71/aO+AXh/4leHpJtIsbHTPE0bK0F6qbA65+ZJMdRjOPevE/h7+yd8QvCnjjRfEUPiLTF+wXsU0gTcGaMMN6j6rkfjXlOjftRfGPTZFY+I473Bzi7gDg+xxivoD4A/tbW/ibWrTw34+sYNOvbphHb6hbZELyk4CMh5TPY5PPFAH1dX5qftu/8nD67/uQ/wDota/SuvzU/bd/5OH13/ch/wDRa0Aew/8ABOi8tdP8PeMr++uI7e1t2SWaWQ4VEVckk+gFeSftYfHC6+KHiVtK0eaWLwtYSEW0fT7S4/5asP5D05rzHTPE/iXTPAWo6BYSSW+i6ncqbx0UjzWQAqhb0HBxTPhppeia3470fSvEWpDTdKubpI7m4PREJ557Z6Z7UAev/sj/AAIn+JGur4h8RW0kfhWxkBYMCPtsg/5Zj/Z/vH04r9ErS3gtLWK1tokhghQJHGgwqqBgAD0xVDwpouj+HvDtjo+gWsNrpltEEt44cbdvrx1z1z3zWpQA2WOOaJopUV43BVlYZBB7Gvy1/aZ8AyfDv4u6to6QNHp1w/2rTyTndC5P8iGH4V+plfN/7e3w+/4Sb4YJ4qsYGfUNAYyvsUZe3bG/J9Fxn86APMv+Cd/xCa01vUfh3fTN5F4DeWCn7qyKP3g/EBcfSvt1iFBYkADkk1+QPgbxHfeEfF2l+JNNYi6065SdBnAbac7T7HpX3/8AtGfGCysP2a4vEmhXP+k+J7YQWByVdd64kce6/wA6APj/APat+ILfEL4wane284k0uxP2Ox2k7WjQnL49SSf0r1X/AIJ7fDttT8V33j/UIFNppi/Z7LeuQ87feYehUY5/2q+WbG1utR1CGztY3nubiQJGijJZieK/Vn4F+B4Ph58L9H8MRCMzwwiS7kjGBLM3Lt/T8KAO3ooooAKKKKACiiigAooooAKKKKACiiigAooooAKKKKACiiigCvqn/IMuv+uL/wDoJr8hPGH/ACNmrf8AX7N/6Ga/XvVP+QZdf9cX/wDQTX5CeMP+Rs1b/r9m/wDQzQB+iH7Cf/Jt2if9fV3/AOj3rufjd8M9D+KPgq40HVoVW4UF7G6A+e3mxwwPp2I9Ca4b9hP/AJNu0T/r6u//AEe9e50AfkN8QPCOueBvFV54b8Q2bW19auQQR8si9nU91I5Br6p/Yn+Ppje2+G3jS/8AkbEej3szdD2hdj2/un6CvaP2qPgtZfFPwk11YQxxeJ9PjLWM/TzR1MTH0Pb0Nfm1qFnqGjatNZXsE9lf2kpSSNgVeJ1P6EEUAfsbXyh/wUa8SXll4L0Lw3azSxRX900t0F+7IiD5VP8AwLn8K2f2NfjynjfSYvBfiq7RfElnHi2mdsfbogP/AENR19cZqf8Ab38Baj4r+Gdprmj2jXNzoc5mnRAS7QFcNgd8HDfQGgD4z/Z+8FWfxC+LeieFNQnaC0u5HadlOGKIjOVB7EhcfjX6Nad8E/hRYWiW1v4E0TYgAy9uGZsDGST1Nfl34W17VfDHiCy17Rbp7W/s5RLDIvYjsfUHoR6V9O6R+2x4pg0+OLUvCenXl0Bh5o5miVj67cHH50AfVsvwk+FcMbSy+CPD8aINzM1soAA7kmvzM+Lp0j/hZviEaCLcaYL5xbC3/wBWEBx8vtXoHxR/aK+JnxLhOgrOunafcvsFlp6FXmDcBHbq304rxu9tbiyupLW7heCeJtskbjDKfQigD9A/+Ce3/JE7r/sKSf8AoCV6F8Ufjn4B+G3iGLQvFN1fW95Lbi4QRWpdShJAOc+oP5V57/wT2/5Indf9hST/ANASqn7d3wnv/GPhmz8YeHrJrrVNHUpcxRjLyWxOflH+ySSfYmgD0HwN8U/hR8ZL+68P6cqalNDEJnhvrQLuXOPlz1x3rVv/AIHfCS+JNz4A0NmIxuW32kfiK/MXwf4l17wZ4kt9d8P302nalasQsicHHRlYdwehFfSOh/tq+MLaxWLVvDGmX9yBgzRyNCCfXbg/zoA6D9sH9n/wL4U+Hc/jXwpbvpVzazxxy2wkzDKjtt4B6MM596+XvhDqVzo/xQ8NanaMwmt9ShdcHGfnHH4113xu+Pfjb4q2yaZq0kFlo8UvmpZWykKzdi5/iI7ema2/2NfhnqHjb4q6frE1tKuiaJMt3cT7fkZ1OUj565I5x2oA/SKBzJAkhGCyg/mK/Jb4w/8AJUvEv/YRl/8AQq/WzoMCvyT+MP8AyVLxL/2EZf8A0KgD6t/4J3/EDT/7D1H4d3lxHDeR3DXtkjnBmVgA4H02g496+v6/IK1tPEnh6DS/Flol5YRSTMbHUIsqPMTGQrD+IZH517N4c/a5+LOlafHZ3M+mamI1ws1zbEyn3ZgRn8qAP0K13VdP0PRrvV9Vu4rSxtIjLPNK2FRR1JNflD8YvFSeNvibr/iiJXSDULx5YUfqsecKPyra+Kvxt+IfxJiFr4j1nFiMH7FaL5UBI6Erk5P1rM+D3w48QfEzxhbaBolu+xmDXV0V/d28eeWY/wAh3oA+x/8Agnd4ck034Wanr8qFDq19tUEYJWIEA/T5jXl//BRnw1NaePtF8UpEzQ6hZm3dwOFaIjAJ9SGP5V9p+BfDWm+D/COmeGtJjKWen26wx56tgcsT3J61zHx++G1j8Ufh1e+HZysV6v76wuD/AMsp1B2k+xyQR70AfFX7DPirQ9G+KT6D4hhtWtNah8mF50DKs4PyDnpkFhn6V+gP/CN+Hv8AoCad/wCA6/4V+THjDw14g8E+J59F12yn0/UrOTocjkHh0buO4Ir2LwJ+1j8UfDlhBp99PZ65bQjAe8jJnI9C4PP4igD9A5PD3hyONpJNG01UUEszW6AADueK8G1n9pD4A6Xq93psmm3Fw9rM0LSwaUjRuVOCVORkccGvmb4nftO/EvxvpU+jm6ttI06cFZI7JCsjqeqs+c4+mK4H4SfDvxF8SvF1voGgWjSbmDXNweI7ePPzOx7e3qSKAP0v+DPi/wAJeOvDD+IvB2mz2enyTNFultBAZGXg4AJyB614V/wUi/5J94c/7CZ/9FtX0d8PfCmm+CfBumeGNJTFrYQLGGIwZGx8zn3J5NfOP/BSL/kn3hz/ALCZ/wDRbUAfNv7IH/JyPg3/AK+pf/RElfp/X5gfsgf8nI+Df+vqX/0RJX6f0AFcN8WPir4S+GMFlP4rmu4Ir1ykLQwGQFgMkHHSu5ryP9q74ZS/E74Wz2GnoH1jT3+16epON7gYZPxUkD3xQBV8K/H/AOEXxB8Q2vhOzuZbm6v9yRx3dntjchScEnjtXUX/AMF/hTftuu/AOhStycm2APP0r8tCNW8O64CVutN1OxmyMgpJDIp/MEEV9G+DP2yvHmlaelrr2k6frbxqFWbJhcgDq2Mgn34oA9q+OX7Mvw1m8Aaxqvh/TRoWo6fZy3UTwOfLbYpYqynrkAj2Jr8/IZJIZkmidkkRgyspwQRyCK90+MH7UHjvx/oc+gRRWui6XcjE8dtkyyD+6X/u+oxzXnvwX+H2r/Enx7YeHtLtZJIWlV72YcLBAD87E9jjIHqaAP1D+G17LqPw+8P30+fNm02B3JOSW8tcn8a/PT9t3/k4fXf9yH/0WtfpFpNlDpulWmnW+fJtYEgjz12qoUfoK/N39t3/AJOH13/ch/8ARa0AeifsSeDNF+IHw58deFtdgWS1u3j2vty8LgfK6+4OD+FfPnxb8Aa78NvGl34b123ZWjYtbzgHZcRE/K6nuPX0ORX1P/wTY/5Bviv/AK7Rfyr279pT4Qad8WPBT2YEcGuWYMmm3RGMP/zzY/3W6e3WgDxf9in4+nUY7b4ceMr7N5GuzSbyU/61R/yxdj/EP4T36V9e1+Per6frPhTxLPp19FPp2radPtdclXikU8EH8iDX6C/sh/HOD4k+H18O69OkfirTogHzgfbIhwJF9WH8Q/HvQB7/AFBqFna6hYz2N7AlxbXEZjlicZV1IwQanooA/Jz43+Crn4f/ABO1nwzOGMUE5e2kIwJIm5Vh/L8KxdX8Va9q3hrSvDuoahJPpmkmQ2UDdIt+N2PyFfZX/BRPwPZ3PhTTPHsAhivbKZbO5Yn5po3PyAeu07j+NfDaqzMFUEsTgAdSaAPor9g74ff8JT8Uz4mvYN+neH1WYFujXBz5ePXGCT+FfobXln7LPgAfD34P6XplxD5epXa/bL7OCRK4Hy59AAP1r1OgAooooAKKKKACiiigAooooAKKKKACiiigAooooAKKKKACiiigBk8azQSQtna6lTj0IxXzvqH7H/wzvb+4vJbzW/MnlaRsXIxljk9q+i6KAOV+FXgbSPhz4LtfCmhyXEllbSSOjTvufLuWOT9TXVUUUAFeO/Fn9nP4e/EbxKPEWqw3dnftGEnezkCCbHRmGDlgOM+lexUUAfO+kfsj/D7SNTttT0vVvENpeWsiywzR3YDKwOR0FfQkUWLVYJW87CBHLjO/jBJ+tSUUAfP/AMTf2UPhz4tv5dS0z7R4dvZm3SfZADCSeSfLPQk+hrz61/Ye09LpWuPiDcywA/Mi6YFYj/e8w/yr7BooA8m+Ev7Pvw5+HN1HqOmaY19qqYK3t6wkeM+qDGF/Cua8W/spfDrxL4l1DX7+71lbq+mM0ojuAFDHrgYr36igDi/g/wDDfQvhf4Yk8P8Ah+W7ktZLhpybiTe24gA8+nFdpRRQB418Tf2bPhh45vJdSm0uTStRkyz3FgwjDserOuMMfyryS9/Yf0x7jdaeP7qGL+4+nBz+fmD+VfYFFAHzN4P/AGNvh7pdwJtd1PU9bKkFUyIUJH94DOR7Zr6H8NaDo3hrSIdI0HTbbTrCEYjgt0CqK0qKAA1+Sfxh/wCSpeJf+wjL/wChV+thr8k/jD/yVLxL/wBhGX/0KgD7W/Y88K+H/GP7MMGi+JdKttSsZNRuD5cyBtrfLhh6EeorO8W/sWeDb+5Mnh3xJqWjRn/lnLGLkA/UlTiuq/YJ/wCTfLT/ALCFx/7LXvtAHyp4W/Yp8I2VysniDxRqOrxA5McMIts+2dzGvozwL4N8M+CNFTR/DGkW2nWi8sIlw0jf3mPUk+tb9FABRRRQByPxJ+G3gz4h6eLPxXolvelFKxT42zQ56lH6ivn7xD+xP4VuriR9E8W6jpsZ+4k0Cz7fqcrmvq+igD5W8L/sVeDrKYPr/ibU9WQdUhjFtn8ctX0R4E8FeF/A2kDSvC2j22m23Bfykw0hAxuY9Sa6GigArgfjT8KfDvxW0iy0zxFNexw2c/nxm2k2EttI54PGDXfUUAeGfDv9mHwB4H8aab4r0i61Zr3TpGeJZpwyElCvIx6Ma9zoooAKKKKAPNvir8EPh58SZTdeINH2ahjH220bypiB0BbHI+teH6v+xFok9wX0vxxe2cRPCS2Ky4H13rX1zRQB8r+Gf2KvBtnOr694l1TVYx95Ioxb5/HLV9CfD/wL4V8BaR/ZfhXRrbToGwZDGvzysBjc7dWNdJRQAV4n8Tv2avAnxB8Y3finWrnVUvboKJFhnCp8qgDAI44Fe2UUAec/BX4PeGPhPDqEXhya+kF8ytL9pl34x0xwK9GoooA8k+MH7PvgH4m69Frusw3drqCR+XJLZyBPOA6bhjkj1rmvDP7KXgXw1rtprmh614hstQtJBJDLHdgYI7HA5B7jvX0BRQAiAqiqWLEDBJ70tFcp8XPGVn4B+Hmr+KbyRF+xwEwq/wDy0lIwifUnFAHxn/wUB+I39veObbwLYS5s9Dy9yRxuuHHKn12qF/M1xH7G/wAPv+E7+MVlJdwu+l6Ni9uztypKn5Eb2Yj9DXkWvanea1rV5q2oTPPdXczTSyOcksxzX6LfsUfDxfBXwittSu4Cmq64Rdz712skf/LNCPYZP/AqAPdFAVQqgAAYAFLRRQAUUUUAFFFFABRRRQAUUUUAFFFFABRRRQAUUUUAFFFFABRRRQAUUUUAFFFFABRRRQAUUUUAFFFFABRRRQAUUUUAFFFFABRRRQAV+cfxL/Z/+Leq/EDXdRsfB93Na3F7JJFIHTDKTkHrX6OUUAePfsf+E9f8F/Bm20TxLp8mn6gt7NI0LkEhW24PH0r2GiigAooooAKKKKACiiigAooooAKKKKACiiigAooooAKKKKACiiigAooooAKKKKACiiigAr5k/bb8PfE3x1DpfhTwd4cu7zSIv9KvJ42ULLJ0VOT/AA4J/wCBV9N0UAfnV8KP2ZPiFffEHSIPF/hm4sdCE6yXsruuDGpBKcHqelfolbxRwQRwRLtjjUIo9ABgU+igAooooAKKKKACiiigAooooAKKKKACiiigAooooAKKKKACiiigAooooAKKKKACvN/2kPiBJ8N/hPqniGylhTVMLDp4lXcrSsR1HfC7j+FekV8O/wDBRjxp9s8S6N4GtbhWisI/tl3GOqzOMJ/44c/jQBwv/DXHxn/6Cmlf+C2OveP2Ofj34o+JHinVfD3jS7spLhbYXFk0UCxbsEBlwOpwc/ga+LfDXgvxF4i8P61ruk2D3FjosSy3jj+FSwHHqec/QVpfBDxZL4I+Kvh/xJGV2212qy7jhfLf5Hz9FYn8KAP1koqO1nhuraK5t5FkhmQSRuvRlIyCPwqSgAooooAKKKKACiiigAoorgP2hPE+seDfhJrfiLQZoodQtIg0LyRCRQc91PBoA7+ivzo039rH4z3GoW8D6xpe2SVVP/Etj6E1+iGnSPNp9tNIQXkiVmIHcgE0AT15N+1N8SNZ+F3w6i8RaJb209y17HAVnGV2tnP8q9Zrx/8Aay+HfiD4l/DSLw/4b+y/bFvo5j9okKLtGc8gHnmgD5t0f9sb4g3mrWlo+j6QEmmRGwpzgnFfd9u5kgjkPVlBP4ivz90b9kX4rWmr2d1I+ibIZ0dsXTHgEE/w1+gVuhjt40bqqAH8qAH0UUUAFFFFAHxL+0R8e/jL8N/izq/hq31PTRYq4nsd+nxsRA/KAnuQOM+orp/2RP2hPFvxA+IF14Y8a3djJ5toZrJordYfnUjK8dcg5/A1W/4KMeCftOh6L47tYwGtJDZXZUcsr8oT7DaR+NfJfwo8TT+DviNoXiW3wXsbxHIJwCpOGB/AmgD9cKKg0+7tr+xgvrOVZre4jWSKRTwykZBH4VPQAVznxN8TQeDvAGt+JrhgqafaPKCRn5+i8f7xFdHXyp/wUS8ZnTfBWk+DbWYpPqk/2icA9YUyMH6sV/KgDw7/AIa5+M//AEFNJ/8ABbHX2d+zLr/jTxX8K7LxJ44nie/1B3khSO2WEJDnCHjruHOfevzS+H3h658V+NtH8OWkZklv7tIto67c5Y/goJr9btB0y10XQ7HR7JdttZW6W8Q9FRQo/QUAfL37TP7R/i/4afFK48L6Pp2nT2kVtFKHmBLEuoJq/wDsrftBeK/in4+u9B1uw0+3tobIzq0AIbcGA/LmsL9qX9nnx98R/ixc+JfD7aZ9gktoYl8+co+5VAPGDWh+yT8BfHPwx+Id5rniM6abSWxMC/Z5y7biwPQgcYFAH1ZRRRQAUUUUAFFFFABRRRQAUUUUAFFFFABRRRQAUUUUAFFFFABRRRQAUUUUAFFFFABRRRQAUUUUAFFFFABRRRQAUUUUAFFFFAEGo3cNhp9zfXDbYbeJpZD6KoJP6CvyY+Lfiu48b/EfXPE08pkF5duYSRjEIOIx+CgV9/8A7avjT/hEfgjf28Evl3msuLGAg8jPzMR/wFSPxr88fAeg3HifxnpHh+2ieWS/u44dqddpPzH8FyfwoA+8P2Nfhylj+zxeRanC0c3ipZZJkkHSMqUjI/4D83418F+NNDuPDXi3VdBuUdZLC7kg+cYLBWIDfiAD+NfrroWm2+j6JY6TaDFvZW8dvEP9lFCj9BXwP/wUC8GroXxWt/EtsjC3123DyYXCrKgCEfUgA0AfUP7HvjX/AITT4JaU08we+0sfYbkZzjZwn/jm2vY6+C/+CePjT+yviBqPg66nK2+sQeZbx9jPGMk/98Bvyr70oAK8O1L9qX4UafqV1p9zqN4s9rO8Eg+zn7yMVP6ivca/IT4if8lA8Rf9hW6/9GtQB+p/hP4ieFfEfgRfG1pqKW+iFXY3Fz+7ChSQc5+h4rx7xd+2F8MtHvJLXTLfVdbKtgTW0SrE3uC5B/SviSfxt4w1zwPpXw6hmlm0izmaWCytojulkYk5bby+M8A9K6Gz/Z7+M13ZpdweAtSaKRQ6lpIlJH+6XB/SgD608L/tj/DXVL1bXVLDWNHDNjz5oleID1O1if0r6C8Oa5pHiPR4NX0LUbfULCdd0c8D7lYf0Psa/IjxBomr+H9Tk03W9OudPvIzhop4yrD/ABHuK9u/Yp+KF94M+Jtn4cu7uQ6Frkot5ICcqk7cRuvYHJAJ9KAPvb4k+NdD+H/hWbxL4hlkisIZEjdo03HLttHH1NfNv7QX7RXw18YfCPXPD2jX91Jf3cQWFWgKgnPrXqf7Y/hzXPFXwL1HRvDumz6lqEl3bMkEIG4hZASefQV8CeIfg/8AEzw9o8+sa14P1GysLcZlnkC7UHvg0AcdpcqQalbTSHCRyqzfQGv0RsP2q/hHBYW8LanebkiRT/o56hRmvznijeWRY41LOxAUDua9HT4EfF50V18B6qVdQynCcgjIP3qAP0A+GPx08A/ETxGdA8N3txLeiFptskRUbV68/jXUfE3xzoPw88Lt4j8RyyxWCzpAWjTcdznA4r5L/Yn+GHj/AMIfF99U8S+Fr7TLI6fLH50wXbuOMDg161+39/yb3cf9hS1/m1AGv4e/ab+Fuu67Y6LYahdtd306wQgwEAsxwMntXtQORmvyb+Bf/JY/CX/YVg/9DFfrGn3B9KAFooooAKKKKAOR+MfhWHxr8Mte8NS4BvLRhG2OVccqR75Ffk3eW09ndy2lzE0U8LlJEbqrA4INfslX5qftp+C/+ER+OGpT28LJY6wPt8LbcLub/WKPYN/OgD68/Yo8ZDxX8DtOtp543vdGJsJUU8qi/wCrJ+q/yr2+vgL/AIJ8+NhonxLvPCl1NstdbgzEufvXEfKj/vkvX37QAHgZNfmR+2B4yXxl8cNYmt5t9npzCxgAOQDH8rkfVgTX6CfG7xXD4K+FfiDxHLy1taMIkDAFnb5VA98nP4V+T1xNLcTyTzu0ksjFnZjksTySaAPp/wD4J5+CF1j4gah4xu4N9tosPl275+7cScf+gbvzr71rx39j3wT/AMIX8EdJSeFUvtUX7fcMBgsJPmQH6KQK9ioA8x+J3xz8BfDrxCuheJLy4ivGiEoWOIsNp6c1b+FHxj8FfE3UL2x8LXc801nEJZhJHtwpOAfzr48/4KFf8lptv+wdHXR/8E2P+Ry8Vf8AYPj/APRgoA+1df1S00TRbzV79ylrZwtNMwGSFUZP8q8TP7WXwh8vf/aN90zj7Mc/lXpnxm/5JR4o/wCwXcf+izX5K0AfrR4v+Jfg3wn4QtPFGv6xFZWF7Ck1qGyZJgyhlCqOScEV4vcfto/DKOVkTRfE0yqeHW3iAb6ZkBr458XeKPGnxY1nS7Z7W4v5NPsorKytLSIssUaKFzgdyRkmr4+A/wAXyoYeAtWwRkcJ/wDFUAfpX4I8ZaZ4t8A2fjOxiuYNPu7drhUnUCRVUnOQCRn5T3ry2b9q34RwzSRPqV5ujYqf9HPUHFdJ8F9I1PQf2btM0jWbKSyv7bSZ0mgkxuQ/OcHHsRX5iaz/AMhe8/6+H/8AQjQB+u3g3xDpvizwxYeItHkaSwvo/NgZhglckdPwrXrzT9lr/k37wd/14f8As7V6XQBy/wATPHWgfDzw0fEPiOaSKxEqRFo03HcxwOK898O/tN/C3XvEGnaHp+oXbXeoXMdtAGgIBd2Crk9uSKxf2/8A/kgU3/YRt/8A0KviD4D/APJa/BX/AGHbP/0ctAH6x1U1jU9P0fTptR1S9gsrSFS0k0zhVUfU1br86/21PizqvjH4hXnhKzumj8O6NN5SQxt8txMPvSN6+gB6Y96APo/xj+138LNDunttOOpa8y8CWyiAiJ+rlT+lYNh+2r4BkmCXnhzX4EPG9FifH1G8V8r/AAY+CHjj4qiW40C2gt9PhbY99dsUh3/3RgEk/QV3viv9j/4o6Lo8uoWk+j61JHz9lsZn81h7B1UH86APtX4Y/FnwH8RYR/wjOuwT3QTdJZyfJMn1U9fwzXc1+Pmh6rrfhPxHDqWm3FxpuqWE2VZcq8bA8gj9CK/Uz4GeN1+Ifwu0bxQwjS5uYdt1HGcqky8MP6/jQB29FFFABRRRQAUUUUAFFFFABRRRQAUUUUAFFFFABRRRQAUUUUAFFFZnivV7fQPDWpa3dOiQ2Vs87FzgfKpIH4nA/GgD4Q/4KC+Mf7b+Ktt4Zt3BttEtgHKvlXlkAY59wOKP+Cfng9NZ+Kdz4nu4yLfQ7YtDITx57/KB/wB8ljXz94v1u58SeKdU1+8z5+oXcly4znaXYtgewziotK1zWtJR00rV9QsEkILrbXLxhiO52kZoA/YXzYv+eif99CvBv25fCKeKvgpc6hb4ku9DmW8iVT8zKfkcf98sT+FfAH/CZeL/APoatc/8GEv/AMVTJ/Fniq4heCfxLrMsTja6PfSsrD0ILc0AP+H3iG58KeNtH8Q2srxvY3ccxK9SgYbh+K5H41+t2halb6xoljq1owa3vbeO4jIOfldQw/nX46V+i/7CXjRvE/wbTSbmTfeaFObVix+ZkPzIcegBx+FAH0DX5CfET/koHiL/ALCt1/6Nav17r8hPiJ/yUDxF/wBhW6/9GtQB9h/8E9fh3p8Hh2++IOoWiy6hcTG2sXdQRFEANzLnoxORkdhX1xXiP7EP/JvGh/783/oxq9uoA+cf2+/Bunaz8IW8UeQg1TRp4zFKAAzRuwVlJ6kDOQPWvg/wLNJb+NdEuIW2yR38LocZwQ4Ir9Gv2z/+Td/EP/bH/wBGLX5w+Dv+Rt0j/r9i/wDQxQB+vlg7SWNvI5yzRKSfcgV5b+1z/wAm/wDib/rgP516hpn/ACDbX/rin8hXl/7XX/Jv/ib/AK4D+dAH5l6J/wAhmz/67p/MV+wWkf8AIJs/+uCf+givx90T/kM2f/XdP5iv2C0f/kE2f/XBP/QRQBar5+/b+/5N7uP+wpa/zavoGvn79v7/AJN7uP8AsKWv82oA+HPgX/yWPwl/2FYP/QxX6vzki0cg4IjPP4V+UHwL/wCSx+Ev+wrB/wChiv1i2hotrcgrg0Afkzd/En4iLdzKvj3xRgSNj/ibT+v+9Uf/AAsv4i/9D74o/wDBtP8A/FV+hrfs1fBtnZj4SQliWP8ApMnUnP8AepP+Gafg1/0KSf8AgTJ/8VQB+ef/AAsv4i/9D74o/wDBtP8A/FV6/wDse+N/GesfHfR7HVvFuvX9o6Sb4LnUJZI2wO6sxBr6t/4Zp+DX/QpJ/wCBMn/xVbPgz4IfDTwf4gh17w94eWz1CEERyiZ2wD14JxQB6PXzP/wUD8EDXfhla+LLaEvd6HN+8bHS3fhv/HglfTFZHjXQrTxN4S1Tw/fRLLb39q8LoehyOP1xQB+TXgHxBdeFfGmkeIrN9k1hdpMp9gef0zX63eH9VtNc0Kx1mwffaX1ulxC3qjAEfoa/IfxTo134d8SajoN+ALrT7l7abHTcjEH+VfoJ+wn41HiP4Krpd1MWuvD8ptpC3RYjkx/koI/CgDg/+CjXjMQaPofga3Yb7mQ31yVblVQFVUj3LE/hXy18DvCUvjf4reH/AA7Hwlxdq0zbchY0+Zs+2Fx+NbP7UPjH/hN/jXr2qoc20Exs7fB4McXyhh9cZ/GveP8AgnJ4MD3Wu+OrmP8A1aiwtdy8HJDOw+m0D8aAPs62hitreO3gjWOKJQiIvRVAwAKkoooA/Pn/AIKFf8lptv8AsHR10f8AwTY/5HLxV/2D4/8A0YK5z/goV/yWm2/7B0ddH/wTY/5HLxV/2D4//RgoA+tfjN/ySjxR/wBgu4/9FmvyVr9avjN/ySjxR/2C7j/0Wa/JWgD9Lf2Pfhxp3gf4Tadfm0T+2dYiF3d3DL85VuUUE8hQu3j15r2uuf8Ahr/yTnwz/wBgi1/9ErXQUAZ/ib/kW9U/685f/QDX5Baz/wAhe8/6+H/9CNfr74m/5FvVP+vOX/0A1+QWs/8AIXvP+vh//QjQB+oX7LX/ACb94O/68P8A2dq9LrzP9lkhv2ffBxUgj7B1Bz/G1emUAfPf7f8A/wAkCm/7CNv/AOhV8QfAf/ktfgr/ALDtn/6OWvtn/goJcwRfAr7PJKqyzajD5anq2Dk4+gr4m+A//Ja/BX/Yds//AEctAH6x1+S3xn0m70P4reJdMvgwnh1CXdu6nJ3A/kRX6014j+0T+zv4e+K8y6zBdtpHiCOPYLlV3RzqOiyL7Z6jmgDxb9kT9ofwX4O8CR+DPFvnaa9vO8kd6se+J1bHBC5YNwe3pX0Zpfx7+D+pMFs/HemMxzgOJI+n+8or4x8SfskfFnS7ho7G0sNYQZxJa3AUH/vvaa43WPgH8YNJieW98C6iqINxMbRy8f8AAGNAH3inw4+B3jbVbnWLfT9B1a8vZDNM8M6szt3JUHI6eleg+DfC+heD9FXRvDthHY2KyNIIU6Bm6n9K/JLTdQ1zwzrHn2F3f6TqNu+C0btDKhB6HGCPoa/R39kP4q3vxO+HBk1t0fW9Mk+z3TqAPNXHySEDoTzn6UAe00UUUAFFFFABRRRQAUUUUAFFFFABRRRQAUUUUAFFFFABRRRQAV83/t++Nv7A+E8fhm2kT7Vr04ikTOCIE+ZiP+BBR+NfSFfnf+2vqmv+M/jNc29jpGqT6do8YtIGW0kILdZCDjGN3p6UAeLfDvw/ceKvHOjeHbWMySX94kW0f3c5b/x0Gv0rt/gJ8J4beKH/AIQ+wfy0C7mXLNgdT718u/sC/Dq+ufiTeeKtZ0y5todHt8WxngZCZ3443D+6W/OvvCgDzX/hRHwn/wChM07/AL5NH/CiPhP/ANCZp3/fJr0qigD88v25vhnpPgTxrpWoeHNOFlpWp2x3JGuI45lOCo+owah/YN8aL4a+MY0a5ZVtdetzbFnbASRfnQ/Ukbfxr6h/ba8FSeL/AIK3U9pby3F/o8y3ltFEhZn52uABz90k/hX5+aBpnirRtbsdYtdA1bzrK4juI/8ARJByjBh29qAP11r8hPiJ/wAlA8Rf9hW6/wDRrV+sngvWB4g8JaVrXlvG15axyujoVKMVG5SDyMHIr8r/AB/4d8QS+PPEEkehao6NqlyVZbSQgjzW9qAPvn9iD/k3jQ/+uk3/AKMavbq8W/Yrtrm0/Z/0WC7tpreVZJspLGUYfvG7HmvaaAPG/wBs/wD5N38Q/wDbH/0YtfnD4O/5G3SP+v2L/wBDFfpH+2Lb3F3+z94ggtLea4mYw7Y4oy7H94vQDmvzw8I+HPEMfirSXfQdVVReREk2cnA3j2oA/WbTP+Qba/8AXFP5CvO/2o9On1P4DeK4bcEvHYvMQBkkINxx+Ar0TTQRp1sCCCIU4P0FPvLeC7tZbW5iWWCZCkiN0ZSMEGgD8cLeV4J454zh42DKfcV+lnwv/aJ+GPiLwnYTXfiG20nUEt0W5s7rKtGwGDzjBHHY18rftA/szeMPCGt3ureFrCbXPD0srSR/ZxumtwTnYyDk9+VB7V4hL4V8TxOY5fDmsI46q1lICP8Ax2gD9XfCXjnwj4suJ7fw5r1lqcsChpVgfJQHoTXkP7f3/Jvdx/2FLX+bV5N/wTp0rU9P8Z+KHv8ATby0V7GEK08DICd7cAkV6/8At42l3e/AKeCztZ7mU6nbEJDGXbGW7CgD4W+Bf/JY/CX/AGFYP/QxX6xp9wfSvyu+Cfh/Xrf4u+FJp9D1OONdVgLM1pIABvHJOK/VFPuj6UALRRRQAUUUUAFFFFAH56/t++Df+Ef+LkPiG3iRLTXrfzcIvSVMByT6nIP51wPwE+K8vwxPiVTBc3Mer6VJawpE4AjnJG2Rs9gN3Tnmvtb9tnwQ3i/4K3l1aQNLqGjSLeQrHGXkkUfKyADnkNn/AIDX53/8Iz4j/wChf1b/AMA5P8KAM2NJbi4WNQXlkYKPViTX6pfs6+DU8CfB/QdBKFLj7OLi6BGCJpPmcH6E4/Cvgv8AZi+GureJ/jPodrqmjX0OnWsv2u6aa2dV2JyBkjH3ttfptQAUUUUAfnz/AMFCv+S023/YOjro/wDgmx/yOXir/sHx/wDowVk/t+aRq1/8ZbeWx0q+uoxp8Y3w27uufqBXRf8ABOjS9T0/xh4oa/029tFbT4wpngZAT5g4BIoA+qfjN/ySjxR/2C7j/wBFmvyVr9bPjFHJL8LPE0cUbyO2mThVRSSTsPAA61+VH/CNeItu7+wNVxjOfscn+FAH6x/DX/knPhn/ALBFr/6JWugrB+HCPH8PPDaSIyOuk2oZWGCD5K8Edq3qAINStheadc2hbaJ4njJ9NwI/rX5B+L7OTT/Fer2Mqsr297NGQwweHIr9g6+NP2y/2etX1HXbn4h+CbN75rn5tTsIgN6sFx5iDvkAZA5zQBF+xl+0D4d0LwpH4B8a366cto5/s27dSYyjHPlsRnB3EnJ45r6b1X4s/DbTNPkvrzxnoywRruYpchzj/dXJP5V+Ul9ZXthOYL60uLWUcFJoyjD8DVjRNE1jXLtLXR9LvL+Z2CqlvCznJ+g4oA9n/a8+NkHxV8RWmnaGkieHtKLG3aRcNcSHgyY7DGAAa89+A/8AyWvwV/2HbP8A9HLXqHjb9nDU/BXwI/4SzW47uXxRPdxImnWyeYtvEx53bc5b9B9a4H4H+H9et/jL4Mmn0PU4o01y0LO9pIAo85cknHAoA/UTXxqB0S9GlMq3/kP9mLAECTB25B464r8+NR/au+M9lf3FnNqGnrLBK0bA2EYIIJGOlfopXyB+1j+zNqGuazeeOvAESzXVyfMv9MyFLt3kjzxk91/LvQB67+zj8bNB+I/gq0bUtXsrbxJAmy/tZGWIs/8AfQHqp9ulesXupadZQGe8v7W2iAyXlmVFA+pNfkPqei+IvD14w1DTNS0y4hYjdLC8RU9OCQKbc634h1SMWlzq+qXqHgRSXMkgP4EmgD0T9rPxD4c8T/HDWtU8MeW9l8sUk8Y+WeVchpB654GfavfP+Ca2n3kVh4w1N1YWlw9tFEcHBdPMLe3Rlr52+FXwP+IXxD1OGDTdEuLKyZwJb+9jMUMS/wB7nlv+Ag1+j/wf8BaX8NvAVh4U0omRLcF55yMNPKfvOR74H4AUAddRRRQAUUUUAFFFFABRRRQAUUUUAFFFFABRRRQAUUUUAFFFFABUZggJJMMeScn5RRRQA5ERAQiKoPoMU6iigAooooACARg8io/s8H/PCP8A75FFFAD0VUUKihQOwGKYYICcmGPP+6KKKAHqqoNqqFHoBiloooARlVhtZQw9CKYIIAciGP8A75FFFAElFFFABTHiidtzxIx9SoNFFACpHGhykarn0GKV0VxtdQw9CM0UUAMEEIIIhjBHQhRUlFFABRRRQAUUUUAFFFFABUf2eD/nhH/3yKKKAFSKNDlI0U+oXFPoooAKKKKAGPFE5y8aMfUqDSpHGhykarn0GKKKAHEAjBGQaj+zwf8APCP/AL4FFFAEgAAwBgUUUUAFFFFAGTqnhjw1qk3nan4e0i+lznfcWUcjZ+rA1NpOhaJpH/IK0fTrDjH+jWyRf+ggUUUAX3RXGHVWHoRmmCCEEEQxgjoQooooAkooooAp6lpOl6mu3UtNsr1Rxi4gWQf+PA1n2vg7whayeZbeFdCgf+9Hp8Sn8wtFFAG1GiRoscaKiKMKqjAAp1FFABRRRQAUUUUAFFFFABRRRQAUUUUAf//Z;direction=east;" vertex="1" parent="1">
          <mxGeometry x="430" y="720" width="140" height="140" as="geometry" />
        </mxCell>
        <mxCell id="ThgxYlzbxs5j4NUEtEk3-3" value="" style="shape=image;verticalLabelPosition=bottom;labelBackgroundColor=default;verticalAlign=top;aspect=fixed;imageAspect=0;image=data:image/png,iVBORw0KGgoAAAANSUhEUgAABLAAAAGtCAYAAAAGUY0tAAAAAXNSR0IArs4c6QAAIABJREFUeF7snQeYFdX5h39z792923dZ2A7LgnSk2iLSFEWxRNLUiCY2jKARUAFBQKl2mmIvaLBHY0nsisYejSUiRXqvS9le7/z/c5dFyi5775wz/TfPk+dJwpzvfOf9zuy9950zZxRVVVXwIAESIAESIAESIAESIAESIAESIAESIAESIAGbElAosGxaGaZFAiRAAiRAAiRAAiRAAiRAAiRAAiRAAiQQJkCBxYlAAiRAAiRAAiRAAiRAAiRAAiRAAiRAAiRgawIUWLYuD5MjARIgARIgARIgARIgARIgARIgARIgARKgwOIcIAESIAESIAESIAESIAESIAESIAESIAESsDUBCixbl4fJkQAJkAAJkAAJkAAJkAAJkAAJkAAJkAAJUGBxDpAACZAACZAACZAACZAACZAACZAACZAACdiaAAWWrcvD5EiABEiABEiABEiABEiABEiABEiABEiABCiwOAdIgARIgARIgARIgARIgARIgARIgARIgARsTYACy9blYXIkQAIkQAIkQAIkQAIkQAIkQAIkQAIkQAIUWJwDJEACJEACJEACJEACJEACJEACJEACJEACtiZAgWXr8jA5EiABEiABEiABEiABEiABEiABEiABEiABCizOARIgARIgARIgARIgARIgARIgARIgARIgAVsToMCydXmYHAmQAAmQAAmQAAmQAAmQAAmQAAmQAAmQAAUW5wAJkAAJkAAJkAAJkAAJkAAJkAAJkAAJkICtCVBg2bo8TI4ESIAESIAESIAESIAESIAESIAESIAESIACi3OABEiABEiABEiABEiABEiABEiABEiABEjA1gQosGxdHiZHAiRAAiRAAiRAAiRAAiRAAiRAAiRAAiRAgcU5QAIkQAIkQAIkQAIkQAIkQAIkQAIkQAIkYGsCFFi2Lg+TIwESIAESIAESIAESIAESIAESIAESIAESoMDiHCABEiABEiABEiABEiABEiABEiABEiABErA1AQosW5eHyZEACZAACZAACZAACZAACZAACZAACZAACVBgcQ6QAAmQAAmQAAmQAAmQAAmQAAmQAAmQAAnYmgAFlq3Lw+RIgARIgARIgARIgARIgARIgARIgARIgAQosDgHSIAESIAESIAESIAESIAESIAESIAESIAEbE2AAsvW5WFyJEACJEACJEACJEACJEACJEACJEACJEACFFicAyRAAiRAAiRAAiRAAiRAAiRAAiRAAiRAArYmQIFl6/IwORIgARIgARIgARIgARIgARIgARIgARIgAQoszgESIAESIAESIAESIAESIAESIAESIAESIAFbE6DAsnV5mBwJkAAJkAAJkAAJkAAJkAAJkAAJkAAJkAAFFucACZAACZAACZAACZAACZAACZAACZAACZCArQlQYNm6PEyOBEiABEiABEiABEiABEiABEiABEiABEiAAotzgARIgARIgARIgARIgARIgARIgARIgARIwNYEKLBsXR4mRwIkQAIkQAIkQAIkQAIkQAIkQAIkQAIkQIHFOUACJEACJEACJEACJEACJEACJEACJEACJGBrAhRYti4PkyMBEiABEiABEiABEiABEiABEiABEiABEqDA4hwgARIgARIgARIgARIgARIgARIgARIgARKwNQEKLFuXh8mRAAmQAAmQAAmQAAmQAAmQAAmQAAmQAAlQYHEOkAAJkAAJkAAJkAAJkAAJkAAJkAAJkAAJ2JoABZaty8PkSIAESIAESIAESIAESIAESIAESIAESIAEKLA4B0iABEiABEiABEiABEiABEiABEiABEiABGxNgALL1uVhciRAAiRAAiRAAiRAAiRAAiRAAiRAAiRAAhRYnAMkQAIkQAIkQAIkQAIkQAIkQAIkQAIkQAK2JkCBZevyMDkSIAESIAESIAESIAESIAESIAESIAESIAEKLM4BEiABEiABEiABEiABEiABEiABEiABEiABWxOgwLJ1eZgcCZAACZAACZAACZAACZAACZAACZAACZAABRbnAAmQAAmQAAmQAAmQAAmQAAmQAAmQAAmQgK0JUGDZujxMjgRIgARIgARIgARIgARIgARIgARIgARIgAKLc4AESIAESIAESIAESIAESIAESIAESIAESMDWBCiwbF0eJkcCJEACJEACJEACJEACJEACJEACJEACJECBxTlAAiRAAiRAAiRAAiRAAiRAAiRAAiRAAiRgawIUWLYuD5MjARIgARIgARIgARIgARIgARIgARIgARKgwOIcIAESIAESIAESIAESIAESIAESIAESIAESsDUBCixbl4fJkQAJkAAJkAAJkAAJkAAJkAAJkAAJkAAJUGBxDpAACZAACZAACZAACZAACZAACZAACZAACdiaAAWWrcvD5EiABEiABEiABEiABEiABEiABEiABEiABCiwOAdIgARIgARIgARIgARIgARIgARIgARIgARsTYACy9blYXIkQAIkQAIkQAIkQAIkQAIkQAIkQAIkQAIUWJwDJEACJEACJEACJEACJEACJEACJEACJEACtiZAgWXr8jA5EiABEiABEiABEiABEiABEiABEiABEiABCizOARIgARIgARIgARIgARIgARIgARIgARIgAVsToMCydXmYHAmQAAmQAAmQAAmQAAmQAAmQAAmQAAmQAAUW5wAJkAAJkAAJkAAJkAAJkAAJkAAJkAAJkICtCVBg2bo8TI4ESIAESIAESIAESIAESIAESIAESIAESIACi3OABEiABEiABEiABEiABEiABEiABEiABEjA1gQosGxdHiZHAiRAAiRAAiRAAiRAAiRAAiRAAiRAAiRAgcU5QAIkQAIkQAIkQAIkQAIkQAIkQAIkQAIkYGsCFFi2Lg+TIwESIAESIAESIAESIAESIAESIAESIAESoMDiHCABEiABEiABEiABEiABEiABEiABEiABErA1AQosW5eHyZEACZAACZAACZAACZAACZAACZAACZAACVBgcQ6QAAmQAAmQAAmQAAmQAAmQAAmQAAmQAAnYmgAFlq3Lw+RIgARIgARIgARIgARIgARIgARIgARIgAQosDgHSIAESIAESIAESIAESIAESIAESIAESIAEbE2AAsvW5WFyJEACJEACJEACJEACJEACJEACJEACJEACFFicAyRAAiRAAiRAAiRAAiRAAiRAAiRAAiRAArYmQIFl6/IwORIgARIgARIgARIgARIgARIgARIgARIgAQoszgESIAESIAESIAESIAESIAESIAESIAESIAFbE6DAsnV5mBwJkAAJkAAJkAAJkAAJkAAJkAAJkAAJkAAFFucACZAACZAACZAACZAACZAACZAACZAACZCArQlQYNm6PEyOBEiABEiABEiABEiABEiABEiABEiABEiAAotzgARIgARIgARIgARIgARIgARIgARIgARIwNYEKLBsXR4mRwIkQAIkQAIkQAIkQAIkQAIkQAIkQAIkQIHFOUACJEACJEACJEACJEACJEACJEACJEACJGBrAhRYti4PkyMBEiABEiABEiABEiABEiABEiABEiABEqDA4hwgARIgARIgARIgARIgARIgARIgARIgARKwNQEKLFuXh8mRAAmQAAmQAAmQAAmQAAmQAAmQAAmQAAlQYHEOkAAJkAAJkAAJkAAJkAAJkAAJkAAJkAAJ2JoABZaty8PkSIAESIAESIAESIAESIAESIAESIAESIAEKLA4B0iABEiABEiABEiABEiABEiABEiABEiABGxNgALL1uVhciRAAiRAAiRAAiRAAiRAAiRAAiRAAiRAAhRYnAMkQAIkQAIkQAIkQAIkQAIkQAIkQAIkQAK2JkCBZevyMDkSIAESIAESIAESIAESIAESIAESIAESIAEKLM4BEiABEiABEiABEiABEiABEiABEiABEiABWxOgwJJRHhWAIiMQY5AACZAACURNQA0Bii/qZmxAAiRAAiRAAiRAAiRAAiTgHAIUWBJq5ZuxSkIUhnAjAaUmhHsGNsPoARlQKDl1lbj6889R9uACKJoo5kEChxHYtXkT8p56GsH81mSjk8DcFXdiS/lmna3ZzO0ENm3biodPexzJsSluH6ox41MB9e12xsRmVMcTCKkKagpuQLDLCMePxaoBfP3lXvztCX6GWcXf7v3Gxe/BuFt6oUVmot1TZX4REqDAihDU0U6jwJIA0a0hakLw7SvD6P4ZuGtoLny0WFFXuvqLz1H2wAMAaLCihueBBoWbNqIypCJ/9jwkHtfbAyOWP8S5K+6mwJKP1TURv1n1Nbq16IZ5Ax7ianM9VQ0LrPZ6WrKNBwiEalWUFFUj2OUviOs50QMjlj/Eb77ch6ef2CQ/MCO6gICC4uL1SEquxF9v6IsOnVq4YEwcAgWWhDlAgSUBoltDaAJrbxlUVcUd5+XixkGZlFhR1poCK0pgHju9cNMmVBQXQ4WKju8uRiA9zWMExIdLgSXO0M0Rvln9dfgzLDU2Dc+f/TLiAvFuHq78sVFgyWfqooiawCreWwZtmX58z/EIdr0OAB+Jj6bEFFjR0PLauXUCq6KiEC0ykjDz7iFISQ16DYLrxkuBJaGkFFgSILo1xH6BVbd4SMXNZ2Rh2jk5lFhR1JsCKwpYHjy1XmCFhx4bi/x59yHphBM8SEL/kCmw9LPzQst6gaWNtWdGL9zb/z74tB/YfCw+svJTYEXGyaNnHRBY2vj9MYg/9noEu93oURr6hk2BpY+bN1r9IrC08aY3T8T1N/ZFx84Z3hi+S0dJgSWhsBRYEiC6NcQBgaV9g/VB9YVw65nZmDIkx60jlj4uCizpSF0V8BCBFV6HpaDLF19DifG7apxGDoYCy0i6zo99sMDSpFVQCeCt334MhQYrsuJSYEXGyaNnHSKw9jOI634D4rrf5FEi0Q+bAit6Zt5pcajA0lYTN2+RhNvvPZsrsRw8CSiwJBSPAksCRLeGOFhgHRijgqlnZ2PC4CyuxIqg7hRYEUDy8CmHCqw6EJrGKnjwUSSecLyHyUQ+dAqsyFl58cxDBJYGQAF6tuiF2/vcjbiYBC8iiW7MFFjR8fLY2Q0JLMUfg7juYxHsei1fcx7BfKDAigCSZ085VGDVY9AeJ7z+xn5o37G5Z8k4eeAUWBKqR4ElAaJbQzQosOq2I7/59CxMP5ePEzZVegqspgh5+98bEljh39hxcWj/6hsItOCXk6ZmCAVWU4S8/e9HCKz9P6nT45rj7+e8wUcJm5oeFFhNEfL0vzcksMJAFB/iuo5EXM8JlFhNzBAKLE9fQk0MvmGBpTXKyEzC5GmnIyMriQAdRoACS0LBKLAkQHRriEYElvY4IZQQ7jo/D6NP1TZ2dysA8XFRYIkzdHOExgSWNmZNFLd59Akk9OrpZgTCY6PAEkbo6gANCaz6AXdv0R0z+tyF5NgUVzMQGhwFlhA+tzduVGBpA9f2xOp1C4KdrnY7BqHxUWAJ4XN548YFlrZaPzMzBaPH9UPbY9JdzsFdw6PAklBPCiwJEN0aojGBFR6vEn7U6cZTM3Hn+XnaC2h4NECAAovT4mgEjiawNIXlS05BmyefRrCgNUE2QoACi1PjaASOJrC0D66CpHw8eeZzhNgYAQoszo2jEDiqwNLa+fyI63w14npNJsdGCFBgcWo0TqBxgaW10X6HZWWlYOzEgWiZn0qQDiFAgSWhUBRYEiC6NcRRBVb9oBXM/m0eruvfgntiUWC59UowbFxHF1h13WpfUNo+/Qziu3QxLA8nB6bAcnL1jM/9qAJrf/edmnXGnX3vRUowzfiEnNYDBZbTKmZqvk0KrLDECiD+uCkIdrySjxM2UB0KLFOnrMM6O7rAqh9MZlYybpowEK1aU2I5ocAUWBKqRIElAaJbQ0QosLSf2NqjhHedn0uJddhc4Aost14ccsYVicAKf/9PSUXrBQ8ivnMnOR27KAoFlouKacBQIhFY2gLiDs064aFBTxiQgcNDUmA5vIDGph+RwNovsepWYt1CiXVYSSiwjJ2jzo4emcDSxpiZnYzRN/VDGz5OaPuSU2BJKBEFlgSIbg0RkcDSlojU7Yk157ctcV3/DD5OeNB8oMBy68UhZ1yRCqy6dVgK2r30CoJtCuR07pIoFFguKaRBw4hEYNV33SalAPMGPsQ9sQ6uBQWWQTPTHWEjFlhhieVHfO/J3BOLAssdk9+UUUQusOr3xJo0dRAys7mxuynl0dkJBZZOcAc3o8CSANGtISIVWOHx122CdeNpGbj913nc2H3/nKDAcuvFIWdckQssrb+6PbHy58xHQs8echJwQRQKLBcU0cAhRCOwtLsv3Zt3w7wBD/HthPU1ocAycHY6P3RUAiv8csIYBLteg7ge2tsJeWgEuAKL86BxApELrLpviSoys1Jw/Q190a4D32Jt15lFgSWhMhRYEiC6NURUAqsOgvbmtHuG5mHUwAw+TgiAAsutF4eccUUnsOqvMRUd33ofgQx+OdGIUGDJmYtujRKVwNoPITM+EwsHP4v4mAS3Yol8XBRYkbPy4JnRCqwwIsWH+N6TEOysvZ3Q50Fqhw6ZAsvzU+AoAKITWPWBMjKTMOOuIUhJDRKuDQlQYEkoCgWWBIhuDaFDYNXdtlZx8xlZmHZOjuclFgWWWy8OOePSI7DC3//j45E/dz4SjztOTiIOjkKB5eDimZC6HoGlfYr1zOiN2QPur7sr4+W37FJgmTBLnduFLoGlDdcfi/hj/4pgtxudO3hJmVNgSQLpyjD6BJaGonmLJIy6qS/ad2zhSjJOHhQFloTqUWBJgOjWELoEVt2eWKoSwu3n5WLc6VlupRPRuCiwIsLk2ZP0Cqz6PbG6fP4fKLEBz/LTBk6B5enyNzl4PQIrHFQBEv1xeO389+BX/E3249oTKLBcW1oZA9MtsPZ3Ht/rZgS7Xi8jFcfGoMBybOlMSFy/wFJVFS0yknHnnLORmBRrQq7sIlICFFiRkjrKeRRYEiC6NYRegXWAh4Lbzs7GxMFZnl2JRYHl1otDzrj0C6y6/lW/DwULHkbi8d5diUWBJWcuujWKboG1X2L1zjgOt59yD2L9Hn0UgwLLrZeGlHGJCizFH4u4HmMR7DLSs0sdKbCkTEWXBtEvsOqBtMhIwvU39kP7jtx2wi6ThAJLQiUosCRAdGsIYYEFqAow5cxsTDkrG4rivecwKLDcenHIGZeowApnERuDju9+CH9SopykHBaFAsthBTM5XSGBtT/X1NhUvHreW958lJACy+QZ66zuRAVWeLSKgrhuoxDXfawnJRYFlrPmvLnZigssLV9tT6ypt5+JZunx5qbP3hokQIElYWJQYEmA6NYQEgSW9jghlBDuOj8Po0/13sbuFFhuvTjkjEuKwNr/8oSCRx9HYq9echJzUBQKLAcVy4JUZQgsLe1eGb0wvc9dSIzxmCimwLJg1jqnSykCSxuuPwbxvSYh2Gm4cwYvKVMKLEkgXRlGjsAKv50wMwWjx/ZD23bpriTlpEFRYEmoFgWWBIhuDSFDYNXdXgu/2nX86VmYeW6udrPNMwcFlmdKrWugsgSWtieWkpSMds++iJjcbF25OLURBZZTK2dO3rIElvbB1SoxD0+f9aI5idulFwosu1TClnlIE1jhr4p+xHUdgbieE205VqOSosAyiqwb4soRWBoJ7XdYdnYKxk8+DTm5yW6A49gxUGBJKB0FlgSIbg0hTWDVA1Iw93d5GNmvhWf2xKLAcuvFIWdc8gRWXT7aF5S2Cxch/tiuchJ0QBQKLAcUycIUpQms/WM4tnk3zOpzN5KDKRaOysSuKbBMhO28rqQKLM1h+WIQd9wUBDte4ZnHCSmwnDfvzctYnsCqzzkzKxk33DwArQvSzBsGezqEAAWWhAlBgSUBoltDSBdYdW8kHzsoC7POy/GExKLAcuvFIWdcsgWWlpUvJRUFjzyGuHbHyEnS5lEosGxeIIvTky2wtAXE7dI64JHTF1o8MpO6p8AyCbQzu5EtsMIUfAHEdbkGcT0neEJiUWA5c+6bk7V8gaXlnZ2TgjHj+iOfEsucMh7WCwWWBOwUWBIgujWEAQKrfk+seb9riZH9Mlz/OCEFllsvDjnjMkJg1a3DUnDM8y95QmJRYMmZi26NIltg1XPqkNYe9/S/D8mxLl+JRYHl1ktDyrgMEVj7JVbCcbchNrwSy90HBZa76ys2OmMElvYtMSsrFROmnIpsPk4oViIdrSmwdEA7vAkFlgSIbg1hhMAKs6rbBOumQRmYdV4efC7eE4sCy60Xh5xxGSOwtNxU+FLT0Hre/a5/nJACS85cdGsUowSWdvele/NumDfwIbeiqxsXBZa76ys4OsME1v7HCYNdr0FcD20llnsPCiz31lZ8ZMYIrLo/7XV7Yl1/Izd2F69TdBEosKLj1eDZFFgSILo1hGEC68D3YtStxHLvnlgUWG69OOSMyziBVX+NqejwxluIyXHvxu4UWHLmolujGCaw9gPLS2qJRwY9iQS3vp2QAsutl4aUcRkpsMIJKn7EH3crgp2udO3jhBRYUqaiS4MYJ7DqgWl7Yt02azCapce7lKH9hkWBJaEmFFgSILo1hMECq24lloqbz8jCtHPcuScWBZZbLw454zJaYIW//yclofXc+Ujo2VNO0jaLQoFls4LYLB2jBZb2KdYzozdmD7jfZiOXlA4FliSQ7gxjuMDSsPljEX/sXxHsdoMrJRYFljuvDTmjMl5gaXlmZCbj+hv7ol2H5nLSZpSjEqDAkjBBKLAkQHRrCMMFluavfFCVEO79TR5GD8x0HUkKLNeVVOqAzBBY9Xtidf74M/gS3XeHjQJL6pR0XTCjBVY9sGbBVLxwzuuI8cW4iyEFlrvqKXk0pgis8J0YBfG9JyHYeYTkEVgfjgLL+hrYNwNzBJaqqsjITMFdc89GfILLPsNsWFwKLAlFocCSANGtIcwQWAfYKbh1SDZuOTPLVW8npMBy68UhZ1zmCKz9uQZj0fq+B5DYu7ec5G0ShQLLJoWwaRpmCSxtQfHxGcfjzr5z4PP5bUpDR1oUWDqgeaeJaQIr/DRhLOK634Rg1+tcBZgCy1XllDwYcwSWlrT2lviMjCSMuqkfV2JJruLh4SiwJACmwJIA0a0hTBVYdX88Z5yTE36kUFHcsbM7BZZbLw454zJVYGlfUPx+dPnsKygBn5wB2CAKBZYNimDjFEwTWPsZJAQS8a/z36t/V4mNyUSYGgVWhKC8eZqZAitMWAHie4xD8NjrAbjjc4wCy5vXTmSjNk9g1eeTkZmEmfcMQXJyMLIUeVbUBCiwokZ2ZAMKLAkQ3RrCZIGlPU4IJYS7zs/D6FMzXLESiwLLrReHnHGZLbDq77K1efRxJPTqJWcQFkehwLK4ADbv3myBpeE4LvN4zOhzF+ICcTanE0F6FFgRQPLuKaYLLA21tidWr4kIdrraFeApsFxRRoMGYb7A0hYTZGYmY/RYvp3QoKKCAksCWQosCRDdGsJsgRXm6IOKECafmY1bz84Jb/Pu5IMCy8nVMz53KwSWttZRSUxG+1deRaB5uvGDNLgHCiyDATs8vBUCS9uvJy8hG4uGvOxwenXPlahvt3f+ODgCQwhYIrC0kSg+xHW7HnHdxxkyLjODUmCZSdtpfZkvsDRCKlRkZ6filqmDkJGZ6DRots+XAktCiSiwJEB0awhLBFY9TAXzfpeHEf1aOHolFgWWWy8OOeOyRmDV5a59QWm7cBHij+0qZzAWRaHAsgi8Q7q1RGDtZ9MzoxdmnHwHEmOTHUKrgTQpsJxbOxMyt0xghffEikH8cbchtsNljn47IQWWCRPVsV1YI7DqcWVlJ2PMuAFo3SbNsQTtmDgFloSqUGBJgOjWEJYKrLo9sW4+PQvTz81xrMSiwHLrxSFnXFYKLG0EvtRUtHnyKQTz8+UMyIIoFFgWQHdQl1YKLG0FcdvUdnjsjKcdROywVCmwnFs7EzK3UmCFh+cLIK7rtYjroa3EcuaafQosEyaqY7uwVmBp2LJzU3DThIHIa5niWIp2S5wCS0JFKLAkQHRrCIsFVv2eWAsuaIXhfbSVWM4DTYHlvJqZmbHVAqtuHZaCY559AXEdnPmYEAWWmTPWeX1ZKbDqaXVN74o7+s1GUowDV2JRYDlv0puYseUCKyyxYpBw/NT9K7FMHLykriiwJIF0ZRjrBZb2LTErKxU3Tx6InDxKLBnTjAJLAkUKLAkQ3RrCaoEV5qpZKxXjwyuxch0nsSiw3HpxyBmX9QJLG4cKX1ozFCx4CHEdO8gZmIlRKLBMhO3AruwgsLQ9sbqlH4v5pz7sPIIUWM6rmYkZ20JghbfEikHwwEosEwFI6IoCSwJE14awXmDVfUtUkZObilE39UcBHycUnm0UWMII/3/17YxVEqIwhCsJ1IagFFdACWkP81l7qArw2hVtcG5XZ9l/Cixr543de9+7bTsqykpt8eCD9gWl42df2h3ZEflRYDmuZKYmvHTDjwiZ2mPjnXVI64i5/R+wSTYRpkGBFSEob54WCqkoLaqwxeAVnx/xpzyAQMtzbJFPpElQYEVKypvnlZRtRWXlXlsMPjsrDffef7otcnFyEhRYEqpHgSUBIkOYQuBv52dhWDdnPYJBgWXK1GAnkgik/u0ZSZHMC0OBZR5rZ/ak3YCxx/PnufG5GN3RYW9No8By5rT3ZNYqlB6zgdxfO2r0FFiOKpfnk53/iLNf/GOHAlJgSagCBZYEiAxhCoGnz8/CJRRYprBmJ94kQIHlzbpz1OYQyI3Pw+iOY83pTFYvFFiySDKOCQSUHvdSYJnAmV14lwAFlnjtKbDEGfIRQgkMGcIcAhRY5nBmL94lQIHl3dpz5MYToMAynjF78DYBCixv15+jN54ABZY4YwoscYYUWBIYMoQ5BCiwzOHMXrxLgALLu7XnyI0nQIFlPGP24G0CFFjerj9HbzwBCixxxhRY4gwpsCTkhXJWAAAgAElEQVQwZAhzCFBgmcOZvXiXAAWWd2vPkRtPgALLeMbswdsEKLC8XX+O3ngCFFjijCmwxBlSYElgyBDmEKDAMocze/EuAQos79aeIzeeAAWW8YzZg7cJUGB5u/4cvfEEKLDEGVNgiTOkwJLAkCHMIUCBZQ5n9uJdAhRY3q09R248AQos4xmzB28ToMDydv05euMJUGCJM6bAEmdIgSWBIUOYQ4ACyxzO7MW7BCiwvFt7jtx4AhRYxjNmD94mQIHl7fpz9MYToMASZ0yBJc6QAksCQ4YwhwAFljmc2Yt3CVBgebf2HLnxBCiwjGfMHrxNgALL2/Xn6I0nQIElzpgCS5whBZYEhgxhDgEKLHM4sxfvEqDA8m7tOXLjCVBgGc+YPXibAAWWt+vP0RtPgAJLnDEFljhDCiwJDBnCHAIUWOZwZi/eJUCB5d3ac+TGE6DAMp4xe/A2AQosb9efozeeAAWWOGMKLHGGFFgSGDKEOQQosMzhzF68S4ACy7u158iNJ0CBZTxj9uBtAhRY3q4/R288AQosccYUWOIMKbAkMGQIcwhQYJnDmb14lwAFlndrz5EbT4ACy3jG7MHbBCiwvF1/jt54AhRY4owpsMQZUmBJYMgQ5hCgwDKHM3vxLgEKLO/WniM3ngAFlvGM2YO3CVBgebv+HL3xBCiwxBlTYIkzpMCSwJAhzCFAgWUOZ/biXQIUWN6tPUduPAEKLOMZswdvE6DA8nb9OXrjCVBgiTOmwBJnSIElgSFDmEOAAssczuzFuwQosLxbe47ceAIUWMYzZg/eJkCB5e36c/TGE6DAEmdMgSXOkAJLAkOGMIcABZY5nNmLdwlQYHm39hy58QQosIxnzB68TYACy9v15+iNJ0CBJc6YAkucIQWWBIYMYQ4BCixzOLMX7xKgwPJu7Tly4wlQYBnPmD14mwAFlrfrz9EbT4ACS5wxBZY4QwosCQwZwhwCFFjmcGYv3iVAgeXd2nPkxhOgwDKeMXvwNgEKLG/Xn6M3ngAFljhjCixxhhRYEhgyhDkEKLDM4cxevEuAAsu7tefIjSdAgWU8Y/bgbQIUWN6uP0dvPAEKLHHGFFjiDCmwJDBkCHMIUGCZw5m9eJcABZZ3a8+RG0+AAst4xuzB2wQosLxdf47eeAIUWOKMKbDEGVJgSWDIEOYQoMAyhzN78S4BCizv1p4jN54ABZbxjNmDtwlQYHm7/hy98QQosMQZU2CJM6TAksCQIcwhQIFlDmf24l0CFFjerT1HbjwBCizjGbMHbxOgwPJ2/Tl64wlQYIkzpsASZ0iBJYEhQ5hDgALLHM7sxbsEKLC8W3uO3HgCFFjGM2YP3iZAgeXt+nP0xhOgwBJnTIElzpACSwJDhjCHAAWWOZzZi3cJUGB5t/YcufEEKLCMZ8wevE2AAsvb9efojSdAgSXOmAJLnCEFlgSGDGEOAQosczizF+8SoMDybu05cuMJUGAZz5g9eJsABZa368/RG0+AAkucMQWWOEMKLAkMGcIcAhRY5nBmL94lQIHl3dpz5MYToMAynjF78DYBCixv15+jN54ABZY4YwoscYYUWBIYMoQ5BCiwzOHMXrxLgALLu7XnyI0nQIFlPGP24G0CFFjerj9HbzwBCixxxhRY4gwpsCQwZAhzCFBgmcOZvXiXAAWWd2vPkRtPgALLeMbswdsEKLC8XX+O3ngCFFjijCmwxBlSYElgyBDmEKDAMocze/EuAQos79aeIzeeAAWW8YzZg7cJUGB5u/4cvfEEKLDEGVNgiTOkwJLAkCHMIUCBZQ5n9uJdAhRY3q09R248AQos4xmzB28ToMDydv05euMJUGCJM6bAEmdIgSWBIUOYQ4ACyxzO7MW7BCiwvFt7jtx4AhRYxjNmD94mQIHl7fpz9MYToMASZ0yBJc7QEwIrPT6Azs0D8Pl8AFQoYW4q9lSq+HlXFSprVQkkGcJoAhRYRhPWGV/xwZeZAV9aM6h1F1f4UGpDCBUWIrS7UGdgNjObAAWW2cSb7k+BCr8Sg8z4LASVYN21pX2CKSqqQjXYVbENlaGq/f9v0/F4hnUEKLCsY3/0nlUowSyoCa2gwHfgcyx8nVXuAso2AmqNXZNnXgcRoMCy53QIBHzIyIpFQoL2O+yXQw0B27dXorSk1p6JM6sjCFBgiU8KCixxhq4WWJ1bxOLOQc2RkeDH8TlB+H0H/boGUFgWwvfbK7F0VxXGvb+LIkvCfDIyBAWWkXSjja1A+2Ed6HMKYvv0gS8vD74WGYcGCYVQu20r1K1bUfnuO6hZujTaTni+yQQosEwG3mh32k0VFYrix3m5Q5Edl4OWCa0Q548/pEVlqBJbyjZhZ9UO/H3DC3ZJnnk0QoACy15TQ7vKlPQToRRcDiS0ApLaA8qhP7BRsRUoXgm18Atg7WP2GgCzOYIABZadJoUCRVEx9PfZyM0LIq9VPJKS/YckGAqp2LSxAnt2V+Odf+4M/3ce9iZAgSVeHwoscYauFFiasPpNp0Q8dHZmxIQqa0Lo8cgmrN1XjWquyIqYm5knUmCZSfvoffnzWiL+sivg79Qx4qRqN21C2e0zESoqirgNTzSXAAWWubwb682n+HB8+on4fauLIk6oNhTC21tfx6c7P0YtuKo4YnAmnkiBZSLsJrpSYpsD3e8AMgZEvnqxaCnUH24ESlaHBTMP+xGgwLJHTRQFyM4J4toxBUhJ1aTVoQsIGsvy3TcL8dH7hSgpqbbHQJjFEQQosMQnBQWWOEPXCay8ZD9euyAHvXPioqZTEwJmf7kXExbvgsrvJlHzM7oBBZbRhCOLHzvwVMRd+icosbGRNTjorNCmzShf+ARqViyPui0bGE+AAst4xk31oMmrC/OHoWez3tDWOUZ7fLvna7y+6RWU1ZZH25TnG0yAAstgwBGGVxILgF4PAsntImxx0GkqoP44HtjyKqA9/8TDVgQosKwvh88P9BvYHL+7MCticXVw1ps3VeD+2WtRWsLry/pqHpkBBZZ4VSiwxBm6SmAlxvhRNLbNESvAo8W08IdiDP/ndnAhVrTkjD2fAstYvk1HVxDTsSMSJk1u+tQmziidehtqVq0UjsMAcglQYMnlGW007T71xQWXo1tqj0hvWDfYxQ97v8ML659GDe/ERFsCQ8+nwDIUb2TB4zKBgZ9AOfxRwchaHzgr9Plvoez7McpWPN1oAhRYRhNuOv4Jv0rFpVe0bPrEo5yhqirGXb8clZWUWEIgDWhMgSUOlQJLnKFrBFZqnA//+EM2BrRO0HHP+kiQV7yxAwt/4KNOEqaYtBAUWNJQ6gikINClCxJvngBoa8MFj9CGDSiZOR1qWZlgJDaXSYACSybNaGLVLfn9dd5v0DdjYDQNGz33i12f4tVNLx14bYmUoAwiRIACSwifeONgBpQTFgLJHcRjaRG+vRbq9nflxGIUKQQosKRg1B3khJPScOmVebrbH9xww7pyPDh/PTd4l0JTXhAKLHGWFFjiDF0jsE5vk4B3huVKkVca1vIaFe3uX4+tJXzzjIRpJiUEBZYUjPqCKAoSx92MwLHH6mvfQKvQmtUovnWKtHgMJE6AAkucod4IzWKbYUKXW/U2b7DdovUL8b8930uNyWD6CVBg6Wcno6XS/nqg3V9lhKqLUfgl1G9HADUl8mIykhABCiwhfEKNm6XH4PqbCtC8RQDAYS9D0Bl5wex1WLG8VGdrNjOCAAWWOFUKLHGG7hBYqoJNo1sjN1n7oynvuOeLPRj/QSG36pSHVCgSBZYQPqHGga7HInHceMAn50uJlowKFaVTp6KWjxIK1UZmYwosmTQjj+VXfBh+zAi01d6CJunQHsFYWbICT699DFUh3oiRhFUoDAWWED6xxvEtgYGLpd3krE9G/eYqYOdHuvb6ERsQWzdEgALLunnRb2A6/nBxjtQEQipw48ilqOWeLlK5igSjwBKhV9eWAkucoSsElvbGwZd/L/ePZvgHtgr4Z6zWZpoE0gwhSoACS5Sg/vaJN41FoEdP/QEaaVn1yb9R/sjD0uMyoD4CFFj6uIm2yk/Mx/BjrkPQF/2LEY7Wd0gNYd6Ku7G1YqtoimwvgQAFlgSIukKoUHo/CGSdoav1URtVFkL98Ffy4zKiLgIUWLqwSWikYPaCLgjESAh1WIgP3tmF117eLj8wI+oiQIGlC9shjSiwxBm6QmB9c2Ur9M4JSqBxaAjtDvZlb+zE3/7HvbCkw9URkAJLBzQJTVQoSPvbIgmRjgyhvY2wbPa93AvLELrRB6XAip6ZaAsFKjqkdMaVba8RDdVg+4VrHsXSop8Mic2g0RGgwIqOl6yzFU0Ma3tfpZ8gK+QhcdR3uwN866chbKMNSoEVLTE552dlBXHLdB1v9Yyg++VLS/DA3PURnMlTzCBAgSVOmQJLnKHzBZaq4NvhLdEzW77A0vA+/b9iXPY6zb+EqSYcggJLGKGuAL5mzZA8/35dbZtsVFODkimTULtxY5On8gTjCVBgGc/4yB5CODPnXAzKGmxI52tLV+PBlfcZEptBoyNAgRUdL1lnK4nHACc+CcTJX6kf3mPih1FQt74pK13GESBAgSUAT6DpRZfkok//ZgIRGm+qbeauCayyslpD4jNodAQosKLj1dDZFFjiDB0vsNLi/Pji8pbo2NyAdasAnvuxCMNe2yGBNEOIEqDAEiWor33Mr05GwrXX6WvcVCsVKJk0EbUbeHetKVRm/DsFlhmUj+zjmnZ/RdukYwzpXNtrbvz3YwyJzaDREaDAio6XrLMVbeXVCU8BPmO+J6rrFwFLp8pKl3EECFBgCcATaDpydGt06pIkEKHxpnt2V2PBnPXYsb3SkPgMGh0BCqzoeFFgifNqMIJvxiqDIpsTNi85gI//nIe2acZ8MXl2STEueVXeCqz4gIKreqfizLbxiPEpKKsJ4c2VZXjsuyKEuA3oUScNBZY519ThvcQMGoSEy64wrPPiSRMRWi9PYPnS0xE879fwZWWHc1b37kHlBx+gdvUqhHfw5ZZ2jdaSAsuwaX7UwGM6jUNOXK5hnY/7frSk2NrFo+LY1J44oflJ8Cv+cNx1pWvw2c5PUFZbCiV8kWn/4XE4AQosa+aE0uKUukcIjTq2vA71hxulRNeuMCWYASX/YiCtF7StLJTaUmDTy1B31m1Cz4+wxlFTYEmZhlEHGTEqH527JkfdLpIGJUU1WDBvPTZvrIjk9CbO0a6gENq2S0SffulISdU+w1Rs21KFjz4sxO5d1RL6cHcICizx+nIFljhDx6/Aah7vx2eXtUQHg1ZgyRBY2p/LVikB3DogHZf3SPmlauFvKvX/U8WMT/dg4ffFWLOXf0AbmtoUWBIueB0hYvqegoS/jNTRMrIm4RVYogIrEIC/dWskXDMSvuw6cRX+ll9/famAGqpB6axZCG1cD7VcxhehyMbnpLMosMyvlooQRrYfhTbaY04GHGpIxfj/iazAqvu5nBhIwsktTsEZWUOgKA0Lqo1lG/D8+kXYWand9KHEOrycFFgGTPAIQirpJwEnLgQUuW+qDn/MaIJp0wtQl0yOIJOjneIDEgugnPA4EN+yLu7B11nYHVdBXXY7sO0toKpQsD93NqfAsqauI0e1QaeuCYZ0vldbgTVvHbZvrRKKn5DoR1ZOENeNbo2YWN+R1xgQFllPPLIBu3ZUoaaGqrgh4BRYQtMw3JgCS5yh4wWW9hX52+Gt0CNL/h5Y2qMXzy4pwaWCK7DO65CEeYOboyCCVWI7Smtwwcvb8cmGCmj98/iFAAWWNbNBSU5BygMPGtN5RSWKb5uM0ObNuuMr8fGIu+BCxJ4ewRumQiHULl+Gkttn6e7PzQ0psMyvrvZ3/oysMzE452xDOl9Z/DMeXf2AQGwVnVO64ozsIchLaNWkliqvKcN/dn+Bf215DYBPoF/3NaXAsqimYTG0EIjPk55AWDR9dy3U7e8JxVaOnQZkD4Eak3b0a0z7Wli0BOryWcDu/1AUH0adAktoGupu/LuLcjDgtHTd7Y/WcN2aMiyYux6VFdpzKvqO2FgF144uQJt2TUu2mpoQvvp8H15YpL29l7/DDidOgaVvDh7cigJLnKHjBZaG4MvL8nBiy3gJNI4MMezV7XhuSbHu2IPbJuDti6N7NET7QpQ3bz22ldTo7teNDSmwrKqqitSnFgE++T9Ga5avQNmce/S/hdDnQ/zIkYg96eSo4Kj79qL4hjFQq8Tu6EXVqQNOpsCyokghdEjuhKuOMWaV46OrFmBlyUrdA2sRbI5r248Jr8CK5nhr6z+xePv70TRx/bkUWNaUOLwWUNsDq0UfQxJQ32qvP67ig9JlEpB/aXQxaoqhLu4P1JRE187lZ1NgWVPgjMwgJs/QVhHLX3kr+hbCYJwPd87tCF+U32FXrSjF/XPXI1RLiXXwrKLAEr/GKLDEGbpCYA3Ij8fiP8m/s6bhjZ25CnpXkbZJi8F7w3LRtln0+3PtLg+hz5Mb8fNuPk5YP80psCRc8LpCKEi4ZgRiTjlFV+ujNar+5FOUPaJ/dVfsmWch7pJLdXxlUlH55puoeO453mE7qEAUWNKneEQBc+NzMbzttUiMSYzo/EhPqg5VY/7P92J7xbZImxx0Xt2X9mvbj0brxDZRt68MVeLOpdNRUqPdAJL/oybqhGzQgALLuiIox04HWl0kP4GiZVA/+7XOuCqQ2BbKyS8DMdHvH6Tu+xH44vfa8/E6+3dfMwos62p6z31dEBuU/7f+tb9vwwfv6ntk1udTcOElOTi5b/RvSFRV4JmFm/GfL/bxe+JB04oCS/wao8ASZ+gKgaVhqJrYFoEo7XpT+G77eDemfbK7qdMa/fc7TmuOcX2i/6NZH/CGd3dh7n/26u7fbQ0psKyraEzXY5EwfoL036FFo0dBLdyla2DaXleJE26Btmm73mPfny7RNjHR29x17SiwrCqpiuHHjED75E5SE/h+77d4bt3TOh+CUPHbVn/Ar5r31Z1TrVqLCT/cQIG1nyAFlu6pJKWhMkT/SsSGEghv8/DZ+VD2LYOq63e7AuWs5YAisLp55Xyoq+6TwscNQSiwrKtip85JGDmmtdQEtK9no/7yk+6YmVmxmDRd3wpJ7WmY4qJaTJ+0GpWVfCKmvggUWLqn44GGFFjiDF0jsIYck4BXL8xFjMD3gINxrthVhVMWbsbu8lpdP9pPLYjHB5eIrQqrqFGRPWcNiir5A1urDQWWhAteZwglGIfEsePg79BR1/XQULfVHy1G+eOP6fxxDcQNG4bgWWL7BoU2bkTJxAncb25/gSiwdF4gEpq1TmwdflRP5vHU2sfw074lOkKGkBrbDMOPGYnMYJaO9nVNtB/4L254Bv8N79Uj6cNZdzbWN6TAsrgGHcdDaXuVvCT2fAf1v1cD1fpuNCr5w4Cut4nls+9HqF9dDNTyxSQaSAossekk0jolNRDeZyonT96exM8+tRlffqbv+tLGcsPNbVDQtul9r4427nff3IV/Cu6FLMLVbm0psMQrQoElztA1AivgA969OA8DC+TshTXxw0Lc8fkeXYR9ioIPL81F/3zxXLaX1CBn7jpdebitEQWWxRVNSETKQw83+gayaLILbd6CkhlToZbo3L8jNQWp9z0ANPI2tGhyqXj2GVS+9WY0TVx7LgWWlaVV0TW1G/7cRs4P7Le2voHF4Y2l9YgjFadlDcZZOecIAyms3Ik5K+5EVYh3sCmwhKeTWIBAMnDcgwi/lVDgOPCC238Phlq6VlckJb4lcOJTQEK+rvYHNwqvwFo5jysdKbCE55JogJ7HpeCKv7QSDRNu/+P3xXjykY063wao4pzzM3HmOZlScpkxeSV2bOeeqRpMCizxKUWBJc7QNQJLQxHjU/DWxbk4TUBiaV9MnvqhGFe8ob0GXM+h4KKuSVg0NAs+XUvKD+1TWz77h5e34ZVlJdJWvugZlR3aUGBZXwV/+3ZI+OsY+Jql6U5G2zi9fMECVH/7X137CmirwZImTYGvQM5S9Zrly1B6151ANfebo8DSPa2lNIz1xeCc3KE4uYXYfnPLi5bi2XULURHS84VbRW58S4zuOFbKmLQgr216GZ/t+rfnf2BTYEmbUroDheVVj3uAuGzdMVC9D1g2E+rmf+iOoRwzAuigPV4r59D24VK0/bjkhHNsFK7Asr50Q/+Qif6ntkAgoP9H0IZ1ZXj8wU3Ys0ff97KUlABGjGqNvFZxUoD8+EMxFj6yEdXVXr/CKLBkTCgKLAkUfTNWSYhinxDNgn4s+k0mhrSLfjNcTRZpq64mLS4U+hKwZXQbZCf5pUH5blsl+i7chHK9u8lLy8TaQBRY1vIP964o8Be0RdK0abqSCe0tQuntM6Bu2az7Ggt074nEMTcAAXnXWPmip1H1zju6xuSmRhRY1lcz1heL/hkDMFjn6qelRT/ixfXPoay2TOdgQuE3ImpvRpR1qGoIty+dir3hR630/6iRlY9VcSiwrCJ/aL9K0jFAj7lAio45rgLq99cB2upGvZunB1KAQV9B8QXkANF+U296AeqSKQC8vaE7BZacKSUSRduO+IyzMnDOUH2rn5b9VIJnFm5B0T598krLve+A5rhgmICkPgxATY2K26esws5dWk7ellhcgSVyddS1pcASZ+iqFVj1OBQoePy8DAwqiEer1KbfABhSAU0STf2kEP/8We+X/rreRTdub6ykF/59G15arvNxKwnzxA4hKLDsUIX9f3wTExF/7V8R061bk0mFP+rLy1GzZAnK//YU1D36Hs2t+6sPJN8zG75M/fvyNJZw8Y1jENqxo8nxuPkECiz7VPekFifj5OZ9oUmPSI7dlbuweMcH+KrwM52PDdb10i2tG4a1vhw+kY2lG0j4xz3f49kNf4O2sbtXDwos+1Re8ScCveYCqT2A2AhetqPJqr3fQ/3mKiD8Zk2dhy8I5aRngbTuOgM01kyFqr2RcO//JMd1VjgKLPvUKyc3iGGX5aFV6/iIdnvYu6caG9aX4/EHNwq9W6dFRiwmz2wv/VZJSXENJo9bgVrvfoSFJxcFlvg1RoElztCVAmv/71x0aB6DNmkxeHBIBlqnxYSd+eH3ft9bU4YZn+7F8l2V2Fkm9lfplFbxeOOiXKQZ8BrZmpCKvHnrsLNULEcJU8ayEBRYlqFvsGMlJgaBdu3h79ULwTPPAhp6C2gohMp/vILqH75H7Vp9e4Uc3HnClVciZuBphoCoeu+9sGAT+uZkSGbmBaXAMo910z2pSI5JQquEgvBjhRnBjAab7K7ajTe3vIZNZZuwu0p71XhDn3RN9xb+3FRUjO04CS3iGu4rsigNn1UZqsSc5XdCy9erBwWWDSuf0hlKs+OBjuMAfwOPG2nCdeNLULe+BhQtB2oEbyS26AOl98MN9yWKp3QN8O8zPb0+hAJLdBLJbZ+Y5Icmsgac3gLdeyQfEFnaG/6U/XuYFhfV4O/PbsOWLRXYvq1SMAEFw0e2QreeyYJxGm7+3tu78MYr2o1O767CosASn1oUWOIMXSuwDkaj/ZnxQUFOkh/ds+JQUlWL/26tCD+Sp63WCr8KWfRQFdw+KB3j+0RwJ09nX88uKcZlr++AJrO8eFBg2a/qmhA+MBsDAfhzcqGkN4O6Ywdqt26VmrA/MwsJU26FLzVVatwDwUIhlEy+BbUbNhgT3wFRKbDsVqT6q6vuSovzxyMnLif8ubW9YjtKa0vD0kl7/F3Go3n9Mwbi3LyhhkHYW7UHs5ZN3S+JvfcoIQWWYVNLMPAv15ma0ApKQgFQsR0oWweEtB/UsuaqAuWU14CUzoL5Nt5cXXEXsOZRw+LbPTAFlr0rFBOjIDc3iPhEP7ZtqcLevfofE2xopF27J+GqEfnw+2Vds4f2ogm2BXM2YO8ePftL2rs2kWZHgRUpqcbPo8ASZ+gJgSUBU5Mh2qfHYPmI1hEtk20yWCMn7ClX0fuxDVi/T/vDacwfZ725mdGOAssMyvbtI+7yyxE87XRDE6xdtQolU7XXmntTElNgGTq9bB1ckytXHzMSCYHo94+MZmBvbn0DH21/35OfYRRY0cwUF57b4QaEN2838ijbCPXrPwNlG43sxbaxKbBsWxpTErtpYlvkC7zIK5IkP/6wEC8/vy2SU115DgWWeFkpsMQZUmBJYBgXALaOaYuUoHZf3FixtHRXFbo9tMGTP68psCRMVoeG8KWkIHnBg6ZkX7HwSVR+oP3A9t5BgeW9mteNOITTss7EWTo3jo+G2ubyTXh8zYMoqS6NppkrzqXAckUZ9Q0imAGlzytibz+MtOclt0Dd+GKkZ7vqPAosV5UzqsGc3LcZ/vin3Kja6DlZe/xx8tiVKCqSu3pMTy5WtKHAEqdOgSXOkAJLAsMreqbg4bMz4fdJCBZBiL/8awce/U7bRNRbq0QosCKYHC48RfH5kXTHnfDl5JgyutCWLSi58w6ou7X9hLx1UGB5q97aaLVbLikxqZjQ5VbpG7c3RvP9bW/hnW3vGHy7x361pMCyX02Mzqj+MXul081AmyuN7u6X+J+cA7XkZ/P6s0lPFFg2KYTJaWRmBzHqpgIkp0h6s2cT+a9eWYYFc9ZBezuh1w4KLPGKU2CJM6TAEmQY41OwZXQBmif4BSNF3vyLTRU4+/kt2FfhrdclU2BFPkfccqaiAsFf/xrBCy40dUjlc+eg+r/feEwRAxRYpk4zW3SmrRqe2m0Wgv54U4XShP/dgNqQtz7DKLBsMeXNT8IXAwxeaugWE0cMau93UL+4KLy60ksHBZaXql0/VgUDTk3H7/6ovZ3a2KdgDqb7+EMb8cO3RZ4DToElXnIKLHGGFFgiDFXgjtObY9zJxm3c3lh6N763C3O+2iuSvePaUmA5rmTiCft8SJo6Hf6CAvFY0URQgeIbRiO0a2c0rRx/LgWW40sY5QBU9Gp2PC7MH2ba6qv6BFcVrww/SlireucHNgVWlNPTDacrPndNoVEAACAASURBVCinvA4kdzR3NLUVwH//ArXwc3P7tbg3CiyLC2BB94mJAUy/uwMCAfPklTbMjesrcM/M1Z670UmBJT7JKbDEGVJgCTDslhmLH4bnmyn8D2RbEwohdtYageyd15QCy3k1E804btglCJ41RDSMrvbVP/2Esjtm6Wrr1EYUWE6tnJ68Vfjgx7guk5Aem64ngFAbbR+RhesexbJ9S8LvCfbCQYHlhSofOkal4DKg80RTV4YcyKCqEOoHJ1nTt0WlpsCyCLyF3U67uxPSUs17CubgoX728R688Iz2xm3vPEpIgSU+2SmwxBlSYOlkGPQreOY32fhtJ2Pf2NRoeirw1poy/Pr5Laj1yN9NCiydk9WhzQIFbZA4fYZl2asVFSi99x7ULl9mWQ5md0yBZTZx6/rT7lX3yxyIc3OHWpbEmpLVeHD1fCiquXfOrRowBZZV5C3qV/FDOfFvQLMTLLnRGR710unA+qc98/OaAsuiuW5Rtz17p+DPw1vC77fmM6SkuBbz71mDbVu1t8N746DAEq8zBZY4QwosnQxzkvxYd30BtD2wrDoqa1Sc98JWvL+2zKoUTO2XAstU3NZ2piiI//NliB10uqV51Gobuo8fa2kOZnZOgWUmbWv70lZdje88GYpi3WeYRuDDbe/i7W1vWgvDpN4psEwCbZdu2lwFdBpv4q48DQxcW4X15cVAqTdW7FNg2WXyG5+HzweMm9wOuXlB4zs7Sg9v/3Mn3nx9h6U5mNk5BZY4bQoscYYUWDoYxvoV7BjTFilx1n7x11J//ecyDH1xi45ROK8JBZbzaqYnY+2q8hW0RdK0aTB319uGsy1fcD+qvvxCz1Ac14YCy3El05WwX/Hhgvw/ope2MsTio6h6Hx5YORe7q/ZYnInx3VNgGc/YNj0kFgD93rVcEGtLr9S1jwMr7rANGiMTocAykq69Yvc+PgWXXd3KFknNnLIK27dV2iIXo5OgwBInTIElzpACSwfDGQPTMbGv+XuGNJSqto/IqHcLseDrfVBdvkicAkvHZHVok+TZc+DLyLRF9uqevSiZehtChbtcv88BBZYtppzhSaQEkjGuyxTEam9Hs8Hx9pY38OGOD2yQibEpUGAZy9c20RVA6XQLoO1/ZYcjVAn1vZ5AqMYO2RiaAwWWoXhtElxBaloMpt3Z3g73OMNMtm2txqxbf7YJH2PToMAS50uBJc6QAitKhrlJAbx3SR46t7DHF38t/Y1FtTjhsQ3YUVYb5WicdToFlrPqpTfb4LnnInjhH6197OKw5CteeRmV/3hF75Ac044CyzGl0pmotnG7D7d0nYbkmGSdMYxpNvOnySiqLnb1bRgKLGPmjr2iqkBSeyj9/mWjlxOoQNUeqIv7ASF379VDgWWvq8GIbHw+BRddmoOT+qRZv8Jx/wBVFXj5+a349+LdRgzZVjEpsMTLQYElzpACKxqGKvDAORm4pndqNK0MP1fbw/2m93Zhzld7De/Lyg4osKykb07fvubNkThxEpSMDNt8MdFGrpaXo+iaq4FQyBwQFvVCgWUReNO6VTEg83Sck3ueaT1G2tHGsvW47+fZrn5jGgVWpLPB2ecpff4BpB5rr0GotVB/vBnY/Kq98pKcDQWWZKA2DJeSHMAt09shPsGaNw82hkR7hPD221a5/WsiKLDELwoKLHGGFFhRMGyVHMD6UQVRtDD31Gb3rMW+CveuwqLAMnc+md2bAhUxp52B+MsvN7vriPpTd+9G8ZhRUF0ssSiwIpoKjjxJRQgp/hRc2e4a5Ma3tN0YQmoIr2x6EV8VfgHFVusv5aGiwJLH0q6RlNaXAl2m2DO9vT9C/fIPgOre74kUWPacerKy0l46Mmlme2TY6CmYg8f2wqKt+Ozf7l6FRYElPpspsMQZUmBFyDAYUPDmRbk4tSA+whbmn/bOqjIMed69G7pTYJk/p8zs0d8qH0mzbjezy6j6UmtrUXH//aj65j9RtXPSyRRYTqpWdLlqK3XPyhmCQVlnRtfQxLM3lm3AAz/PQa1LHySkwDJxMlnRVTATyolPAUntrOg9sj5XLYC6cm5k5zrwLAosBxYtipT79E/DRZfkRdHC/FPvmbkGG9aXm9+xST1SYImDpsASZ0iBFSHDs9sl4J8X5UZ4tjWn1YRUXPH6DixaUmxNAgb3SoFlMGArw/t8SBx3MwJdu1qZRZN91y5bipI7ZgEhTQe476DAcl9N60akIs4XxLTud9l+gE+seRjLi5bZPk89CVJg6aHmoDbZg6H0WmD7hNX3jwOqi2yfp54EKbD0UHNGm4QEP66+rjXatrPvQgKN5Kcf7cZLz22Fti+WGw8KLPGqUmCJM6TAipDh98Pz0T0rNsKzrTvtw7VlGPzsFlf+vqbAsm5eGd1zoFMXJIwdCyXW/tdY+VNPour9941GYkl8CixLsBveqV/x4bI2w9ExpbPhfYl2oH3pv2f5TOys3OG6/bAosERnh33bKwmtgQEO+VzY/Arw4y1QVfe9lZACy77XiGhmp57eAr+5IEs0jOHta2pU3HHbauzYUWl4X1Z0QIElTp0CS5yhZwSW9ty0ZnVUJXpoj5+Xict7pETf0KIWv3pyI77aXAVtTyE3HRRYNq+m9urwEMLXmDbzornUUh9+BEhItPkA69LT9sAqvvIKqDXVjsg3miQpsKKhZfa5IdS9Q7Du+ormaJfUHsPbjXTM3lKf7PwIb2z+R5R/RaIhYs25FFjWcI+81/pPrvorLIpPsRMeg9JiQORdWXmmGgIW94daud3KLAzpmwLLEKyWB9WuyPkPd4X2U84JR02tihtGaCuJo/20tv/oKLDEa0SBJc7QEwIrKdaPy3ok47b+zZAc68PMz/Zgwdf7UFje9EaWnVrE4v1huchNDkigbV6INvetw/p97rq7RoFl3vyJtidfy1aIO38oYk48EbUbN6Lilb+j5ttvIwijIHjWWYgbdkkE59rnlOrFH6J84ZOu29CdAss+c+yQTBQVJ6SfhDOyz0JSIAVfFX6Oj7Z/gH3V2ptnm/5GP7LdKBQktbHp4I5MqzpUjXuXz8Luqj2OyTmSRCmwIqFk0TnaCqqCP0PJ/yNQuRvqituBre8AagQ3KtJ6QznhCSDgjJswGmF130/A50Mtgm1ctxRYxrEVjXzcianof2o62rRNwIplJXjxua3Yub2qybCKD7jqmlbopi0kaPrjrsl4Zp3w4jNb8enH7tvQnQJLfAZRYIkzdL/AUhWMOikV957RAr79f/i07WsufW07notgr6ipA9IxuV+6BNLmhrjz8z2Y8GGhuZ0a3BsFlsGABcInz5kHpXlzhFc6akdlFYquGQ615ugS1Zebi8Txt8CXnibQu/lN1aoqFN84BupeTSC456DAsl8ttfu3iYEETO4yDX7fLzdSlhcthbZf1NG/0as4J/d8DMg8zX4DayKjouoizFwyRdeqabsOlgLLrpUB0PEmKG2v/uV6CtVA/fZqYOcnTSatDFgMNaGlk35b1y0MWX0f1JXzmxyfk06gwLJntfJaxuHaMQVISvaHE1RVFWWlIUy4YUWTq5TatU/AyDEFCAQcZK8A7NxRhfvuXY+9e5qWdPasWsNZUWCJV4sCS5yh6wVWrF/Bmr+2Rm7SkSuo2t6/Duv2Nv4Du3tmLL6/Ol8CZfNDFFWE0O2RjdhQVO2sL1VHQUWBZf48iqTH4LnnIe6CC3H42u6alStROmsGcBSJFXfhHxE899xIurHdOTVLf0LZrFmu+oFNgWW7aYY4fxATutyGeP+hG9fWqDX425rHsax4aaMSq1lsM1zT7q9oFuu8mzDaD5wXNzyDb/Z87ZhHH5uaPRRYTRGy6N9TukA55bUjOy9ZAfWTc44qiZXc3wDayxGc9du6bqz7foT6zRVAlXtuxFBgWXQNNdHtby/MwcBBR34Ovfn6Trz9T22/w8aPv1zXGl27J9lzYE1k9erft+HDd921mIACS3wqUmCJM3S9wPr3n1qhb36wQVKvryjF0Je2NkJRwfdX56F7ZpwEytaE+H5bJXo/thlAyJoEJPdKgSUZqHA4FfAHkDLvPiipqUdGq6pC6Zx7ULPkpwZ7UoJxSHnoYSDgrMdzDx5M+TOLUPX2W8Ik7RKAAssulajPI4STW/TD0Ja/b1Di7KrchbuWTQPCO2MdeqgI4bTM0zEk99d2G1TE+Wwr34LHVj+AopqSiNvY+UQKLPtVR/NO6oD3oCQUNJzcxuehLpnc8GdYfEvgpGeAeHu/ofqo1JfNgrruSfsVRmdGFFg6wRnYLBin4I45neH3H2l5y8pq8cDcddiwrqLBDAad2QLn/87+G7c3hi8UUjFl3M8oKnLPli4UWOIXCwWWOENXC6yT8uLwxeUtG6VUXqPiNy9uxbtryo445y+9U7HgrIy6xw6deGdt/4jOe34r/rWqVMJMsT4EBZb1NTg8g+AllyJ45lmNXiK1P69AyXTtB/ZhR0wMUu6ZDSXdeStDDh5JzfLlKJ19L1B+5N8Q+1Wr6YwosJpmZOYZPkXB2E4T0TyY0WC32iql1za/jM93aY85HfxBpSI1Ng23dJlqZrqG9PXihmfxze6vnP1BvJ8MBZYhU0QoqFJwGdDplsa/51XuAr68EGrZhiP6UY4ZCXQYI9S/LRp/fCrUsk22SEU0CQosUYJy28fEKJh+V0ckJNY9OtjQoa1Q0lYqHX4kJwcwenwbZGTa/+3UR6O2emUpHpi7HtXV7tjQnQJL/BqhwBJn6FqBFR9Q8NLvc3B2u4SjUvrv1kqc+PgmqIe9KWL5iNbo0DxGAmFrQ3y9pQpnP78JhWXOX4VFgWXtXDq8d3+Pnki88aZf9r1qKD0VqHj9NVT+/cWD/lVBzK9ORvxfroESaPxLjb1G23g25Y89iqqPP3JKukfNkwLLXmUcVvAn9EjrfdSkSmpK8MiqBdhW8ctqYk1ljWh/PQoS29prQDqyqQ3VYtrSW1BeU+54iUWBpWMCGNlECUDp/w6Q0PhWEZokVtYvhLps1qGZaG3P+BY47NFeI9M1Inb4vYvb3ob63V+NCG96TAos05EftcNf9UnDRX/Kha9+E+IGztZWKd1288/Ye9iWLgNOS8dvL8px8hqC8GirqmqxYM4GrF3tjhudFFji1xgFljhD1wqsk1rG4Ys/t2x69ZSq4qJ/7MBLPxUf2MtmzK/ScO/pLSTQtUeIoS9uxes/O38VFgWWPeZTOAu/H/HDhyP2lH5NJhXaXYiSKZOBffsOaOLkGbPga926ybZOOaFo5DVQi4udkm6jeVJg2aWEKjLjsnFTpwkRJfTe1jfx3vZ3D5x7fPqJ+H2ri+DTXt/kgmNNyUo8uvpB1KrOvhFDgWWvyRjNCip1cX9gvyRWlADU/u9DSciz14D0ZqPWQv1mOBBeyensgwLLPvXz+YDxk9shJ6/hbVwOzrS8rBaTxq1AdVXdKiVtxdYdczrZZzCCmezYUYmZk1YfsVhCMKwlzSmwxLFTYIkzdKXA8isKto0pQPOEyFZ3bCutxYCnNmHV7hocnxvE55e1hN8d3/vDM6S0OoSc2etQUu3sL/8UWBIueAkhtNUdvoICJE2dDmjfUCI4Kl97FRV/fyl8ppM3bm9sqFWfforyhx9q8m06EaCy9BQKLEvxhztXtK3l/H78Mf9P6JbWI6KEatVazFgyGaW12o0KFaM6jEVeQquI2jrhpIra8rDA2lS24bC10k7I/pccKbDsUi8VaHYClF89F3FCaslKILyhuwol6wygxxzA3/QP84g7sPrEvd9B/eICq7MQ7p8CSxihtABD/5CN085oHlG8UAh4/m9b8OVn2gsFVIy4vgCdj02MqK1TTnrrjR14642dTkm30TwpsMRLSIElztB1Akv7cb3w11m4tHtyVHRueG8X5n21F/eekYHRJzWwIXVU0ex38odryzH42c34/5W6jj0osOxROiUQQMqTT0WdTNHVV0GJiUXy/Pug+nxHf/Qw6ujWNdAeMUFtLUrvvgu1SxvesN667KLrmQIrOl7GnB1CVjAHN3aObPVVfQ6VNeW49aeJ6JbaA8O0fX1cdmwt34w5K+5scMN6pwyVAsselVIVH3xdpwKtLooiIRVYcRfUNY8BJz0LJf2EKNo65NSfpkLdsMghyTacJgWWPcqXmhrA9Ls7RpXMnt01mHbLCvQ6LhXDLs8L3x9VFAdvQnzQ6LXviYW7ajDv7rXYt7c6Ki52O5kCS7wiFFjiDF0nsPJTY/DRpXkoSIvuzWZl1Sr6PLkRX1/VCjFHeVZbAnJLQuwsDYUF1g/bqxy7SoQCy5Kpc0SncUN/i+Dvfhd1MqG1a1C7YQNiBgyMuq0TGlT/7weU332ndn/eCek2mCMFlvWlU6BiQpepSItNiyqZkBrC4h3v4dTMwdA2f3fj8eqml/D5rs8cOzQKLHuUTknqAJzyGuCL7nsi9i0Btv4L6DTeHgORnUXFVqj/+RNQuk52ZNPiUWCZhrrRjrS3DWoC6vgTo18M8ME7O5HfOgHtO7lr9VU9rA/eKcRrLx+5Yb31VYs8AwqsyFk1diYFljhD1wmsJ87LwmU9olt9JQGjI0J8vL4Mpz69te4ZFQceFFjWFk1RFSg5WUiachuUZF5jDVWjbP58VH+tvTHNmQcFltV1U/G7VhfgpOYnO3qlkVEUd1Zsx/0rZ6O8ttKoLgyNS4FlKN6IgytDVkZ8rtdOVH8cD2x6xbHDpsCyvnSpaYHwmwd5NEzg+qudvVKfAkt8ZlNgiTN0lcAa3DYRb1+cs3+FkTvvQIuUXFvC+sdXd+DFn5y52TQFlkj1ZbRVEHfppQgOPlNGMFfGCO3cidKZMxAq3OXI8VFgWVu21JgUXN3uWmQEs6xNxMa9v7ftbWj/ceJBgWV91ZSCK4AoH8+1PmsTM9BelLC4L9RKZ+7VQ4Fl4lxpqCsFmHhbO2TnuGh/OMlIN2+qxN0zVkN7+6ITDwos8apRYIkzdI3ACvgUvPXHXAxqEy+BintDLNlRiT5Pbnbkhu4UWNbOS39eHpLuuMvaJOzeu6qi7KEHUP3553bPtMH8KLCsLdu5ueejf+ap1iZh895r1BpM/OEGqPA57mFdCiyLJ1d8SygnPQvEazc6eTREQLvRqZSuhPrJ2dorJRwHiQLL2pIN/X0WThvsnre4G0IzBDy3aAu++HSPIeGNDkqBJU6YAkucoSsElgIFF3VNxKKh2XDp1h8SKv1LiHEfFOKeL5z3h5MCS+o0iCqYEh+PxHET4G93TFTtvHiyWlON4uuuhVqqvRHOWQcFlnX1yk/Ix3UdxjjyR6PZ1NaWrsVDK+c57o2EFFhmz5SD+1OhHHMd0GG0lUk4o+9QJdTvRwPb33dGvgdlSYFlXcmSkwMYMbo1WraKsy4Jh/S86udSzL/HmXvNUWCJTzIKLHGGrhBYGoZtY9ogM9EvgYj7Q+yrCKHZ3WsdtxcWBZZ1czPQqTMSx08AArzGIqlC7cqVKJl2WySn2uocCixryqGtJbq87dXomNLZmgQc1mutWosXNzyL7/b811GZU2BZWK74PGDgh1DgszAJB3VdvBLqp9oqLGcdFFhW1UvB4LMzcO7QDKsScFy/b76+A2//03mP6lJgiU81Cixxhq4QWAvOysCI46N/24UEfI4N8d6aMpz17FaoDrqHTYFl0XTz+5Ey/34oKSkWJeC8btXKKlTMn4uq//3gqOQpsKwp17Fp3XFp6yu4gjgK/EuLlmDhmseiaGH9qRRYFtXAHw/lhIVAs94WJeDMbkPfXQdl2zuOSp4Cy5pyZWYHMWlaO2s6d2ivoVoV0yevRuEuZ72UhAJLfMJRYIkzdLzA6tsqHq9fmIO0ON5Vi2Y6VNQAF7+yDa/+XBJNM0vPpcCyBn/ClcMRM3CgNZ07uNfalT+jZNpUR42AAsv8cqkI4ebOU9A8yH1DoqX/yoYX8OXuL6JtZtn5FFjWoFeaHQdoAsvPR5uiqYCq1gAfnwGUb4qmmaXnUmCZj1/buuXKEfno3pNvp46W/ofvFuK1l7dBddB+7hRY0Vb5yPMpsMQZOl5g3TWoBW46OU0CCe+FeGZJMS59dbtjBk6BZW6ptO1blbxcJN08EUpaM3M7d0lvJTOmo3bFcseMhgLL7FKFMCTnfJyaOciJ+yWbDeuI/kJqCDN+moySGmfsN0eBZcGUURQoAxYD2iOEPKIiEN7QfcMzUJdOBxCKqq1VJ1NgmU1eQdduiRh+XT583IQ4aviat5o2cRUKd1UBDnkihgIr6jIf0YACS5yhowVWn5Zx+PSylhIoeDWEigte3o6/L3PGKiwKLPPnacLwqxHTf4D5HbukR7W6GsVjRkHdt88RI6LAMrdMLRNa4Yq2f0FSIMncjl3U24fb38Xb2/61/7u/vd+aRoFl/sRTOo4D2g43v2NX9KgCNSVQFw8AaoodMSIKLPPLNG7SMWiZz9WNeslvXF+Bu2eu1tvc9HYUWOLIKbDEGTpWYMUHFKy6rjVykgISKHg3RG2timb3rkVJlf3vrlFgmTtPldRUpNz/gLmduqw37e5a1VtvouK55wDV/tcYBZa5E/DUrEEYknOeuZ26rjcV03+ajKLqIttv0E2BZfLki28J5aRFXH0liF2t3AUsPsURn2EUWILFjrL56We1wHm/yYTC1VdRkjv09Fde2IqPPtgtFMOsxhRY4qQpsMQZOlZgXdEzBQ+dnYGAz953XCWUyPAQt328B9M/KbT94lUKLMOnwoEOlJgYJN5+J/xZWeZ16tKe1KIiFN94A9SKctuPkALLvBLlxOVgdKfx4CeYOPNVxT/jkdX3///DGPbeC5MCS7zW0URQOk8CCv4cTROe2xiBH2+Guull2/OhwDKvRNk5cbh2TGukpnEhgSj1LZsqcN/s9SgtqRENZXh7CixxxBRY4gwdKbC0L/ylNx+DuAC/+kuYAqgNqcicvRZ7Kuy9QoQCS0a1I4sRe+YQxF9ySWQn86wmCYR27UTxmNFNnmf1CRRY5lRAu1l9S5epSInh23NlEX95wwv4avfn2s59skJKj0OBJR1p4wGVAJSzlpnYocu72vMN8M3VUG3+KCEFlnnzsO+AdFwwLMe8Dl3e06MLNuDHH7QtXey9ozsFlvhEpMASZ+hAgaVg9uB0jD6Rm0pLKP+BEM8tKcYwm2/oToEls+JHj5U883b48vPN69DtPalA2fy5qP7ma1uPlALLhPIoQK+043Bh/sXwKX4TOvRGF+tL1+GJNQ+ivNa+rySnwDJpLioxUPq+DiS1M6lDj3SzbCbUdQttPVgKLHPKk948FrfNagfw0UGpwGdOWYXt2+z7GaYNlgJLvOQUWOIMHSewtI3bP/5zS/jte5NVQlWsCXHhK9vw0lL7buhOgWXGvFCQOGIEAn1OMaMzT/VRs2QJyubNgVpRYdtxU2CZUZoQbu06C4kx3LhdJm0VKh5evQBrilfJDCs1FgWWVJyNBlPyhwFdbuWPa9m4Q7VQ3+1i672wKLBkF73heJNntEdGZqw5nXmol+++KcKTj2y09YgpsMTLQ4ElztBRAivGp2DR0Cz8oQu/+Eso/WEhVCxeV46hL21HcWWt/PASIlJgSYDYRAhfQQGSp84AuLecIbDLH3oQVZ99akhsGUEpsGRQbCxG3WMBp2aegSG55xrZkXdjq8CMpbeiqNqeb/2kwDJ+aobvbZ78IpDWy/jOvNjD9nehfnc9oNrzeyIFlrGTUru+ehyXjD9d2QoBbuMiHXZlZQj33bsOG9bZd89UCizxslNgiTN0kMBSkZkYwKZRBdy4XULdGwoRUoE+T27Cf7bYc4UIBZZBha8P61MQd+llCJ5+usEdeTe8WlmJoquusC0ACixjS5Mbl4PrO46FT7H3ZuPGUjA2+n8L/4MXNj5jy72wKLCMrb0WXe18M3wFVxrfkVd7qC2H+tXFwL4ltiRAgWV8WSZNb4fMrKDxHXm0h8JdVZg6UVtJbM+9sCiwxCcmBZY4Q2cILBVIjPVhz9i2CPB7v4SqNx5CVbUN3dehsNx+d9cosAwtPQIFbZA4fYaxnTA6qr/8AmUPLgA0Y2yzgwLLuIL44MMf8i/CceknGtcJI6OithwPrbofW8o3244GBZaxJVESC4B+bwEK34pmJGl116fA15cb2YXu2BRYutFF1PCEX6Xi0ivybHmDIKIBOOAk7Zvhoic24+sv99oyWwos8bJQYIkzdITA0pasTu6XjtsGpEsYMUM0ReCBb/bhurd3NnWa6f9OgWUs8qR58+FPb25sJ4wOtawUJTNnIrRhve1oUGAZUxLtC+n/tXcfcHLU9f/H37N7PXdJLr0XitRAQH6o9F6kd0GKBStI8SeCCkrvIIj0oiCgiCAqVWqCFAk9CZDeLu1S7pLrZXd+v9nL5cru3u3tlOzk+5rH4///+SAz3/L8zN7uvnfmO6XRYv1qhyuVF8n3pxNa3SiwpH6R7pj925wTIcDysyQRWdv9QprwLT87oW1HwPmDNusm2QvuyzkPAiz/SjJ0WKF+deWWirDEhH/IG1pevapZd966SGvWNPveV187IMDqq1jy/gRY7g1DEWAN7xfV1LNGa+tBLBjoQcl7bWJ1fUwH/mmppq9uzanFOgmwei1d1jsUHn+Sio47NuvjObBvAi3vvKP6u37ft4MC2JsAyx/kqBXRFTtep4Iot134I9y1VduWHpp/j2bVfBFEdxn3QYCVMVXfd+w3XtY+r/T9OI7ISsCumS29d4bUvCanrsYhwMqqnL0e5Nz1ftI3Rmqv/biQoFcsj3Z4+q8r9MYrzusrtzYCLPf1IMBybxiKAOuPRw3XmTuXeTBbmshU4JlZdTr+yeWZ7h7IfgRY/jBHBgxUv99crsjQof50QKspBervuF0t772XUzoEWP6UY++h++uo0cf40zitphRY2bg8cSthXWtdzggRYPlXCmuvf0ll2/rXAS13E7ClTy9RfOnfqKmeHAAAIABJREFUZeXQWj0EWP6cqMUlUV1x/dYqKor60wGtJgm0tMT1s3M/l/ODTC5tBFjuq0GA5d4w5wOsiQPzNe/c8R7MlCb6KlB6w3zVt8T7ephv+xNg+UNbeOhhKjr9DH8ap9W0ArE5c1R71RXKpU8nBFjen7D98vrpB1udqxFFI71vnBZ7FHh4wQOamUOLTRNg+XTCbvF9aZuLlHgCIVtwAvFm6cUdZOcQPAGW9+WPRKRrbt5W/UoJr7zX7bnFTz6s0YP3LA662x77I8ByXw4CLPeGOR1g9cuP6B8nj9QBE4s9mClN9FXg6jer9OspuXP5KgFWXyvY+/7RrbZW6W8u731H9vBcIF5Zqbrrr1N8VaXnbWfbIAFWtnLpj/v6qKO137ADvG+YFnsVeH75v/TGyld73S+oHQiwfJAuGCRr90elsq19aJwmexOwX9ldaqnqbbfA/p0Ay3vqPfYu1zfOGOV9w7TYq8CqymZddemcXvcLcgcCLPfaBFjuDXM2wHKumDxgfIlePcP51TqHft7xwDwsTby1pFF7P1yRM8MlwPK4FJGI+l3wU+VN3oWXmMe0mTRnx+Oq/+0tav3440x2D2QfAiwvmW2VRIt1+aTrvWyUtvogsKR+se6YfWsfjvB3VwIs732tkUdKk3NvwX7vZ5qjLU6/THbFX3JmcARY3paipCSqH54/XhO4kMBb2Axbq6pq0U1Xz1dtTWuGR/i/GwGWe2MCLPeGORtgOVP74kfj9aXBPLHJgzL3uQnbtvV2RRMBVp/luh7Q8s7bqr/rrg2P7XHZmMeH5227nfpdfImUxyPHPabNuLm6236r1g/ez3h/v3ckwPJK2Fa+la8zJ35X2/TfzqtGaaePArWtNbpyxmV9PMq/3QmwPLYt+5KsvZ7zuFGa65PA/Ptkz7qpT4f4uTMBlre6Bx06REefMNzbRmktY4Ga9a26/aaFqlzZlPExfu9IgOVemADLvWHOBliPHjdcp+3Awu0elDjrJrgCK2u6jQfmcoBV9sCDihQWuZ8kLWQnEI+p7re3cgVWdnobj7pt1k1a1rDUZSteHx7X+H4T9eOtL5DFFcRe42bc3pKGxbpjFldgZQyWakdbsl/MzdvzrF1+L4041NX0ONilwPRLZVc84bIR7w4nwPLOMi9q6ZY7t5fzBEK2TSNQ7VyBdc18OUFWrmwEWO4rQYDl3jAnA6xtBhXopW+O0rgBXBniQYmzbuKa/1TpsjdYAytrQEm5GmAVHXm0Ck85xc3UONalQGxVpeqdNbAqWQPLDWWuBljnfekijSkZ62ZqHOtSgDWwXAI6h+dqgDVwF1m7PyJF+RHGgypn2YQtvbK77JbqLI/3/jACLG9Mo1Hpuz8cpx15Arw3oFm2whpYWcLl+GEEWB4UKHL1XA9a8bIJWzccOFQXfW2gl43SVp8FbLU9hTB3nt/KGlh9LmLSAc5qctaYMSr9+SWyysvdN0gLWQvE58xRDU8hzNqv/cDcC7BsHTv6BO0xdB/Xc6MBdwIPL7hfM9fNdNeIh0dzC6E3mLZlK7LfW1IRtzZ5I5plK3aL7Be3z/Jgfw4jwPLGddyEYp1/0QTl53P5lTei2bUy/ZMa3X8nTyHMTi93jyLA8qA2ORVg2dKXRxVq2nf51dqD0rpq4tk59Tr6iWWu2vD6YAIsb0SLTjxJhccc601jtJK1QMPdd6r57bezPt6PA1kDy71qecFAfW/LczSkcKj7xmgha4HKxpW6Z+4dqm2tzboNrw8kwPJIdOzJsna8xqPGaCZrgRmXyl7iLOCeOw9aIsDKupqdDrR03s/Ga6sv9fOiMdrIUiDWaut/z/1c8XjuXEjgTIVbCLMsaOdXmO2sNM3mSiCnAixJ084eqy+PKHQ1Jw52J7CyNq6DHluqmasac+qDCQGWu7omjs4v0IAHHpAiUQ8ao4lsBVr+86bq7707p15fzlwIsLKtaMdxew3dV0ePPs59Q7SQtYDz0fDB+Xdrds0XknLnCgICrKxL2nFg8ShZuz8slUzwoDGayFbArpklvXe61Jw7tw86cyHAyraiHcftf/AQHXviMFlW7gST7mcVvhaefmK53nh1bc4NnADLfUm4Asu9YU6tgTVhQJ7e+vZYjSzly7UHpc2qCSfov2LqWl31Zu790STAyqqkXQ4qPPYYFZ1wsvuGaCFrgfiKFaq7+QbFV+bO2lftkyHAyrqsGw+8ZLtLNahwiPuGaCErgVa7Ve+seUv/qng65wJiAqysStrlIGv4wdKuzpN92TaZQOMK2R/9RKr+eJMNIV3HBFjuS3LBzydoi624+sq9ZPYtfDhtnR5/eJmam+PZN+LTkQRY7mEJsNwb5lSAVZJvafr3x2pieYEHM6OJvgg4v1hXNUrnv1Spx2bU9OXQwPYlwHJPHZ0wUaVXXe2+IVrou4AtxWZ9ofqH/6B4RUXfjw/gCAIs98injj9du5Tv5r4hWshK4Pll/9Tbq/+j5rjz2PHcuoKAACurknY9aOBkWbvdL+WzTqoHmhk34dzukng11cyRPf3n0roZGR8b5I4EWO61v/X90dp1N15f7iWza+Hfz63Sq/9erYaG3AuvnBkRYGVX185HEWC5N8ypAMt53M1V+w7RubsP0IDC3Lns3wPmnG3C+VCyrKZVVQ1x7fVwhdY3xXLuQ387HgGWN6dR2VXXKDJunBThNeaNaC+ttDQrvnq1Wt5+R03/+Lty+c53Aiz3Z8RWpVvp9AnfUUleifvGaCEjgbrWOq1tXqNHFjygdYknoiUeV5HRsUHuRIDljba1883SyCMkiydVeyPaSyt2XHbjclnV02V//BNZzpMpc+/llZgEAZY3Z8Tl122tQYMKcvHPqDcTzLFWGhvjWlfdon+/sFrT3smt23K7UxFguT95CLDcG+ZYgNU2oX3GFWuL8nwPZkcTPQk4nz+cAGvKogYtqG7JeSwCLG9KZJWWKm/SJCmf15g3oqlbaf98b9fUqOXTT6WYEw7n9kaA5UV9bI0rmaBhiSeksUynF6Ip20i8gbW9ypY3LtfSeudJTTn6rXrDBAiwvDobbFlOgBUt9qpB2kkl0H7ZVTwmrXlLdtOqnHciwPKmRKVlUW2/YxnrYHnD2UsrtqrWtmjenHrFYrn/mYEAy/1JQYDl3jAnAywPpkUTm6EAAdZmWFSmlFMCBFg5VQ4Gs5kJEGBtZgVlOjknQICVcyVhQJuZAAGW+4ISYLk3JMDywJAmghEgwArGmV7MFSDAMrf2zNx/AQIs/43pwWwBAiyz68/s/RcgwHJvTIDl3pAAywNDmghGgAArGGd6MVeAAMvc2jNz/wUIsPw3pgezBQiwzK4/s/dfgADLvTEBlntDAiwPDGkiGAECrGCc6cVcAQIsc2vPzP0XIMDy35gezBYgwDK7/szefwECLPfGBFjuDQmwPDCkiWAECLCCcaYXcwUIsMytPTP3X4AAy39jejBbgADL7Poze/8FCLDcGxNguTckwPLAkCaCESDACsaZXswVIMAyt/bM3H8BAiz/jenBbAECLLPrz+z9FyDAcm9MgOXekADLA0OaCEaAACsYZ3oxV4AAy9zaM3P/BQiw/DemB7MFCLDMrj+z91+AAMu9MQGWe0MCLA8MaSIYAQKsYJzpxVwBAixza8/M/RcgwPLfmB7MFiDAMrv+zN5/AQIs98YEWO4NCbA8MKSJYAQIsIJxphdzBQiwzK09M/dfgADLf2N6MFuAAMvs+jN7/wUIsNwbE2C5NyTA8sCQJoIRIMAKxplezBUgwDK39szcfwECLP+N6cFsAQIss+vP7P0XIMByb0yA5d6QAMsDQ5oIRoAAKxhnejFXgADL3Nozc/8FCLD8N6YHswUIsMyuP7P3X4AAy70xAZZ7QwIsDwxpIhgBAqxgnOnFXAECLHNrz8z9FyDA8t+YHswWIMAyu/7M3n8BAiz3xgRY7g0JsDwwpIlgBAiwgnGmF3MFCLDMrT0z91+AAMt/Y3owW4AAy+z6M3v/BQiw3BsTYLk3JMDywJAmghEgwArGmV7MFSDAMrf2zNx/AQIs/43pwWwBAiyz68/s/RcgwHJvTIDl3pAAywNDmghGgAArGGd6MVeAAMvc2jNz/wUIsPw3pgezBQiwzK4/s/dfgADLvTEBlntDAiwPDGkiGAECrGCc6cVcAQIsc2vPzP0XIMDy35gezBYgwDK7/szefwECLPfGBFjuDQmwPDCkiWAECLCCcaYXcwUIsMytPTP3X4AAy39jejBbgADL7Poze/8FCLDcGxNguTckwPLAkCaCESDACsaZXswVIMAyt/bM3H8BAiz/jenBbAECLLPrz+z9FyDAcm9MgOXekADLA0OaCEaAACsYZ3oxV4AAy9zaM3P/BQiw/DemB7MFCLDMrj+z91+AAMu9MQGWe0MCLA8MaSIYAQKsYJzpxVwBAixza8/M/RcgwPLfmB7MFiDAMrv+zN5/AQIs98YEWO4NCbA8MKSJYAQIsIJxphdzBQiwzK09M/dfgADLf2N6MFuAAMvs+jN7/wUIsNwbE2C5NyTA8sCQJoIRIMAKxplezBUgwDK39szcfwECLP+N6cFsAQIss+vP7P0XIMByb0yA5d6QAMsDQ5oIRoAAKxhnejFXgADL3Nozc/8FCLD8N6YHswUIsMyuP7P3X4AAy70xAZZ7QwIsDwxpIhgBAqxgnOnFXAECLHNrz8z9FyDA8t+YHswWIMAyu/7M3n8BAiz3xgRY7g0JsDwwpIlgBAiwgnGmF3MFCLDMrT0z91+AAMt/Y3owW4AAy+z6M3v/BQiw3BsTYLk3JMDywJAmghEgwArGmV7MFSDAMrf2zNx/AQIs/43pwWwBAiyz68/s/RcgwHJvTIDl3pAAywNDmghGgAArGGd6MVeAAMvc2jNz/wUIsPw3pgezBQiwzK4/s/dfgADLvTEBlntDAiwPDHOvCVuSlXvDcjkiAiyXgBzukYDz2nJeY5vfRoC1+dW0bUY9na+b33tFrlaRACtXK8O4NhcBAqzNpZLMI1cFCLDcV4YAy70hAZYHhpuyickjivST3QboK6MLVZxvqbI2rr9+XqP7P1yv2pb4phya530TYHlOSoO9CEQGlqvwsMMU3XmyrMJCybYVW7JYzc89q9icebK1eb3GCLA2v5eEZUv/M+SrmjxwVw0qHCxbthbVLdBbq97U4oaFsuzI5jfpHJ0RAVaOFqbTsKxIkVRQntFA7ViDrJbqxLtARjFwpEhWb23HmqSWNbIzazFpnHa0UJH8QRmNv/tOduPyrI7LpYMIsHKpGunHYkUs7bJLmfY9cLD6D8zbuGNDY0z/fWu93pqyRq2t4fqhcNToQh14yFBN2LJYkUhETY2tmv5xraa8tka1ta3hKEwGoyTAygCpl10IsNwbbtYBVjRi6fMfjtNWg/IzknL+VNq29NK8ev3xk/V6eUGDqhudPzrJH02K8yJ64oQROnLrko62bVu/eG2tbnynKu3v3fuOK9Yrp49WtNN3Btu29YPnVumBj9dnNM6DJhbrm5PKdNZO/Xvcv7ZZ+tkrq/TcnDotrQn/H08CrIxOj5zeKTJylEqvu15WNLpxnM753/L662r444NJF4qUXXOdIuPG9WlOscWL1Pzii2qdOVPxtWv6dKyzc2TESOXvtJOKTj1Nyuv4YJWqoea331LL22+r9ZOP+9xPLh5AgJWLVen7mAbmD9TofmN0+IijNKxoePoGbOnT6o/0SfVH+mz9DMXsngJZW1Erqgu2uUjDi0Z2ef0url+oB+ffo0bny3diS7yb6sJtLtbI4tF9n8CG9+LbZl2v5Y0rsjo+Fw8iwMrFqnSMyRqyh+z/ebjv0VFzlex5d0qVU6T6hSknaY06RtrpBsnqeO9Lp5H42m7bshY8IHvN29Lq/2QEZxWPlb3fa30ff/urtm6RrHdPkd3c9/fNjAYYwE4EWAEgu+hi+x1Ltc8Bg+X83962mvWteu4fq7R4Ub0qFjem3f2SK7bSqJGFXd6T6uviuv+uxZo/t77HbnaaXKazf5z8GfPFZ1fp+X9W9jZEbbdDmXbetUxf22ugLCt9jN3cHNczT67Q7C/qVLmyudd2c3kHAiz31SHAcm+4WQdY4wfka8FPxmetNL2yUb+ZUq1nZtUmtTGqLE+Lz5ugSIq/V9e/VaVfvp76A8DV+w3WL/dK/nXvlfkNOuTxpWnG2nbL0tB+UT14xDAdMLFYJfmZ/2o+Z22LHp9Rq8unrpUV4lufCLCyPpVz5sDC409Q0XHHJ42nddYXqrvheqmlpcu/uQlU4itXqOmlF9Xy8ssZnPXOayyu4m+frbyddlJkyJDMzVpa1fLBNDX86RHZ6zMLoTNvPNg93XgHO9KO3m6bdZOWNaT727mpRrXp+t2+/w46cvSxGlw4RFbGX2Vtza6ZpScWPaaa1pq0gx9YMFCXbPdrRayu7z/N8SbdP/duLdr45d1WUbRIV066wRXEtLXv6snFf3HVRi4dTICVS9VIHou1843SqOOyH2T9EtkzfiF77buy7K4fDq2xp0g7Xt33tuNNUuUb0mdXyW5a2ePx1rjTpR1+0/c+2o9oWSe9/z3Z1R9l38YmPpIAaxMXIE33+fmWzjx7jHaYVKq8vMy/vzjNOUHW1Ner9NJzqQIlSzfcto2KS5KDYSe8uu3GBWlBCgoi+tkvt9CIUR3hV/vOTl9OeJZu69cvquNPGaFdvjxAefkZXX+ZaKpqbYtmTq/RXx9zfpgJ1xVm7RYEWO5fYwRY7g036wBrq/ICzT6nb1dvdCddWRvTwY8v14zKrun/6LI8LTl/QsoKLF3fqkMeX6bPVyen7OkDrPrEMem2ycML9dRJIzRxYL6cK1Z6SvrTtXHRK6v12/9WKx7Ov5kiwPLgBb+Jmyg66WQVHn1M0ihis2ep9obrpGbvAqxEJy0tqrv5RrV+9lnPH/yjeSr6xjdUcNjhfRZqfz3Gq9aq7qYbFV+ypM9t5MoBBFi5Uom+jKPtD7oTKh0x8ljtNXRvWd0Cpr60dssX12plo/NFOflD+aCCQfr5dpcmBVit8RbdP+9uLaibv6ErWyXREl0+6bq+dJ2070dVH+jPi/7kqo1cOpgAK5eqkTwWa/LN0sjk96c+jbppjewpB0ixrld+ZB1gtXfeWiv99zRp/edpv/Za48+Utr+sT8PtsnMiwPq+7OoPs29jEx9JgLWJC5Cie+fCpNPOGq2v7DEg05ttu7TS/hnrFxd8obr6WFIPhx81RIcflfpK45+d+5mam1N/6Zm0c5m+/YOxysvr+l7n3Inz10eX6a03q1JijhpdpB+dP04DXHwfm/r6Gv3tz+G8upgAy/1rjADLvSEBVgaGHyxv0v882PVLaU8BltPkOxWN2uuPSxPrjXTesgmwDt6iRH8+brgGFfd+6Xlv07ntv9X66cure9stJ/+dACsny9KnQQUeYDnXVa2sVM3PLkw/zkhEJT85X/m77danuaTaObZ4sWqvvEJqSn+5u+tOfGyAAMtHXN+abnuPOW3Cmdp5wK5Z/bjReWhrm9fq/rl3ak2K24gIsNwVkQDLnZ/fR3sSYDkvx5UvSR+d2+XTn9sAy/ksabWslz74keyqaSkpCLAkAiy/XyV9b/+ss0fry7sP7PuBnY5oqI/rlz/9QrEUv8BHLEu33bt9yvanvr5Wf/tz6rXd9j94sI47aUTScXW1MV1/xTytW9f1B1Vnx7Hji/SDcyeo/wD338emvVOtP/0hfFePE2C5OpUTBxNguTckwMrQ8MBHl+n1hR2/qPUWYDnN/n7aOl3w0mrFO32M6WuAlRex9MaZo7XHmKIMR9rzbk/MrNWpfw9n6k+A5ckpsEkb2RQBljPhhkf+qOaXX06euyUVnXKqCo840hOX2Jw5qr3umqRbIT1pPIBGCLACQPa4C+e34z2H7aOjRyXfmptNVzUt63Xv3N+rsin5do1AAyxb+qDqPT2x+PFsppGTxxBg5WRZNg7KkwDLaa15jew3D5OaqzvazvYWwu5kjStlTzlQcm4t7La5DrCctbzeP1ta92luF6qH0RFg5Vbphgwt0MW/3lKFhcm3DbZfWRVrtROrR+QXSNFo8pW/Lc1x3XnbIs2f25D2trsf/GSsdpiUvC7w6lXNuvqyOYqnWN7xhtu3U3Fx8rhWrmjSNb+emwQZiUgXXrKFxk8o9gR55ie1uvfORZ60FWQjBFjutQmw3BsaG2A5P5J1/jPpXDLavv5e5//dTvz83Fod+RcnxW87KpMAa3V9XEf8ZZmmLeu4GqOvAdaDRw7Ttyf3vFj7nLXNiTWultW06mtjinXmTqVyfpHovDXH7MTtg794LbyLcxJgefCC38RN+B9gJX6nTrr5qWXGdNU7a2x12yKlpSq9/Q5ZBQUpZRJ/Jxqb1fT6K4ovWyqrtEz5e+6l6JgxXfZ39mt5+z9qevY5xZcs3sTK2XdPgJW93aY40nnCYGl+mX78pQs0uGBw2iE0x5sTi7QvrJ2vwmiRdhy4k8YWd9xe3/5Forp5rZ5c8hfNqZmVE7cQ3jfv95pbk/xFYlNYe9EnAZYXiv61kTbAqpktrZ6a1LE9eE9Z/bdLHpAdkz3jUqnibxv/Le0VWM6DE1rb106MyM4r67iKsvsH1Q2t2RVPyZp+SdKthGkDLLtVcm5B7GWzV74ifX611FrX2645++8EWLlVmgMPHayjjx+x8ftV59GtXdOSWNeqoSGu2ppW9R+Qlwi6tt2+VJO/PGDjMVNfXaOnn1yRMoRqb2+Pvcv1jTNGJU2+qaltMffZnzsXIHTcETN0WIEuu3rrlFi/vX6+Fsx3wrKu23EnjdT+B/f8hM8VK5r0wX/Xa/26Fo0eU6iv7FGuwqKuIVk8Jr315ho9+Xg4LyYgwHL/GiPAcm9oZIBV32Jrv0cq9P7yTr9gWZYitq2bDx6sC3YvT1r+45UF9TrksY41qjIJsJzyLK5u1ZZ3LlRsw9/NvgRYW5Tna+456Reh/2x1s054crlmrdlwmauzaKjV9kDnX+01SL/ep1z5EUt1zTF979k1emLmenVbV9SDMyi4JgiwgrP2qyevAqzaK69UbI7zJbtjcyLbouNPVP5xxyUFWK1fOIvEXye1dn4ap6UBD/1Byk/zlNLmZjXcc4+ap72X+ODjhAXtr5+8LbZUyfnnyRo0RHY8rtaPPlL97b9te4xpiDcCrLAVL66DRxye+H+ptpgd05TK1/TSsucS565txROLS9uWrYF5AxNPCSzJ65c49LN1MxLrTTWluLKjvW0vrsBywrR75tyhiobe1opz3sv6tthvrlePACu3K5Q2wFr6tOxPL049+D3+LmvAjsn/9vk1shf+ceN/Txtg1S2UPfXgDfu1JVbWgEnSrndKnZ722aWD1jrZ739Xqvqg63tgujWwqj6S/e5JWa0/lNsVSx4dAVYuVczSIV8frCOPTV6fylmX6r7fL0o8lS9FFRP/6fLrtlZzi61rE1dD9fzZaszYIp174QSVlCbf2veEs57V1K7rWV169Zc0bFjyZ79YzNaFP0peM9UJvM7/+UT175/6ydTrqmO6544FWrqkKTHSjksI4tp1t3Kd/p3RibW2nEDt4fsrNOPT9A9LyaUKphoLAZb7ChFguTc0NMCKa99HlspZ26r7tueYIr1+1hh1W9NPUxc36NDHlqlpQxKVaYDltH/TO1W6+NW2K5/6EmDdcvAQXfiV1PeNP/BRjX78YqVa25OxFOfCaTuUafzAPP31s1rNq0q+l9uD0yfQJgiwAuX2pTPPAqyrrlBs9uykMUYGDlTpbXfIinb94htbsiQRYNnr1m08Jm+bbdTvUmfB2+RL1u2qKtXfc5din32WfsHcaJ4KjzhC8dpaNb/2ymbx5YAAy5fT3rdG8yJRXbvTLWnbf3jBA5q5fnpH8tplz7ZrFfcetp/yrKjeqHxN8V4CWC8CrJZ4s+7OKMDyjW2TNUyAtcnoM+o4XYBlVzwtTf95yr/x1uTbpZFOgNxtIejPr5H6HGB1HaY1+TZp5BEpx27PvkWaf3eX13baK7CqP5b9jhNgbf4bAVZu1fiQrw9JGWDV18d03x1LNH+ed1f7OVdUOUFT923J4gbddHX7A0ak0rKofnH5ViorSw6j/v38aj37TPLTPvfad5BO/ubIlLiffrReD9zd8w8yO+5cqlGjijRzeq2WVoRzjdT2yRNguX+NEWC5NyTA6mTopOYHTyzWC6eNVvfbsP+zpFGHPrZUDa1tvwL0JcBqjcV15j9X6S8z6nT1/uX65V7lSZV7ZX7XpxCWFUT08jdHa/fRyY93fWNRg455YrlqmlPc1O3BOZGrTRBg5WplMh+X7wHW6DEqu+Y6qXuAtbhCdTdeuzHAcq6mKjz9DBUedljKwddefbVisz7PfGKbyZ4EWOEq5P7DDtLho1Kv33b7rJu1tMG5ndX5Yt3TY747/7Ld8+PAvQywljQmr/3hvC5lR50VTsNViAxHS4CVIdQm2q2vAVbiSos9npE1YIfkEWd1BVa3Zqw8WXs+I5Vtk9x+/SLZUw7q8t/TBlhVH8p+9+Q0fwfS3Ke4iWrgtlsCLLeC3h6fLsByenHWpVq4sE4P3b00cctd2/tU+/nYt/cAZ+899h6oU88YnXIC531/5sb/vvf+g3TCKSMUiSS/3z3yYIXe/2/HD53tB1148RaauGXXta+cW++r1sR03RVzEldWmbIRYLmvNAGWe0MjAywnhDrxyeWavqp5o6DzS/SkoQU6/ysDddAWhbK63brwyvwGHfJ4x9Mi+hJgOZ28XdGovf9Yoav2G5xRgDWqLE9Lzhuf8olS57+0WndM61gc1IPTIBRNEGCFokw9DtKrAKv+7rsUW7SwS1+RYcNVePAhyps0KWkMrZ9/pjpnDazYhkcwO08e/O73lL/PPsn7fvKx6n57a8e+nf5K9HYZe9grRIAVpgraOmvi2drBud2o27ZSF8hQAAAgAElEQVS4bpHun3dXt9sBnSuu2s/gnoOqdApeBFjOKnWVjSvUHE++KjixVte6GXpz1eubxRWN3R0JsHL79ZX2FsLqT6Tl/0q+yqp0a2nM8bKs7ldy2NLMK2UvfrTj3SPdIu5dbiFM4TP6BFk7Ja/fmAgAXti6SzSd3SLutuIzr5TVaay5XaWeR0eAlVvVGze+SOddNFEFBaluB+8IT52Lf5cuadS0d6vl3F742fQaVWVx58jt9+6QYr0tW+++tU6PP9z2He7YE4frgEOGJEGtXtWi226cr/XrOi810bZb6tDG1tNPrtQbLyevLdzxXptb9fBiNARY7hUJsNwbGhlgOX8yq5vicu517rz1K4iouPu9gxt2eGFunY5wHsW64XN/XwMsp5kPlzfoxXmNGQVYPbWff+28lI+Sfey4UdpiYM9rhrTEbV01tUovL+h4oqIHp1EgTRBgBcLsaydeBVh2Y2NSwJRYiD3NelatM6a3BVgbtkhxiUouvUzRcR0LWbf/W+Mzz6jpqSe7OVgq2H8/FR19jOxo6jUQEgfYUmzebDXccbvsEC44R4Dl6+nvcePxDQHWTknt/mfVFP1z6d+7/nfL1rCCYTp23EkqVPKVvZ13rm5dp8cWPKTuvyl7EWBlgnDRx+eneBRDJkfm9j4EWLldn56eQtj+oIMuM0h38VLLOtnvfkOq7XgAQWZrYKX2sQ6fk/If7Be26hKqZRdgSfaa/0jvfTu3i5Ph6AiwMoQKcDfndr2Ro3p+z+k8HOfKrIb6mFZVNumhe5eouio5UEo3/NO/PUq7fy35LpeGelsXX9C2ttUtd26v/PzkH3EqFjfoxk63Gnb0Yel3922fssvzfzAzaelT52mFZ3x3jIYMSbO+aqeW/jO1Sv99K1wXJBBguX/xEGC5NzQywMqGbfu7l+iLNR1rZmUTYLXEbM2tatF2Q5Lv0e5+C+Gosqgqzp+YcqiRq5OfynTv14fpe7v2/LTCzo2laiMblyCPIcAKUtufvrwKsPo6urqrr1TrrI5F362yMpVdd4OsAQOSmqq98grF5nRdX8sqLVX/u+7t+U6sTi01P/ecGv7yeF+Hucn3J8Da5CXIeADRSETfnvh9fals26Rj3qh8Vc8vc64Y6fQR3JZu2OW2jNtfVLdAd865vcv+BFgZ86XckQDLnZ/fR/cUYPWp7zXvyn7vjK6vv2yvwHIiqsPmpHzvsV/9itS8dmM/2QZYWv2W7Gnf6tMUc3VnAqzcrMyFl2yhCROLUz6NsKcRO8Hxxx/U6Oknlmtdiiujuh+74+T++t6PxybdNO9csPCH+5Zo1crmxPpXqbabr52vxQuTnz5YVBTRjb9L8bRRSZ1vTWxvc78DB+v4U0ZkXIiLL/hcDfXhuQWRACvj0qbdkQDLvSEBVgaGV7+5Vr+e0vEhwTmkpwDrd++t03m7J38x7qmr7gHWmNKoFl9AgNXZjAArg5M1x3fZFAFWy5tTVX/fvV2/TJQNUOn11yvSPzn0rfvNZWqd37Hgp3NgdORIld54c8a6rdPeV93vfpvx/rmyIwFWrlSi93HkRfL0rYlnpwywpla+pmeX/aPbLU9x3Tj5d703vGGPTRlg/fzjC3t96lTGE8mhHQmwcqgYKYbiPsBKLOIm+7U9pabVXd9z3ARYaa7Air+0g6x4p6Uw0j2FsDd2AqzehHz99/ffXadHHqrwtY9N3XhJSZ52/9qARLCT8mrGXga4elWzrvxV6isROx86ZGi+zrlwgganuFDg2Wcqtde+5RpYnurpg9KFP+pYJ6tzm2Wlebrm1uR16JzbHs//gXNVV9e7eQiwNvXZlvv9E2B5UKMwXomT6bS3Ki/Q7HOSbxHK9Hhnv2nLGnXcX1doWW3XS1h7CrB2fWCJXjh1lIb3S36ca7q+uwdYPbUfvWZe4g2g88YVWH2panD7trzzturvumuz/DKWjWLQAVa8okL1N9+k2JpuXyaKixNPIIyOG580jcan/qamZ7refhUdOUqlN96U8ZQJsDKmcr3jbbNu0rKGjvUJXTcYmgacWwi/l3INrDdXTdG/ut9CKFs3Ok9My3DbtAHW+RtGmd1aXRlOMfDdCLACJ+9Th64DrNYa2R+eI615J6nfrG8hzO8v66APUs7DfmHrLv892yuw7NVvStO+0yerXN2ZK7BytTLOuCwNGBDV0SeO0LBhBRo9tkh5aZZtSTULZ40s5yqp7su/dN/3vJ9N1FZfKklqYsWyZg0bkZ9y8fZ/PL1Cr76YvJZVeyPprjo67/sEWLl8xuXq2AiwPKgMAVYaRFu64s01euTTWi2oTl5stseA6aq5OvJL/fSPU1I/cjVVj30JsE5/ZqUen1HTpZk7DxumH+3GLYQevCQ8bYIAqytnYAGWLTX/8x9q/s8UxVYkPxJZziLuZ39f+XvvnVTvlg8/UL2ziHunLVJYqLIHHsr43CDAypjK9Y4EWMmLuM+pma2HFzwgZ1H0js0JsJxbCDMLhfwNsNI/+eyVFS/p3yue3zDszMbq+iQKqAECrICgs+zGVYC19Jm2RdudBd9TbNkEWImz3wmdR349ZZsZr4HVVCl72bOpf0hrqZZWTZXWt60PFPaNACscFSwqimrs+CI5t+d9dc+BmjS59+8vzpP+Hri7QrM+6/r9p/uMJ3+5v77zg7EZQ9hxW3fetlizv6hNe0y6AOvRPyzVe+90XcOKK7Aypjd2RwIsD0pvYoAVt6XF61vU2NL1KqbWuBKL8dW3xnXq0yu0sIf7rXsKsBKmtqV/nTpCR2zl/ArQ+4fw7gHWwMKIppw1VpOGJV/q+tqCeh3z1xWqa+l8z7Sti/cYpK0HdV1f6zuTy1KeJWGsO7cQevCC97uJvDw5VyvF16yRXV+X1FvRiSer8Jhjkv57bNYXiUXW7ZauYXG6W9rilStkN3X+ci5ZduJlJ9XVq/6euxJjSLc5Tx0tPO00FR6e/MXAGUPdjdcr9oWzZlbb3winWat8kPL3309WpOPKyrydJys6YUJSNwRYfp9oHe2bG2BJh408QgcMPzgJ2zlr75lzuxbUObfCtr//2CrL66/9hx+komjRxmNGFI3UmJLkK5X9CrBa4s26e84dqmhYEtxJkiM9EWDlSCHSDCNdgGU3V8tqSvFDiB2TVk+RPef3UtxZIzX9Z71sAiwN3UuWE2Dlpfhyv+Il6cNz297zNmxpr8Cq/lj2OyflNr5HoyPA8ggy8GYsFRdHdcrpIzRxy5LEbX5WipfTIw9W6P3/rut1dL+9e3tFo71/93IaWrSgQXfdtlANDenXobr411tq9JiO9832Aaxd06wbrpyvhoYNT7je8Ilxz30GaGC5832s4/330COGphw3a2D1Ws7NbgcCLA9KGsYgo/O00/+OK6W7hbC+xdZhjy/Vxyu6fgFuaI2r24MJ0wr3GmBJGlka1YunjdakYcmLtndvuHuA5fzJ+91hQ3TObgO77Worblu6Y1q1Lvx319ui2r5st/2xbP8yH7809WKFYaw7AZYHL3gfm8jbZhsVHP515X95N8VmzVbt1Vckzsb2mNiSrcJTvqHCI4/uMgrndtjYZzPbnhLY7dbYdAFW7VVXKDa760LrfZ1adNvtVPqrS1MeFlswX3XXXCO7yflS0jXo7nxA8Xe+q4L9D0hqgwCrr9XIfv/NOcCyZbf/RU8JVJRXpCt37Hi6ZuedGmMNemj+fVq4McRy2nJehZ3PZ1sHDD9Eh408Mql9Aqzsz8l0RxJgeW/qZYtpA6yKp6TpF2f0Y2S68fQ5wBr7DVkTvyv1S/6BJLGExOdXSose7dIdAZZEgOXlKyKTtjp/yut5//ETixNBT2W3717djxo8JF//+4stVFqW/MTnTAOsY08crgMOGZLJBPTpR+v1wN09/6CS7qoq57U47b/r9OhDvS9j8Lt7d0iZcRNgZVSmzWonAiwPyhnGIKN92oOKIirYkLDXtdiqae6anqcPsOLa95Gl+mB5x1MF+0qZSYDltOnc1ufc3tfb1j3Acvbfa1yxpp45OvWhtvT0F7X69r8qk+btHDCg0NITx4/UIVsm3wfu/HsY606A1dtZ5P2/O0/rc644Snzpra9PukLK6dEqKlLJOecob+dd1PGTma3Y3Lmqve46qbkp8cU5MmyYSm+4UcpL/lDSOmO6am+4IfH1uvPmZ4Dl9NP/nntl9StNCRdbsVwNt9+u2NKKpGBNBfmKDhqm0ptuTHksAZb352K6FjfPAMtWYaRIBRHnxw9bLXarGmONKQlOHXe6dhm0W8p/q22p0cML71dFfYViztUinX4Njlr5Ks0r1f9ue7GKosVJxxNgeX8OE2B5b5ppi1ZemezCcmnwnrLXvi/LWTcvVt/l8PQB1tPS9J/7E2DVL5H97ikd44iWydrlZqlsUvoLuhpXyJ5y0IarvjoOJcAiwMr09eDFfqVlUUUtS3FZqq9vVaw1/Y99e+xdrpO/OTKx/tTLz6/R66+uUn1dTPEUFz05V1794jdbasSo5CueMg2wJm7RTxdcPCGjpx5e8+s5WtlLqDZufLF+fMF4laRZ23jBvEbdc8eClE8TLCyK6JvfGq3Juzp3xCRfFUaA5cXZGK42CLA8qFcYgwzn6qIDtyjWg0cP19jSti/DH6xo0hnPrNQXazquqsqFAMv54n7TQYP10692v5Kqa/FSBVjOHvd8fZi+n+aPnvNd//3lTZq6uEEramNaWtOqLcsLNKBYOnhCiXYaXpj2DIlePa/bL/EenEw+N0GA5TNwt+YLjztWhYce3hbw2LZaPvhAjY/8UfGqqk6fmC0Vn3WWCg5Mvo3J2al15gy1Ll6sSDSq/AMOlJUivHL2a/rnP9X45BNJE/Q3wHJCtaEqc54uGE3zwIXWVjW//rrU2KD4mrWy+pUkPKxRI5W/085y1tJKtTU987Qan3oq2IJ50BtPIfQA0W0TtjSyeIROGnfaxlv7Khsr9dKK5zS9+uOkD8Bl+WU6Z+sLNahgUNqeP1z7gda1VGlVU6WiVlTDCoepNL9Mu5SnDr6chhbXLtTv5zprZnVsTh8/3+5SRayu531rvEX3z7t7wy2Lzv62SqIlunzSdUlj4hbCi9yeIcEe79ya/WLXxcKDHYAHvTm3yO56l6yy9ieJ/f/jw6o+kv3emV1CoE0SYGUzvY8vlL3cWdOq60aARYCVzenU12Msy9KhRwxJXOHkrGHlLKr+8Yfr9eeHl6m524UETtvl5fm68BcTNXBgx5IoTY3xxDG1ta2qrmrVymUNamm1Eou7jxlfpK/sMUAFBcmfyzINsPoPyNOPzhufWCi+p62+PqZLLvgiAwJLx544rMerulYub9ZnM2rUUB9TbW1M/UqjKimOaKttShPrfaXbCLAy4N/MdiHA8qCgYQywnGnHfrWlnD+i3be2+bTdSpcLAZYzviHFUb18+hjtPDx5Pav28acLsPIilpacN0HDSzN/omFvp4WzALyzEHzYNgKs4CpWcPAhKj7jzE5XVLX1HVu0SLWXOrfddfxsVnTcCSo8/nhXg1t3xukpb9XzN8BqG3LRUceq8GQP1wexba0/4/Qua5O4wgnwYAKsALHTdpX6aYHNsSbdMvsGVTWtTTrymNHHa8+h+3g6+Dtm36ol9Yu7tEmA5Y6YK7Dc+WV7dOJWvG0v6Xq48zEx3iT75R02LJ4ohSHAsj+/Vlr4h5QUBFgEWNm+RjI/ztJ+Bw3S8SePSDrEeUrgDVfN6/TfrcRvfNfe+iWVlCRfeZ95n217OnfO/vH+Cn30fu9rYDn7n/3jsdqpl8Xh779zkaZ/kn7x9u5jvPbWbVXq4fexD6ZVJ24/jHVeQquvMAHvn25B+4CHEeruCLA8KF8YA6yzd+mv+45IfVve1/5Qof8ubbvVIlcCLGcsx21bqqdOTP6D317CdAGW8+/7jS/W86eNUlGGCxL2dFo4V2od+vhSTa/suv6XB6eS700QYPlOvLGDwuNPVNFxxyV94HcWZq+79RbFZjsLnLdt0YkT1e/SX8sq6H2tt1QzaHruWTX+5S+bLMBSYYGKv322Cvbc0zWw3diohnvvVsv777tua1M0QIC1KdS79rn30H111KjjUt4+dMecW7WkblG3q7Dabts4ZvQJ3oRYtq03V0/Rv5b+PelqLwIsd+cHAZY7v2yPtg75RPr/KwKTNrtV9ovbbfzPuR5g2Ysfl2bfIrWsT0lBgEWAle1rpC/HnXDKCO174OCkQ6qrW/T7Wxd2WuPK0vGnDJezfpQX2/KljbrluoVqbs4s7dl2+9LEbX/pNudqsZuvna8VyzJfTmbEqEKdc/54DShPf0FCpnN1brm849aFmj+3663MmR6/qfYjwHIvT4Dl3jCUayG13VaX+pGr33+2Ug983PbmnksBljOeaw8YrEv2KE9ZtZ4CLOfriXMV18qfTlQks4dqpDkzbA2+eYGqG+KhvDqEAMuDF3yGTRR98wwVHnZY8t7OE/ruuEOtH33Q6d8sRUeMVOlNN2XYesdurbO/UMMtNyte35Dy2CCuwEp0nJen4lNPU8HBh2by0NC082x46AE1T5milAs79Fkn+AMIsII3797j0aOO017D9k05kD8suFefr/s89SAt6chRx2qfofu5msTM6k/06KKHFbOTFychwHJFKwIsd37ZHm0dMkOKplhSIRFgbdvx8JvJN0sjk5+Sa1f4uAZWhpOyZ14mLXlKsrs+qbfz4QRYBFgZnk6udvvuD8dp58TSJl23utpW3fv7JVo4vz2QiejEU4drn/3T397el4FccuEs1de19uUQ9RS2zPi0Rg/du0St3Z5I31sHztMSb7jd+buR/dYaky676AvV1WYWxmXfk/dHEmC5NyXAcm8YygBrXP88LTwv+cksDkf/G+erdsM92BMH5mveucnpu/Pv+/1pqT50sYj7mNI8Lb4g9RjSXdVWkmdp6lljtOvI5A9Sryyo1yGPLeuxoruMKNRFXyvXN3ZIveh0Twf/fVadLnl1teaubenhmWoenFA+NkGA5SNut6YLDjpYxWeelXQLYXzlStVedaXsddVdjrBsS/l77qGib38nsah7JlvrnDlq/POjis1xbvtNvaUNsK68QrE57p5CmNRjxFLRSaco/6t7KDIk818MnafQ2JWVavjDQ4k1v8K8EWBt+uqNLRmrn2z9v0lBatyO6aYvrtOapu5Pn+08ZluHjTpKO/TfUcOL0l/xm2qW1c1V+qjqfb2w/Lk0CLbKC8p18Xa/TloDqznepPvn3aVFiavDnM1WcV6xrkjxhMTmeLPumfM7VTRUbHrsgEdAgBUweHt3E74la7tfJXe+8tX/X0D1hx0/6G1/mRIhUPdt8WOyZ17ubvBjT5a14zV9ayPeJFW+IXvFi1KKNa+6N2aNOlra+ZbkPta8Jfu9b/Wt75DuzVMI/S/c/gcPlvOUv+7LuKxY3qRbr5uvxsaOHz+chd6POHq4tt2hVM7TBbPZ1q1r0R/vq9C8OX2/UunQI4bqiGNS37Ez9fW1+tufl2czJJUPyk+0u/vXel7fOFXjztpfr/17tRbOd+4WSr/wfVYDC+AgAiz3yARY7g1DGWA50775oCG68CsD2v6AOjdGW5Z+8Pxq3f9hxxfr/Iilpl9umaT09pIGHfXEclV1+iPbV8rS/KheOG2k9uy2QKDzpyiaWIcr9bbTsAJN++5Y5Xe7HfDPn9Xom0/3vi6V89TFr44u0kNHDdcW5XkblvtqW/MrsW38n23/Y+aqJv3wuVX6cEWTGnp4Qkhf578p9ifACk7dKilR6fU3KlLedsVg+2lVd9llal04P/VAIhFFhw5Tv0svkzUwxZt6p9O0+d8vqemppxSvr0s7KedhDf0f+VPSQumxJYtVd+MNsqu7hmhe6UQGDVLBIYeq8Igje23SuWWw/t67FZs3T3bnxe17PTI3dyDAyo267D5od5047rQug/m0+iP9edGfUl4Z1bFj24fhsrwy7Vy+m44efWzaCXV6Oerfy5/TtKr3tL55XQ8fp+3EAvBX7XyT8tR1TcaK+iW6b/6damxtf1KinXj60w07357Uf0X9Yj04/17VtaZ/7edGFbwfBQGW96aZtGg5T9n8n4ekzg8tWDVV9ofnSPFOT/fML5e136tSXqerS5x1sj69SFr+vKunEKpkrKyvPiEVDO39Kt/aedLsW2XXzpGcoDee/qqrLvOPFsva+wWpuNPTq+1WaeZvZC/5ayZUod+HAMv/EjpP4vvVFVuprH/bulbOj3jOd7FrfjNXK9NcGDCwPF+jRhfqrLPHqLgk0zV9bb371jq9+Gyl1q7J8DXQbfpO0PTzS7dUP+fpgZ3uYHHG/MufzlJdXfZXQEWjlkaNKdKJ3xipiVsmP8m3s43zv6urWvToH5YmbhlsDfH3MQIs968xAiz3hqEMsJwn+8Vl68p9BiWuZnI+KP9zdp3u/XB90gNKIxv2badyjrV9S7zbvhJ0/mKQvkTOX9Isknfbkpxv9pIGF0d1yZ7l2q7zrxp22wydwOrat6rU0Or0Yqd4cKsHJ0/ATRBgBQwuS0XHn5BY48puaVbTU39TbOnSXgbR9gkhb6edVHjwIRvOvY7XXHzhQjU9/ZTsxO1Jvd0P65y3ba+n5C3L109GhBva/v8PZPmTJin/oINkWxE5f0vat/ia1Wp+8QXFVqzY8J/8HE9Gg/ZkJwIsTxhdNeKc7xHZ+nL5VzRp4M6JLwZza+dqauVrGbfrnI3xDQ9a2K5sB+0+ZA/lWc6XhvZXk5UImz6q/kCfr5++od3UT9Ts3GniFWDZid+Mur5/RRJvS87bU+fNVlxOqx2v4fYdenvtZzzVUO1IgLUpy2XL6j9JGn6Q7HWfSJWvpzhn295z2j41tW/tf9vdnbMd7xA9fe7r3EdmnyRTi3buo63NVK/PTVkNv/omwPJLNrnd408ZoaHDCtTSHNez/6hU5QonZOrte42lwiJLe+07SFtuVSIr0vk873iVVCxq1CsvrVZTU3t7vbWbzbw73g+zObrzMXmRiA44bJAmblnS6UKCtj2WLGzUlNfXhPJ2wVQuBFhuzxbn77ETobK5EgjjIu6uJrwZH+zm404YWAiwwlCldGPcHAKezWEOPZ9DBFi5+Brz5i972w8Z7R+Zeg+rclEi7GMiwAp7BRl/rgsQYOV6hTqPr3M43PZDe/v/H6ZZmDZWAiz3FSfAcm8YyiuwPJg2TYRQgAArhEVjyKESIMAKVbkYbMgECLBCVjCGGzoBAqzQlYwBh0yAAMt9wQiw3BsSYHlgSBPBCBBgBeNML+YKEGCZW3tm7r8AAZb/xvRgtgABltn1Z/b+CxBguTcmwHJvSIDlgSFNBCNAgBWMM72YK0CAZW7tmbn/AgRY/hvTg9kCBFhm15/Z+y9AgOXemADLvSEBlgeGNBGMAAFWMM70Yq4AAZa5tWfm/gsQYPlvTA9mCxBgmV1/Zu+/AAGWe2MCLPeGBFgeGNJEMAIEWME404u5AgRY5taemfsvQIDlvzE9mC1AgGV2/Zm9/wIEWO6NCbDcGxJgeWBIE8EIEGAF40wv5goQYJlbe2buvwABlv/G9GC2AAGW2fVn9v4LEGC5NybAcm9IgOWBIU0EI0CAFYwzvZgrQIBlbu2Zuf8CBFj+G9OD2QIEWGbXn9n7L0CA5d6YAMu9IQGWB4Y0EYwAAVYwzvRirgABlrm1Z+b+CxBg+W9MD2YLEGCZXX9m778AAZZ7YwIs94YEWB4Y0kQwAgRYwTjTi7kCBFjm1p6Z+y9AgOW/MT2YLUCAZXb9mb3/AgRY7o0JsNwbEmB5YEgTwQgQYAXjTC/mChBgmVt7Zu6/AAGW/8b0YLYAAZbZ9Wf2/gsQYLk3JsByb0iA5YEhTQQjQIAVjDO9mCtAgGVu7Zm5/wIEWP4b04PZAgRYZtef2fsvQIDl3pgAy70hAZYHhjQRjAABVjDO9GKuAAGWubVn5v4LEGD5b0wPZgsQYJldf2bvvwABlntjAiz3hgRYHhjSRDACBFjBONOLuQIEWObWnpn7L0CA5b8xPZgtQIBldv2Zvf8CBFjujQmw3BsSYHlgSBPBCBBgBeNML+YKEGCZW3tm7r8AAZb/xvRgtgABltn1Z/b+CxBguTcmwHJvSIDlgSFNBCNAgBWMM72YK0CAZW7tmbn/AgRY/hvTg9kCBFhm15/Z+y9AgOXemADLvSEBlgeGNBGMAAFWMM70Yq4AAZa5tWfm/gsQYPlvTA9mCxBgmV1/Zu+/AAGWe2MCLPeGBFgeGNJEMAIEWME404u5AgRY5taemfsvQIDlvzE9mC1AgGV2/Zm9/wIEWO6NCbDcGxJgeWBIE8EIEGAF40wv5goQYJlbe2buvwABlv/G9GC2AAGW2fVn9v4LEGC5NybAcm9IgOWBIU0EI0CAFYwzvZgrQIBlbu2Zuf8CBFj+G9OD2QIEWGbXn9n7L0CA5d6YAMu9IQGWB4Y0EYwAAVYwzvRirgABlrm1Z+b+CxBg+W9MD2YLEGCZXX9m778AAZZ7YwIs94YEWB4Y0kQwAgRYwTjTi7kCBFjm1p6Z+y9AgOW/MT2YLUCAZXb9mb3/AgRY7o0JsNwbEmB5YEgTwQgQYAXjTC/mChBgmVt7Zu6/AAGW/8b0YLYAAZbZ9Wf2/gsQYLk3JsByb0iA5YEhTQQjQIAVjDO9mCtAgGVu7Zm5/wIEWP4b04PZAgRYZtef2fsvQIDl3pgAy70hAZYHhjQRjAABVjDO9GKuAAGWubVn5v4LEGD5b0wPZgsQYJldf2bvvwABlntjAiz3hgRYHhjSRDACBFjBONOLuQIEWObWnpn7L0CA5b8xPZgtQIBldv2Zvf8CBFjujQmw3BsSYHlgSBPBCBBgBeNML+YKEGCZW3tm7r8AAZb/xvRgtgABltn1Z/b+CxBguTcmwHJvSIDlgSFNBCNAgBWMM72YK0CAZW7tmbn/AgRY/hvTg9kCBOW8v7oAAAtZSURBVFhm15/Z+y9AgOXemADLvSEBlgeGNBGMAAFWMM70Yq4AAZa5tWfm/gsQYPlvTA9mCxBgmV1/Zu+/AAGWe2MCLPeGBFgeGNJEMAIEWME404u5AgRY5taemfsvQIDlvzE9mC1AgGV2/Zm9/wIEWO6NCbDcGxJgeWBIE8EIEGAF40wv5goQYJlbe2buvwABlv/G9GC2AAGW2fVn9v4LEGC5NybAcm9IgOWBIU0EI0CAFYwzvZgrQIBlbu2Zuf8CBFj+G9OD2QIEWGbXn9n7L0CA5d6YAMu9IQGWB4Y0EYwAAVYwzvRirgABlrm1Z+b+CxBg+W9MD2YLEGCZXX9m778AAZZ7YwIs94YEWB4Y0kQwAgRYwTjTi7kCBFjm1p6Z+y9AgOW/MT2YLUCAZXb9mb3/AgRY7o0JsNwb0gIC4RKwbcmyQjVm27ZlhWzMoQJmsAgggAACvgjw/uULK40igAACCBgqQIBlaOGZNgIIIIAAAggggAACCCCAAAIIIBAWAQKssFSKcSKAAAIIIIAAAggggAACCCCAAAKGChBgGVp4po0AAggggAACCCCAAAIIIIAAAgiERYAAKyyVYpwIIIAAAggggAACCCCAAAIIIICAoQIEWIYWnmkjgAACCCCAAAIIIIAAAggggAACYREgwApLpRgnAggggAACCCCAAAIIIIAAAgggYKgAAZahhWfaCCCAAAIIIIAAAggggAACCCCAQFgECLDCUinGiQACCCCAAAIIIIAAAggggAACCBgqQIBlaOGZNgIIIIAAAggggAACCCCAAAIIIBAWAQKssFSKcSKAAAIIIIAAAggggAACCCCAAAKGChBgGVp4po0AAggggAACCCCAAAIIIIAAAgiERYAAKyyVYpwIIIAAAggggAACCCCAAAIIIICAoQIEWIYWnmkjgAACCCCAAAIIIIAAAggggAACYREgwApLpRgnAggggAACCCCAAAIIIIAAAgggYKgAAZahhWfaCCCAAAIIIIAAAggggAACCCCAQFgECLDCUinGiQACCCCAAAIIIIAAAggggAACCBgqQIBlaOGZNgIIIIAAAggggAACCCCAAAIIIBAWAQKssFSKcSKAAAIIIIAAAggggAACCCCAAAKGChBgGVp4po0AAggggAACCCCAAAIIIIAAAgiERYAAKyyVYpwIIIAAAggggAACCCCAAAIIIICAoQIEWIYWnmkjgAACCCCAAAIIIIAAAggggAACYREgwApLpRgnAggggAACCCCAAAIIIIAAAgggYKgAAZahhWfaCCCAAAIIIIAAAggggAACCCCAQFgECLDCUinGiQACCCCAAAIIIIAAAggggAACCBgqQIBlaOGZNgIIIIAAAggggAACCCCAAAIIIBAWAQKssFSKcSKAAAIIIIAAAggggAACCCCAAAKGChBgGVp4po0AAggggAACCCCAAAIIIIAAAgiERYAAKyyVYpwIIIAAAggggAACCCCAAAIIIICAoQIEWIYWnmkjgAACCCCAAAIIIIAAAggggAACYREgwApLpRgnAggggAACCCCAAAIIIIAAAgggYKgAAZahhWfaCCCAAAIIIIAAAggggAACCCCAQFgECLDCUinGiQACCCCAAAIIIIAAAggggAACCBgqQIBlaOGZNgIIIIAAAggggAACCCCAAAIIIBAWAQKssFSKcSKAAAIIIIAAAggggAACCCCAAAKGChBgGVp4po0AAggggAACCCCAAAIIIIAAAgiERYAAKyyVYpwIIIAAAggggAACCCCAAAIIIICAoQIEWIYWnmkjgAACCCCAAAIIIIAAAggggAACYREgwApLpRgnAggggAACCCCAAAIIIIAAAgggYKgAAZahhWfaCCCAAAIIIIAAAggggAACCCCAQFgECLDCUinGiQACCCCAAAIIIIAAAggggAACCBgqQIBlaOGZNgIIIIAAAggggAACCCCAAAIIIBAWAQKssFSKcSKAAAIIIIAAAggggAACCCCAAAKGChBgGVp4po0AAggggAACCCCAAAIIIIAAAgiERYAAKyyVYpwIIIAAAggggAACCCCAAAIIIICAoQIEWIYWnmkjgAACCCCAAAIIIIAAAggggAACYREgwApLpRgnAggggAACCCCAAAIIIIAAAgggYKgAAZahhWfaCCCAAAIIIIAAAggggAACCCCAQFgECLDCUinGiQACCCCAAAIIIIAAAggggAACCBgqQIBlaOGZNgIIIIAAAggggAACCCCAAAIIIBAWAQKssFSKcSKAAAIIIIAAAggggAACCCCAAAKGChBgGVp4po0AAggggAACCCCAAAIIIIAAAgiERYAAKyyVYpwIIIAAAggggAACCCCAAAIIIICAoQIEWIYWnmkjgAACCCCAAAIIIIAAAggggAACYREgwApLpRgnAggggAACCCCAAAIIIIAAAgggYKgAAZahhWfaCCCAAAIIIIAAAggggAACCCCAQFgECLDCUinGiQACCCCAAAIIIIAAAggggAACCBgqQIBlaOGZNgIIIIAAAggggAACCCCAAAIIIBAWAQKssFSKcSKAAAIIIIAAAggggAACCCCAAAKGChBgGVp4po0AAggggAACCCCAAAIIIIAAAgiERYAAKyyVYpwIIIAAAggggAACCCCAAAIIIICAoQIEWIYWnmkjgAACCCCAAAIIIIAAAggggAACYREgwApLpRgnAggggAACCCCAAAIIIIAAAgggYKgAAZahhWfaCCCAAAIIIIAAAggggAACCCCAQFgECLDCUinGiQACCCCAAAIIIIAAAggggAACCBgqQIBlaOGZNgIIIIAAAggggAACCCCAAAIIIBAWAQKssFSKcSKAAAIIIIAAAggggAACCCCAAAKGChBgGVp4po0AAggggAACCCCAAAIIIIAAAgiERYAAKyyVYpwIIIAAAggggAACCCCAAAIIIICAoQIEWIYWnmkjgAACCCCAAAIIIIAAAggggAACYREgwApLpRgnAggggAACCCCAAAIIIIAAAgggYKgAAZahhWfaCCCAAAIIIIAAAggggAACCCCAQFgECLDCUinGiQACCCCAAAIIIIAAAggggAACCBgqQIBlaOGZNgIIIIAAAggggAACCCCAAAIIIBAWAQKssFSKcSKAAAIIIIAAAggggAACCCCAAAKGChBgGVp4po0AAggggAACCCCAAAIIIIAAAgiERYAAKyyVYpwIIIAAAggggAACCCCAAAIIIICAoQIEWIYWnmkjgAACCCCAAAIIIIAAAggggAACYREgwApLpRgnAggggAACCCCAAAIIIIAAAgggYKgAAZahhWfaCCCAAAIIIIAAAggggAACCCCAQFgECLDCUinGiQACCCCAAAIIIIAAAggggAACCBgqQIBlaOGZNgIIIIAAAggggAACCCCAAAIIIBAWAQKssFSKcSKAAAIIIIAAAggggAACCCCAAAKGChBgGVp4po0AAggggAACCCCAAAIIIIAAAgiERYAAKyyVYpwIIIAAAggggAACCCCAAAIIIICAoQIEWIYWnmkjgAACCCCAAAIIIIAAAggggAACYREgwApLpRgnAggggAACCCCAAAIIIIAAAgggYKgAAZahhWfaCCCAAAIIIIAAAggggAACCCCAQFgECLDCUinGiQACCCCAAAIIIIAAAggggAACCBgqQIBlaOGZNgIIIIAAAggggAACCCCAAAIIIBAWAQKssFSKcSKAAAIIIIAAAggggAACCCCAAAKGChBgGVp4po0AAggggAACCCCAAAIIIIAAAgiERYAAKyyVYpwIIIAAAggggAACCCCAAAIIIICAoQIEWIYWnmkjgAACCCCAAAIIIIAAAggggAACYRH4P5kMkPb8gQgFAAAAAElFTkSuQmCC;rotation=25;" vertex="1" parent="1">
          <mxGeometry x="160" y="550" width="195.8" height="70" as="geometry" />
        </mxCell>
      </root>
    </mxGraphModel>
  </diagram>
</mxfile>
